<svg width="519" height="519" viewBox="0 0 519 519" fill="none" xmlns="http://www.w3.org/2000/svg">
<path d="M84.0667 449.291H40.1927V463.18H84.0667V449.291Z" fill="#EBEBEB"/>
<path d="M59.5967 480.694C52.2843 480.818 33.8538 481.128 26.7911 481.215H15.7228H15.1612V480.644V466.755V466.209H15.7851L37.7221 466.296C43.1751 466.296 54.1935 466.47 59.6591 466.544H59.9585V466.83L59.6715 480.719L59.5967 480.694ZM59.5967 480.694L59.2972 466.805L59.5967 467.103C54.1187 467.177 43.1252 467.301 37.6597 467.351L15.7228 467.45L16.3467 466.83V480.719L15.7727 480.16H26.6413C33.5918 480.247 52.4466 480.557 59.6466 480.669L59.5967 480.694Z" fill="#EBEBEB"/>
<path d="M225.234 91.6147C217.922 91.7389 199.492 92.0492 192.429 92.1236H181.361H180.861V91.5527V77.6636V77.043H181.485L203.422 77.1299C208.888 77.1299 219.894 77.2912 225.359 77.3657H225.659V77.7132L225.359 91.6023L225.234 91.6147ZM225.234 91.6147L224.935 77.7132L225.234 78.0111C219.756 78.0856 208.763 78.1973 203.297 78.2469L181.361 78.3338L181.984 77.7132V91.6023L181.41 91.0438H192.279C199.23 91.1183 218.084 91.4286 225.284 91.5527L225.234 91.6147Z" fill="#EBEBEB"/>
<path d="M200.827 109.127C193.514 109.251 175.084 109.561 168.021 109.636L156.953 109.698H156.391V109.127V95.2378V94.6172H157.015L178.952 94.7041C184.405 94.7041 195.424 94.8654 200.889 94.9399H201.189V95.2254L200.827 109.127ZM200.827 109.127L200.527 95.2378L200.827 95.5357L189.858 95.6722C182.895 95.7715 164.153 95.8336 156.953 95.8584L157.577 95.2378V109.127L157.015 108.568H167.884C174.834 108.643 193.689 108.953 200.889 109.077L200.827 109.127Z" fill="#EBEBEB"/>
<path d="M176.382 77.7246H132.508V91.6137H176.382V77.7246Z" fill="#EBEBEB"/>
<path d="M503.227 466.805H459.353V480.694H503.227V466.805Z" fill="#EBEBEB"/>
<path d="M478.757 0.669922H434.883V14.559H478.757V0.669922Z" fill="#EBEBEB"/>
<path d="M503.227 32.073C495.915 32.1972 477.484 32.5075 470.422 32.5943H459.353H458.792V32.0234L458.729 18.1343V17.5137H459.353L481.29 17.6006C486.756 17.6006 497.762 17.7619 503.227 17.8488H503.527V18.1343L503.227 32.0234V32.073ZM503.227 32.073L502.928 18.1343L503.227 18.4322C497.749 18.5066 486.768 18.6308 481.29 18.668L459.353 18.7549L459.977 18.1343V32.0234L459.403 31.4648H470.272C477.235 31.5393 496.09 31.862 503.277 31.9737L503.227 32.073Z" fill="#EBEBEB"/>
<path d="M84.0667 14.5594C76.7544 14.6835 58.3239 14.9938 51.2611 15.0807H40.1928H39.6313V14.5097V0.620603V0H40.2552L62.1922 0.0868841C67.6577 0.0868841 78.6636 0.248242 84.1291 0.335126H84.4286V0.620603L84.1291 14.5097L84.0667 14.5594ZM84.0667 14.5594L83.7673 0.670253L84.0667 0.96814C78.5887 1.04261 67.5953 1.16674 62.1298 1.20397L40.1928 1.29086L40.8167 0.670253V14.5594L40.2427 14.0008H51.1114C58.0618 14.0753 76.9166 14.398 84.1166 14.5097L84.0667 14.5594Z" fill="#EBEBEB"/>
<path d="M239.497 26.3019L230.226 28.0148L228.154 37.7334L226.083 28.0148L216.812 26.3019L226.046 24.0553L228.154 14.8828L230.263 24.0553L239.497 26.3019Z" fill="#FFC727"/>
<path d="M110.795 73.2939L105.617 74.2496L104.456 79.6861L103.296 74.2496L98.1174 73.2939L103.283 72.0402L104.456 66.9141L105.642 72.0402L110.795 73.2939Z" fill="#FFC727"/>
<path d="M361.548 75.3173L356.369 76.273L355.209 81.7095L354.061 76.273L348.87 75.3173L354.036 74.0637L355.209 68.9375L356.394 74.0637L361.548 75.3173Z" fill="#FFC727"/>
<path d="M436.019 127.982L430.84 128.925L429.68 134.362L428.532 128.925L423.341 127.97L428.507 126.716L429.68 121.59L430.865 126.716L436.019 127.982Z" fill="#FFC727"/>
<path d="M329.142 172.754L323.963 173.709L322.803 179.133L321.642 173.709L316.464 172.754L321.617 171.5L322.803 166.361L323.976 171.5L329.142 172.754Z" fill="#FFC727"/>
<path d="M158.276 159.694L153.097 160.65L151.937 166.086L150.788 160.65L145.61 159.694L150.764 158.441L151.937 153.314L153.122 158.441L158.276 159.694Z" fill="#FFC727"/>
<path d="M69.0802 206.166L63.9016 207.121L62.7412 212.545L61.5932 207.121L56.4022 206.166L61.5682 204.912L62.7412 199.773L63.9266 204.912L69.0802 206.166Z" fill="#FFC727"/>
<path d="M307.654 142.379C307.257 142.379 306.876 142.536 306.595 142.815C306.314 143.094 306.157 143.473 306.157 143.868C306.157 144.263 306.314 144.642 306.595 144.922C306.876 145.201 307.257 145.358 307.654 145.358C308.051 145.358 308.432 145.201 308.713 144.922C308.994 144.642 309.151 144.263 309.151 143.868C309.151 143.473 308.994 143.094 308.713 142.815C308.432 142.536 308.051 142.379 307.654 142.379Z" fill="#FFC727"/>
<path d="M168.383 121.662C168.008 121.696 167.659 121.868 167.405 122.145C167.151 122.422 167.01 122.783 167.01 123.158C167.01 123.532 167.151 123.894 167.405 124.17C167.659 124.447 168.008 124.619 168.383 124.653C168.758 124.619 169.107 124.447 169.361 124.17C169.615 123.894 169.756 123.532 169.756 123.158C169.756 122.783 169.615 122.422 169.361 122.145C169.107 121.868 168.758 121.696 168.383 121.662Z" fill="#FFC727"/>
<path d="M44.1485 216.566C43.7733 216.6 43.4245 216.773 43.1705 217.049C42.9165 217.326 42.7757 217.687 42.7757 218.062C42.7757 218.437 42.9165 218.798 43.1705 219.075C43.4245 219.351 43.7733 219.524 44.1485 219.558C44.5236 219.524 44.8724 219.351 45.1264 219.075C45.3804 218.798 45.5212 218.437 45.5212 218.062C45.5212 217.687 45.3804 217.326 45.1264 217.049C44.8724 216.773 44.5236 216.6 44.1485 216.566Z" fill="#FFC727"/>
<path d="M143.676 132.326C143.395 132.326 143.125 132.437 142.926 132.635C142.727 132.833 142.615 133.101 142.615 133.381C142.615 133.661 142.727 133.929 142.926 134.127C143.125 134.325 143.395 134.436 143.676 134.436C143.957 134.436 144.227 134.325 144.426 134.127C144.625 133.929 144.736 133.661 144.736 133.381C144.736 133.101 144.625 132.833 144.426 132.635C144.227 132.437 143.957 132.326 143.676 132.326Z" fill="#FFC727"/>
<path d="M84.2788 142.814C83.9975 142.814 83.7277 142.926 83.5288 143.123C83.3299 143.321 83.2181 143.59 83.2181 143.869C83.2181 144.149 83.3299 144.418 83.5288 144.616C83.7277 144.813 83.9975 144.925 84.2788 144.925C84.5601 144.925 84.8299 144.813 85.0288 144.616C85.2277 144.418 85.3395 144.149 85.3395 143.869C85.3395 143.59 85.2277 143.321 85.0288 143.123C84.8299 142.926 84.5601 142.814 84.2788 142.814Z" fill="#FFC727"/>
<path d="M211.009 37.7344C210.728 37.7344 210.458 37.8455 210.259 38.0434C210.06 38.2412 209.948 38.5096 209.948 38.7894C209.948 39.0692 210.06 39.3376 210.259 39.5354C210.458 39.7333 210.728 39.8444 211.009 39.8444C211.29 39.8444 211.56 39.7333 211.759 39.5354C211.958 39.3376 212.07 39.0692 212.07 38.7894C212.07 38.5096 211.958 38.2412 211.759 38.0434C211.56 37.8455 211.29 37.7344 211.009 37.7344Z" fill="#FFC727"/>
<path d="M373.702 94.1836C373.421 94.1836 373.151 94.2948 372.952 94.4926C372.753 94.6905 372.641 94.9588 372.641 95.2386C372.641 95.5184 372.753 95.7868 372.952 95.9846C373.151 96.1825 373.421 96.2937 373.702 96.2937C373.983 96.2937 374.253 96.1825 374.452 95.9846C374.651 95.7868 374.763 95.5184 374.763 95.2386C374.763 94.9588 374.651 94.6905 374.452 94.4926C374.253 94.2948 373.983 94.1836 373.702 94.1836Z" fill="#FFC727"/>
<path d="M473.479 191.531C469.735 191.531 469.735 197.266 473.479 197.266C477.222 197.266 477.185 191.531 473.479 191.531Z" fill="#FFC727"/>
<path d="M287.314 41.6445C283.571 41.6445 283.571 47.3665 287.314 47.3665C291.058 47.3665 291.02 41.6445 287.314 41.6445Z" fill="#FFC727"/>
<path d="M94.1118 233.521L204.832 268.188L173.462 419.367L43.537 382.578L94.1118 233.521Z" fill="#FFC727"/>
<path opacity="0.6" d="M94.1118 233.521L204.832 268.188L173.462 419.367L43.537 382.578L94.1118 233.521Z" fill="white"/>
<path d="M43.537 382.579L6.28909 364.147L79.3125 226.684L85.1274 233.063L94.1118 233.523L43.537 382.579Z" fill="#FFC727"/>
<path opacity="0.4" d="M43.537 382.579L6.28909 364.147L79.3125 226.684L85.1274 233.063L94.1118 233.523L43.537 382.579Z" fill="white"/>
<path opacity="0.5" d="M29.5612 357.966L6.28909 364.147L79.3125 226.684L85.1274 233.063L29.5612 357.966Z" fill="#FFC727"/>
<path d="M43.799 379.091C41.7776 375.491 39.5689 372.016 37.3477 368.553C35.1266 365.09 32.8056 361.689 30.4347 358.325L30.1103 357.854L29.5612 357.965C26.1546 358.623 22.7481 359.281 19.3664 360.088C15.9848 360.894 12.6031 361.652 9.25894 362.57C12.7279 362.26 16.172 361.801 19.6035 361.329C23.0351 360.857 26.4666 360.261 29.8857 359.653L29.0122 359.293C31.3498 362.694 33.7373 366.045 36.1748 369.347C38.6081 372.636 41.1037 375.925 43.799 379.091Z" fill="#FFC727"/>
<path d="M29.5363 359.144C34.5276 348.78 39.3193 338.341 44.086 327.878C48.8528 317.415 53.4697 306.914 58.1741 296.426C62.8784 285.938 67.3706 275.325 71.9003 264.8L78.6012 248.912C80.7724 243.6 83.006 238.3 85.1149 232.963C82.6192 238.126 80.2109 243.352 77.7526 248.552L70.5651 264.216C65.7984 274.667 61.1689 285.18 56.477 295.669C51.7852 306.157 47.2805 316.769 42.7508 327.307C38.2212 337.845 33.8039 348.47 29.5363 359.144Z" fill="#FFC727"/>
<path d="M93.0885 242.285L209 249.745L216.4 434.983L81.3713 430.787L93.0885 242.285Z" fill="#455A64"/>
<path d="M81.3713 430.786L40.6669 420.397L77.0538 238.734L84.2663 244.432L93.0885 242.284L81.3713 430.786Z" fill="#37474F"/>
<path opacity="0.1" d="M61.668 406.285L40.6669 420.397L77.0538 238.734L84.2663 244.432L61.668 406.285Z" fill="black"/>
<path d="M80.7475 426.629C77.8899 423.054 74.8702 419.666 71.8629 416.29C68.8556 412.914 65.736 409.662 62.6039 406.447L62.1672 406L61.6681 406.285C58.536 408.06 55.4289 409.848 52.3343 411.784C49.2396 413.72 46.1699 415.607 43.1627 417.717C46.4445 416.314 49.6639 414.763 52.8708 413.149C56.0778 411.536 59.2473 409.86 62.4043 408.185L61.4684 408.023C64.5797 411.292 67.7326 414.482 70.927 417.593C74.1464 420.659 77.3658 423.749 80.7475 426.629Z" fill="#263238"/>
<path d="M61.9301 407.663C64.1762 394.122 66.2102 380.555 68.1693 366.964C70.1284 353.373 72.0126 339.769 73.9468 326.178C75.8809 312.587 77.5905 298.933 79.3 285.293L81.7957 264.825C82.5693 257.986 83.4054 251.172 84.1291 244.32C82.9811 251.085 81.9704 257.874 80.8847 264.651L77.9149 284.995C75.9059 298.573 74.0591 312.189 72.1374 325.781C70.2157 339.372 68.5561 353.05 66.7842 366.691C65.0123 380.332 63.4026 393.973 61.9301 407.663Z" fill="#263238"/>
<path d="M206.554 86.0781C216.911 76.1484 244.439 64.3073 270.78 88.5605C308.215 122.942 294.876 217.112 289.673 231.461C289.673 231.461 225.359 254.361 167.759 222.065C167.759 222.065 198.418 158.304 193.053 125.784C191.832 118.572 192.426 111.17 194.782 104.242C197.138 97.3131 201.182 91.0727 206.554 86.0781Z" fill="#263238"/>
<path d="M187.525 161.21C187.325 161.731 187.15 162.252 186.951 162.773C184.371 169.393 181.184 175.763 177.43 181.801C173.99 187.676 169.711 193.024 164.727 197.676C164.59 197.8 164.365 197.614 164.502 197.49C169.631 192.687 173.137 186.567 176.357 180.473C179.513 174.506 182.305 168.355 184.717 162.054C189.697 149.261 193.014 135.889 194.588 122.261C194.588 122 195.087 122.025 195.074 122.261C195.012 124.172 194.9 126.071 194.75 127.97C194.788 127.955 194.83 127.949 194.871 127.955C194.912 127.96 194.951 127.977 194.984 128.002C195.016 128.027 195.042 128.06 195.058 128.098C195.074 128.136 195.079 128.177 195.074 128.218C193.926 140.953 192.416 153.44 188.635 165.69C184.804 177.723 179.32 189.172 172.339 199.712C168.472 205.707 164.234 211.457 159.648 216.927C159.642 216.939 159.634 216.95 159.623 216.958C159.612 216.966 159.6 216.972 159.586 216.975C159.573 216.977 159.559 216.977 159.546 216.973C159.533 216.969 159.521 216.963 159.511 216.954C159.501 216.945 159.493 216.934 159.488 216.921C159.483 216.909 159.481 216.895 159.483 216.882C159.484 216.868 159.488 216.855 159.495 216.844C159.502 216.832 159.512 216.823 159.523 216.816C172.364 200.171 181.298 181.056 187.525 161.21Z" fill="#263238"/>
<path d="M259.026 83.2362C292.156 102.847 302.176 142.069 302.401 177.009C302.574 187.766 301.679 198.513 299.73 209.095C299.73 209.134 299.714 209.172 299.686 209.2C299.658 209.228 299.62 209.243 299.58 209.243C299.541 209.243 299.503 209.228 299.475 209.2C299.446 209.172 299.431 209.134 299.431 209.095C301.575 190.601 301.016 171.897 297.771 153.563C294.639 136.397 289.673 118.66 279.578 103.915C274.205 95.7852 267.115 88.919 258.801 83.7947C258.489 83.5465 258.714 83.05 259.026 83.2362Z" fill="#263238"/>
<path d="M269.62 211.539C320.781 257.662 357.193 297.393 356.719 315.465C355.633 355.941 334.17 364.679 330.352 363.4C289.985 349.747 264.329 273.338 247.358 227.153C230.513 181.315 254.958 198.332 269.62 211.539Z" fill="#F7A9A0"/>
<path d="M296.66 344.957L362.946 295.756C362.946 295.756 299.081 230.158 265.876 205.719C237.987 185.177 223.974 199.674 241.444 240.324C257.978 278.789 296.66 344.957 296.66 344.957Z" fill="#FFC727"/>
<path d="M326.222 259.276L319.983 253.293C317.375 254.733 315.902 257.637 315.216 261.001C313.636 265.658 313.141 270.611 313.768 275.486C314.143 278.154 315.291 282.052 318.76 281.406C322.503 280.724 324.138 274.878 324.999 271.911C325.983 267.774 326.394 263.523 326.222 259.276ZM301.34 278.787C299.793 275.598 296.848 272.37 293.354 275.225C289.61 278.316 289.96 284.696 290.721 288.953C291.271 292.432 292.42 295.791 294.115 298.883C294.9 300.629 296.242 302.069 297.933 302.979C302.6 304.927 302.987 298.771 303.349 295.693C304.01 290.07 303.836 284.1 301.34 278.787ZM310.337 244.108L305.52 239.615C303.374 239.9 302.076 241.874 301.377 244.344C300.281 247.701 299.857 251.239 300.13 254.758C300.367 256.88 300.803 260.554 303.199 261.497C305.595 262.441 307.517 259.971 308.353 258.059C309.389 255.788 311.148 248.825 310.337 244.145V244.108ZM274.037 242.792C273.476 236.512 269.707 231.1 265.602 226.52C262.832 223.392 257.84 217.099 253.036 220.612C249.293 223.33 250.89 228.692 252.312 232.18C254.649 237.766 258.547 242.569 263.543 246.02C265.639 247.422 268.796 249.147 271.03 248.341C273.301 247.981 274.299 245.759 274.037 242.792ZM321.018 308.117C319.771 303.972 315.628 297.033 312.408 297.654C309.775 298.188 307.654 304.145 309.913 311.741C312.346 319.958 316.913 323.446 319.047 322.503C323.302 320.678 322.578 313.541 321.018 308.167V308.117Z" fill="#263238"/>
<path d="M343.716 288.818C339.107 291.446 334.661 294.347 330.402 297.506C325.872 300.572 321.492 303.799 317.088 307.001C312.683 310.204 295.65 323.621 291.395 326.985C291.207 327.134 291.494 327.444 291.694 327.307C296.236 324.254 314.155 312.103 318.485 308.95C322.815 305.797 327.12 302.657 331.313 299.368C335.506 296.079 340.11 292.864 343.879 289.078C343.953 288.942 343.841 288.718 343.716 288.818Z" fill="#263238"/>
<path opacity="0.1" d="M334.957 316.532L296.661 344.956C296.661 344.956 257.978 278.799 241.444 240.322C230.101 213.934 232.035 198.58 242.405 196.656C259.001 217.968 302.887 274.418 334.957 316.532Z" fill="black"/>
<path d="M248.469 198.842C257.871 205.499 265.038 214.82 269.033 225.59C275.622 243.488 310.399 327.965 316.339 346.396C322.279 364.828 368.611 454.555 368.611 454.555C368.611 454.555 343.167 481.787 335.743 487.373C325.423 495.167 288.05 507.567 288.05 507.567C288.05 507.567 272.403 373.604 269.458 360C266.513 346.396 248.469 198.842 248.469 198.842Z" fill="#FFC727"/>
<path d="M331.85 406.633C330.028 412.305 325.972 416.885 321.493 420.658C319.072 422.706 314.48 427.026 312.358 422.346C311.726 420.499 311.726 418.496 312.358 416.649C313.258 413.163 314.756 409.858 316.788 406.881C319.196 403.157 323.377 398.192 328.356 398.441C332.973 398.776 332.91 403.219 331.85 406.633Z" fill="#263238"/>
<path d="M303.786 433.355C303.636 439.561 302.663 446.263 298.682 451.34C296.835 453.71 294.527 454.666 292.53 453.375C290.297 452.432 289.149 448.969 288.587 446.462C287.262 440.438 287.717 434.162 289.897 428.39C291.27 424.79 293.84 419.701 298.532 420.248C304.572 420.955 303.898 429.11 303.786 433.355Z" fill="#263238"/>
<path d="M326.858 428.44C329.691 430.191 327.944 438.246 325.96 442.193C323.464 447.245 318.909 453.128 314.43 451.577C312.159 450.782 311.198 445.035 315.128 437.216C318.797 429.98 324.55 427.001 326.858 428.44Z" fill="#263238"/>
<path d="M344.727 469.822C343.941 471.92 342.132 475.668 339.524 476.028C336.916 476.388 336.242 473.856 336.055 471.957C335.81 468.972 336.046 465.968 336.754 463.057C337.527 459.123 339.424 455.61 343.08 454.965C350.305 453.798 345.763 467.116 344.727 469.822Z" fill="#263238"/>
<path d="M342.244 518.427H224.823C219.719 498.494 211.858 467.811 205.019 441.075C204.608 439.437 204.183 437.798 203.772 436.21C203.51 435.204 203.272 434.224 203.023 433.256C196.434 407.563 191.243 387.244 191.119 386.772L190.931 386.09C190.869 385.842 190.844 385.705 190.844 385.705H304.21L342.244 518.427Z" fill="#37474F"/>
<path d="M300.529 385.605C300.529 385.68 300.529 385.816 300.529 385.99C300.529 387.318 300.529 388.646 300.529 389.975C300.529 393.351 300.329 396.727 300.105 400.103C299.209 413.306 297.475 426.439 294.914 439.424C291.597 456.549 287.204 473.45 281.761 490.028C281.275 491.468 280.988 492.275 280.963 492.362L271.916 496.805L271.18 497.178L253.236 506.065C250.74 507.306 248.906 508.212 248.394 508.485L248.257 508.559C248.257 508.559 248.057 512.569 247.808 518.427H125.345C127.841 497.773 128.128 495.043 128.128 495.043C127.404 491.058 124.197 480.794 125.345 468.853C127.841 442.627 144.063 389.962 145.51 386.822C145.847 386.052 146.059 385.655 146.059 385.655H177.031H250.403H300.529V385.605Z" fill="#37474F"/>
<path d="M248.382 508.213V508.486C248.382 511.8 248.294 515.126 248.244 518.415H246.997C247.271 515.089 247.496 511.75 247.895 508.424C247.895 508.126 247.895 507.828 247.982 507.53C247.982 507.481 248.002 507.433 248.037 507.398C248.072 507.363 248.12 507.344 248.17 507.344C248.219 507.344 248.267 507.363 248.302 507.398C248.337 507.433 248.357 507.481 248.357 507.53C248.369 507.778 248.382 508.002 248.382 508.213Z" fill="#263238"/>
<path d="M233.707 514.617C238.911 511.03 244.526 508.014 250.041 504.911C255.557 501.808 261.397 498.705 267.261 495.986C278.729 490.686 290.821 486.851 302.875 483.128C302.946 483.1 303.025 483.101 303.095 483.131C303.166 483.161 303.221 483.218 303.249 483.289C303.277 483.36 303.276 483.439 303.245 483.508C303.215 483.578 303.158 483.633 303.087 483.661C291.482 488.626 280.214 494.311 268.672 499.4C262.857 501.969 257.004 504.365 251.202 506.971C245.399 509.578 239.722 512.408 233.857 514.84C233.67 514.89 233.557 514.704 233.707 514.617Z" fill="#263238"/>
<path d="M265.477 458.068C265.627 452.396 266.026 446.736 266.301 441.076C266.974 427.721 267.548 414.278 268.796 400.96C268.813 400.862 268.865 400.773 268.941 400.709C269.018 400.645 269.114 400.61 269.214 400.61C269.314 400.61 269.411 400.645 269.488 400.709C269.564 400.773 269.615 400.862 269.632 400.96C269.807 411.299 269.408 421.663 269.196 431.99C269.083 437.166 268.934 442.33 268.796 447.505C268.507 452.44 268.474 457.387 268.696 462.325C268.971 466.049 269.795 473.298 274.686 473.745C279.291 474.167 281.811 469.227 282.959 465.59C285.879 456.392 286.915 446.463 287.863 436.893C288.425 431.221 288.986 425.573 289.323 419.889C289.66 414.204 290.122 405.689 289.81 399.955C289.81 399.595 290.321 399.607 290.384 399.955C291.295 404.92 291.332 414.849 291.207 420.72C290.084 473.434 281.724 476.438 277.307 477.294C276.764 477.4 276.212 477.458 275.659 477.468C275.659 478.709 275.447 479.876 275.36 481.055C275.235 482.929 274.998 484.779 274.748 486.653C274.477 488.479 274.094 490.286 273.6 492.065C273.202 493.87 272.555 495.611 271.679 497.241C271.644 497.291 271.594 497.329 271.536 497.349C271.478 497.369 271.416 497.37 271.357 497.352C271.298 497.334 271.247 497.298 271.211 497.249C271.174 497.2 271.155 497.14 271.155 497.079C271.111 495.289 271.262 493.5 271.604 491.742C271.854 489.93 272.103 488.018 272.477 486.293C272.852 484.568 273.176 482.743 273.551 480.981C273.788 479.74 273.962 478.573 274.187 477.369C272.758 477.122 271.413 476.526 270.274 475.633C269.134 474.74 268.236 473.579 267.661 472.255C265.527 467.936 265.365 462.797 265.477 458.068Z" fill="#263238"/>
<path d="M158.4 448.052C165.8 448.573 173.1 449.517 180.524 448.648C187.512 447.935 194.171 445.334 199.779 441.126C211.982 431.718 217.336 416.302 220.63 401.867C220.64 401.798 220.677 401.735 220.733 401.693C220.789 401.651 220.86 401.633 220.929 401.643C220.999 401.653 221.062 401.69 221.104 401.746C221.146 401.802 221.164 401.872 221.154 401.941C219.769 414.477 217.061 427.436 208.925 437.514C205.426 441.954 200.998 445.583 195.948 448.151C190.584 450.631 184.714 451.834 178.802 451.664C171.871 451.605 164.975 450.679 158.275 448.908C158.169 448.883 158.077 448.82 158.015 448.73C157.954 448.64 157.929 448.531 157.944 448.423C157.96 448.316 158.015 448.218 158.1 448.15C158.184 448.081 158.291 448.046 158.4 448.052Z" fill="#263238"/>
<path d="M319.908 445.109C317.849 444.874 315.827 445.109 313.731 443.545C311.635 441.982 309.863 439.313 308.228 434.857C304.672 425.089 302.925 410.492 301.764 396.975C301.764 396.677 301.602 396.677 301.614 396.975C302.213 408.568 303.187 420.67 305.62 430.662C306.441 434.446 307.697 438.123 309.364 441.622C310.886 444.526 312.583 445.916 314.218 446.462C315.151 446.766 316.138 446.873 317.115 446.776C318.093 446.68 319.039 446.383 319.895 445.904C320.095 445.854 320.057 445.109 319.908 445.109Z" fill="#263238"/>
<path d="M157.152 389.254C153.172 410.913 148.418 432.882 144.113 454.479C143.002 460.946 141.068 467.326 141.455 473.892C142.017 480.525 143.068 487.109 144.599 493.59C143.9 497.76 143.227 501.931 142.465 506.089C141.704 510.247 141.03 514.33 140.232 518.439C140.619 514.268 141.093 510.123 141.48 505.965C141.866 501.807 142.415 497.648 142.902 493.552C141.062 487.196 139.809 480.686 139.159 474.103C138.938 471.817 138.993 469.512 139.321 467.239C140.644 458.377 142.503 449.725 144.312 441.037C148.056 423.66 152.298 406.432 157.028 389.316L157.152 389.254Z" fill="#263238"/>
<path d="M132.67 431.309C133.169 431.917 314.592 431.706 316.751 429.484C317.125 429.099 327.382 409.314 327.02 402.09C326.459 390.746 317.961 377.167 318.41 369.41C319.172 356.427 268.172 228.694 260.498 209.977C252.824 191.259 218.072 187.163 200.24 201.946C174.185 223.543 133.918 386.352 130.461 397.014C126.306 409.786 132.196 430.738 132.67 431.309Z" fill="#EBEBEB"/>
<path d="M238.786 380.827C238.212 379.003 271.654 372.524 275.273 371.99C278.891 371.456 310.786 371.705 311.123 372.35C311.46 372.995 281.836 374.51 279.44 374.46C277.045 374.41 239.06 381.721 238.786 380.827Z" fill="#C7C7C7"/>
<path d="M273.201 378.556C271.716 377.637 292.218 377.662 292.156 378.345C292.093 379.027 275.497 379.971 273.201 378.556Z" fill="#C7C7C7"/>
<path d="M212.831 193.641C212.831 193.641 213.567 327.331 212.032 339.06C210.497 350.79 183.744 511.7 183.744 511.7C183.744 511.7 126.343 500.119 118.557 494.621C110.77 489.122 97.1315 457.385 97.1315 457.385C97.1315 457.385 131.185 375.465 134.28 366.888C138.697 354.724 179.913 227.215 190.432 210C195.491 201.871 203.519 196.007 212.831 193.641Z" fill="#FFC727"/>
<path d="M154.919 396.43C151.837 397.671 150.177 400.812 149.428 404.486C147.848 409.142 147.353 414.095 147.981 418.97C148.355 421.627 149.503 425.524 152.972 424.879C156.716 424.196 158.35 418.362 159.211 415.396C160.072 412.429 162.967 393.079 154.919 396.43ZM135.54 422.322C133.993 419.132 131.048 415.905 127.554 418.759C123.81 421.85 124.16 428.217 124.921 432.487C125.468 435.967 126.617 439.326 128.315 442.417C129.102 444.164 130.443 445.608 132.133 446.525C136.8 448.462 137.187 442.305 137.549 439.239C138.21 433.555 138.036 427.584 135.54 422.322ZM140.906 383.162C138.036 382.777 136.401 384.974 135.577 387.878C134.48 391.235 134.056 394.773 134.33 398.292C134.567 400.414 135.003 404.076 137.399 405.032C139.795 405.987 141.704 403.493 142.553 401.594C144.163 398.093 147.27 383.993 140.931 383.162H140.906ZM141.792 476.376C141.23 470.083 137.474 464.672 133.369 460.092C130.599 456.976 125.595 450.671 120.803 454.196C117.06 456.914 118.657 462.276 120.079 465.751C122.407 471.343 126.307 476.148 131.31 479.591C133.406 481.006 136.551 482.719 138.797 481.912C141.055 481.502 142.066 479.281 141.792 476.376ZM155.206 451.651C153.958 447.518 149.815 440.58 146.608 441.2C143.975 441.722 141.854 447.68 144.113 455.288C146.546 463.505 151.113 466.993 153.247 466.049C157.502 464.175 156.778 456.976 155.206 451.651ZM181.523 453.066C179.314 455.921 180.275 459.732 182.421 463.07C183.87 465.625 185.719 467.934 187.899 469.91C188.614 470.572 189.466 471.072 190.395 471.374L192.067 461.32C190.295 457.324 185.403 448.052 181.523 453.066ZM210.685 220.166C208.838 218.143 205.768 220.29 204.183 221.519C199.878 224.908 195.898 230.282 194.837 235.93C193.44 239.368 193.128 242.756 196.359 243.464C199.03 244.047 202.237 240.423 203.847 238.784C206.643 235.98 208.837 232.64 210.298 228.966C211.109 226.745 212.569 222.227 210.685 220.166ZM204.059 286.683C202.224 288.619 199.891 291.983 202.586 294.266C205.282 296.55 209.861 294.788 212.931 293.571C212.931 289.215 212.931 284.697 212.931 280.117C209.625 281.797 206.627 284.016 204.059 286.683ZM191.381 270.745C186.589 269.777 181.847 274.072 178.99 277.361C176.617 279.975 174.717 282.977 173.374 286.236C172.494 287.94 172.204 289.886 172.551 291.772C173.973 296.6 179.015 293.013 181.648 291.362C186.514 288.309 191.069 284.411 193.627 279.173C195.137 275.959 195.835 271.664 191.381 270.745ZM211.67 263.149C210.161 264.676 207.553 267.332 208.339 269.765C208.95 271.776 211.134 272.074 212.993 271.838C212.993 268.549 212.993 265.247 212.993 261.908C212.469 262.405 212.057 262.802 211.67 263.149ZM160.746 288.333C157.065 299.082 153.409 309.819 150.09 319.748C151.699 320.357 153.596 319.637 155.306 317.986C159.885 313.592 161.732 307.274 162.793 301.23C163.392 297.493 164.914 290.617 160.746 288.333ZM185.828 299.616C183.756 297.903 177.779 300.001 173.25 306.542C168.358 313.58 168.508 319.302 170.592 320.369C174.722 322.479 179.901 317.39 183.07 312.835C185.541 309.285 188.348 301.701 185.853 299.616H185.828ZM198.506 334.072C194.887 334.159 192.554 337.336 191.256 341.047C190.175 343.781 189.535 346.667 189.359 349.599C189.284 351.474 189.733 354.055 192.179 354.018C194.625 353.981 197.021 350.568 198.082 348.644C199.442 346.161 205.693 333.886 198.506 334.072Z" fill="#263238"/>
<path d="M173.973 224.373C126.955 274.691 94.1118 317.389 96.1582 335.349C100.738 375.589 122.874 382.515 126.568 380.852C165.613 363.835 192.89 279.855 205.818 232.403C218.646 185.287 187.437 209.962 173.973 224.373Z" fill="#F7A9A0"/>
<path d="M93.7624 304.853L163.754 348.667C163.754 348.667 201.001 268.498 208.176 226.446C213.991 192.412 203.896 185.138 172.052 215.97C141.904 245.101 93.7624 304.853 93.7624 304.853Z" fill="#FFC727"/>
<path d="M123.611 268.959C119.867 273.303 116.361 277.473 113.129 281.371C113.656 283.134 114.397 284.826 115.337 286.41C116.101 288.149 117.416 289.592 119.081 290.518C123.748 292.455 124.135 286.311 124.497 283.233C125.22 278.466 124.918 273.601 123.611 268.959ZM143.913 245.661C142.249 247.548 140.585 249.447 138.922 251.358C137.299 253.195 135.677 255.082 134.08 256.869L133.918 257.056C134.167 259.215 134.716 262.405 136.913 263.262C139.321 264.255 141.23 261.735 142.066 259.823C143.077 257.49 144.824 250.341 143.913 245.661ZM158.887 287.862C154.432 286.621 151.213 291.263 149.378 294.54C146.454 299.847 145.128 305.88 145.56 311.917C145.76 314.399 146.384 317.937 148.418 319.166C150.19 320.692 152.548 320.084 154.657 318.048C159.224 313.667 161.108 307.362 162.144 301.317C162.855 297.159 164.639 289.339 158.887 287.825V287.862ZM203.609 221.557C199.304 224.946 195.324 230.32 194.263 235.967C192.866 239.406 192.554 242.794 195.785 243.502C198.456 244.085 201.663 240.461 203.272 238.822C204.43 237.635 205.493 236.361 206.454 235.012C207.153 232.008 207.702 229.141 208.201 226.435C208.609 224.002 208.942 221.71 209.2 219.559C207.353 218.777 204.945 220.452 203.609 221.52V221.557ZM190.844 270.746C186.052 269.778 181.311 274.072 178.453 277.362C176.08 279.975 174.181 282.978 172.838 286.236C171.957 287.941 171.667 289.887 172.014 291.772C173.437 296.6 178.478 293.013 181.111 291.362C185.356 288.871 188.998 285.481 191.78 281.433C192.616 279.211 193.427 276.977 194.276 274.743C194.332 273.765 194.006 272.803 193.367 272.059C192.728 271.314 191.824 270.844 190.844 270.746ZM172.713 306.542C167.821 313.58 167.971 319.302 170.055 320.369C172.139 321.437 174.585 320.63 176.856 318.942C179.351 312.935 182.122 306.307 184.892 299.356C182.496 298.164 176.943 300.386 172.676 306.542H172.713Z" fill="#263238"/>
<path d="M163.392 328.288C159.28 324.948 154.972 321.856 150.489 319.028C145.984 315.938 141.392 313.033 136.763 310.091C132.133 307.15 113.478 296.165 108.774 293.434C108.562 293.31 108.375 293.695 108.574 293.832C113.079 296.935 130.923 309.235 135.44 312.09C139.957 314.945 144.45 317.849 149.029 320.555C153.609 323.261 158.313 326.376 163.217 328.511C163.317 328.548 163.467 328.437 163.392 328.288Z" fill="#263238"/>
<path d="M156.029 343.579C159.062 345.255 162.044 346.98 165.039 348.705L164.402 348.916C173.137 324.365 182.633 300.112 192.267 275.909C195.461 267.841 198.768 259.773 201.9 251.705C194.787 276.79 185.116 301.068 175.408 325.247C172.052 333.451 168.62 341.618 164.989 349.711C161.994 347.688 158.987 345.664 156.029 343.579Z" fill="#263238"/>
<path d="M202.823 258.01C201.67 263.092 198.916 267.675 194.962 271.092C197.595 266.76 200.041 262.255 202.823 258.01Z" fill="#263238"/>
<path d="M327.233 360.223C317.911 342.672 311.772 303.475 333.721 227.873C336.766 217.41 414.044 233.682 411.387 245.014C408.017 259.3 391.883 314 390.173 317.848C375.948 350.343 333.559 372.126 327.233 360.223Z" fill="#F7A9A0"/>
<path d="M321.018 345.814C319.085 340.121 317.755 334.243 317.05 328.275C316.701 325.297 316.401 322.305 316.276 319.302C316.155 316.28 316.222 313.254 316.476 310.241C316.912 304.258 317.649 298.301 318.685 292.392C319.67 286.484 321.042 280.647 322.79 274.916C321.742 280.799 320.981 286.707 320.295 292.616C319.608 298.524 319.047 304.457 318.635 310.377C318.473 313.331 318.323 316.298 318.435 319.215C318.548 322.132 318.685 325.135 318.922 328.089C319.371 333.948 319.97 339.856 321.018 345.814Z" fill="#263238"/>
<path d="M368.835 265.133C359.502 265.233 333.571 237.442 333.721 227.897C334.133 201.894 355.246 174.637 357.33 156.007C359.115 140.355 359.951 116.921 368.448 117.529C380.839 118.423 383.36 148.187 383.759 165.353C391.833 160.587 399.22 157.235 404.261 156.851C420.957 155.609 436.131 229.027 423.678 240.595C411.711 251.753 378.157 264.985 368.835 265.133Z" fill="#F7A9A0"/>
<path d="M444.966 259.921C433.735 218.961 414.219 153.376 408.866 148.138C404.449 153.972 393.48 218.316 387.466 258.444L384.97 258.072C384.97 257.799 389.138 230.343 393.929 203.012C403.762 146.996 406.77 146.015 408.217 145.544C408.464 145.465 408.725 145.438 408.983 145.466C409.241 145.494 409.49 145.575 409.714 145.705C416.89 149.541 442.32 240.98 447.349 259.276L444.966 259.921Z" fill="#263238"/>
<path d="M377.533 257.315L375.112 256.732C375.174 256.471 381.775 229.326 389.025 202.293C403.862 146.972 406.82 146.004 408.242 145.545C408.496 145.465 408.765 145.441 409.03 145.473C409.294 145.505 409.549 145.593 409.777 145.731C416.578 149.678 434.871 238.672 438.477 256.471L435.982 256.968C427.933 217.137 413.608 153.327 408.754 148.114C404.149 153.153 387.253 217.311 377.533 257.315Z" fill="#263238"/>
<path d="M356.931 241.03L484.672 240.559L503.327 455.548L355.371 462.97L356.931 241.03Z" fill="#FFC727"/>
<path d="M355.371 462.97L310.249 454.529L339.174 238.336L347.423 244.356L356.931 241.029L355.371 462.97Z" fill="#FFC727"/>
<path opacity="0.2" d="M355.371 462.97L310.249 454.529L339.174 238.336L347.423 244.356L356.931 241.029L355.371 462.97Z" fill="black"/>
<path opacity="0.1" d="M332.374 436.073L310.249 454.529L339.174 238.336L347.423 244.356L332.374 436.073Z" fill="black"/>
<g opacity="0.1">
<path d="M354.448 458.166C351.104 454.231 347.61 450.545 344.116 446.858C340.622 443.172 337.028 439.647 333.397 436.172L332.898 435.688L332.374 436.072C329.042 438.443 325.723 440.814 322.478 443.371C319.234 445.927 315.965 448.41 312.807 451.153C316.314 449.204 319.745 447.094 323.152 444.947C326.559 442.8 329.928 440.516 333.284 438.207L332.249 438.108C335.843 441.649 339.482 445.104 343.167 448.472C346.824 451.761 350.567 455.038 354.448 458.166Z" fill="black"/>
<path d="M332.735 437.662C334.383 421.588 335.793 405.502 337.178 389.391C338.563 373.28 339.761 357.182 341.071 341.071C342.381 324.96 343.429 308.799 344.478 292.664L346.012 268.448C346.449 260.368 346.961 252.312 347.335 244.207C346.487 252.238 345.788 260.343 345.002 268.324L342.893 292.44C341.508 308.576 340.297 324.65 339 340.76C337.702 356.871 336.641 373.032 335.593 389.168C334.545 405.303 333.534 421.526 332.735 437.662Z" fill="black"/>
</g>
<path d="M392.345 257.266L389.849 256.968C389.849 256.682 393.256 229.065 397.336 201.709C405.721 145.47 408.666 145.11 410.438 144.899C412.21 144.688 415.217 144.303 433.398 199.376C442.221 226.136 450.419 253.319 450.506 253.592L448.11 254.312C436.318 215.139 416.041 152.533 410.675 147.568C406.408 153.302 397.224 217.348 392.345 257.266Z" fill="#263238"/>
<path d="M383.759 255.851L381.264 255.355C381.264 255.081 386.842 227.849 393.043 200.866C405.771 145.458 408.791 145.098 410.413 144.9C412.372 144.664 415.317 144.316 427.359 198.88C433.199 225.33 438.377 252.251 438.427 252.487L435.931 252.947C428.557 214.469 415.342 152.905 410.6 147.568C405.946 153.079 391.746 216.343 383.759 255.851Z" fill="#263238"/>
<path d="M365.329 245.252L471.195 245.289L512.661 411.685L382.474 418.04L365.329 245.252Z" fill="#455A64"/>
<path d="M365.329 245.252L352.751 252.923L340.772 250.775L340.709 431.992L382.474 418.04L365.329 245.252Z" fill="#37474F"/>
<path opacity="0.1" d="M352.751 252.921L340.772 250.773L340.709 431.99L360.837 405.018L352.751 252.921Z" fill="black"/>
<path d="M512.661 411.684L382.474 418.039L340.709 431.99L468.65 425.486L512.661 411.684Z" fill="#263238"/>
<path d="M380.889 416.971C378.044 415.097 363.657 405.329 360.675 403.777L360.263 403.566L359.938 403.877C357.892 405.863 344.889 425.213 343.005 427.46C345.239 425.71 358.765 407.029 360.837 405.118L360.101 405.23C363.045 406.719 377.782 415.705 380.889 416.971Z" fill="#263238"/>
<path d="M359.976 404.857C359.751 392.21 359.314 379.574 358.853 366.939C358.391 354.303 357.767 341.668 357.23 329.032C356.694 316.397 355.983 303.774 355.184 291.138L353.999 272.21C353.537 265.892 353.138 259.587 352.614 253.281C352.713 259.599 352.925 265.929 353.075 272.247L353.737 291.2C354.198 303.836 354.81 316.471 355.359 329.107C355.908 341.742 356.607 354.365 357.418 366.988C358.229 379.611 358.965 392.247 359.976 404.857Z" fill="#263238"/>
<path d="M378.93 163.928C376.547 172.256 387.778 170.27 387.778 170.27C387.778 170.27 372.304 176.997 373.203 186.53C374.089 195.715 387.565 192.835 388.539 192.649C387.715 193.009 373.664 199.563 375.549 209.045C377.52 218.913 390.523 213.712 391.396 213.365C390.735 213.948 382.125 221.817 385.157 228.694C390.46 240.522 413.046 221.023 423.516 222.202C423.516 222.202 423.516 240.076 423.64 240.597C423.64 240.597 445.515 222.488 446.326 208.326C446.477 206.27 445.917 204.225 444.739 202.53C443.561 200.834 441.836 199.59 439.85 199.004C439.85 199.004 447.549 193.94 446.301 186.418C445.652 182.571 438.814 180.212 438.814 180.212C438.814 180.212 444.816 175.905 443.281 169.29C442.033 164.002 435.47 162.426 435.47 162.426C435.47 162.426 439.288 155.624 436.293 150.634C430.429 140.518 384.022 146.091 378.93 163.928Z" fill="#F7A9A0"/>
<path d="M434.559 162.003C434.592 162.003 434.624 161.99 434.647 161.966C434.671 161.943 434.684 161.912 434.684 161.879C434.684 161.846 434.671 161.814 434.647 161.791C434.624 161.768 434.592 161.755 434.559 161.755C418.861 159.893 401.042 162.623 387.141 170.306C386.679 170.567 386.892 171.411 387.453 171.225C403.326 166.024 417.801 162.661 434.559 162.003Z" fill="#263238"/>
<path d="M439.163 180.075C439.338 180.075 439.338 179.778 439.163 179.753C422.942 177.916 402.976 181.54 388.002 192.277C387.491 192.649 387.403 193.518 388.002 193.108C398.496 186.716 424.052 180.597 439.163 180.075Z" fill="#263238"/>
<path d="M390.61 214.481C405.372 204.726 421.806 200.667 439.276 198.904C439.5 198.904 439.438 198.569 439.276 198.532C430.541 197.08 419.485 199.363 411.075 201.846C403.218 204.016 396.068 208.192 390.336 213.96C390.049 214.246 390.298 214.68 390.61 214.481Z" fill="#263238"/>
<path d="M387.515 170.145C386.966 170.442 388.015 170.902 387.515 171.224C385.257 172.577 372.354 181.849 374.176 187.199C375.636 191.481 382.437 192.499 385.207 191.866L392.157 190.289L386.18 194.187C383.502 195.885 381.124 198.011 379.142 200.48C377.246 202.962 375.985 205.829 376.535 208.572C376.705 209.92 377.334 211.17 378.317 212.113C379.3 213.057 380.577 213.638 381.938 213.761C384.993 213.969 388.052 213.397 390.822 212.097L398.596 208.783L392.357 214.418C390.624 215.987 389.098 217.768 387.815 219.718C386.518 221.536 385.793 223.696 385.731 225.924C385.743 226.92 386.035 227.893 386.573 228.732C387.111 229.572 387.874 230.246 388.776 230.678C390.932 231.346 393.236 231.385 395.414 230.79C400.119 229.822 404.673 227.836 409.29 226.086C411.599 225.192 413.92 224.286 416.278 223.504C418.599 222.577 421.092 222.153 423.59 222.263C421.131 222.429 418.728 223.07 416.515 224.149C414.244 225.105 412.023 226.173 409.789 227.24C405.338 229.522 400.679 231.379 395.876 232.788C393.282 233.597 390.506 233.636 387.89 232.9C386.513 232.342 385.33 231.397 384.485 230.18C383.641 228.963 383.172 227.527 383.136 226.048C383.141 223.304 383.971 220.625 385.519 218.353C386.915 216.156 388.593 214.149 390.51 212.383L392.058 214.704C388.805 216.29 385.191 217 381.576 216.764C379.573 216.569 377.7 215.692 376.272 214.282C374.937 212.845 374.067 211.041 373.777 209.106C373.103 205.209 374.912 201.547 377.084 198.866C379.303 196.186 381.95 193.888 384.92 192.064L385.893 194.373C382.349 195.056 374.663 194.745 371.518 188.378C368.611 179.491 384.496 171.398 387.515 170.145Z" fill="#263238"/>
<path d="M387.778 170.27C385.986 170.235 384.211 169.93 382.512 169.364C381.823 169.152 381.204 168.761 380.719 168.23C380.234 167.7 379.9 167.05 379.754 166.348C379.644 164.772 379.995 163.199 380.765 161.817C381.538 160.253 382.437 158.64 383.423 157.014C381.739 157.987 380.281 159.303 379.142 160.874C378.466 161.696 377.959 162.644 377.653 163.663C377.347 164.681 377.247 165.75 377.358 166.807C377.598 167.959 378.186 169.011 379.043 169.823C379.885 170.547 380.913 171.024 382.013 171.201C383.985 171.507 386.004 171.181 387.778 170.27Z" fill="#263238"/>
<path d="M253.236 232.454C241.381 234.936 221.703 216.417 214.141 201.697C213.629 200.679 215.464 190.253 217.086 177.468C218.047 169.711 218.933 161.047 219.157 153.079C219.157 151.44 269.071 166.645 269.071 166.645C269.071 166.645 263.58 183.215 263.219 197.092C263.204 198.189 263.288 199.286 263.468 200.369C263.504 200.544 263.525 200.723 263.53 200.902C264.466 207.146 264.666 230.095 253.236 232.454Z" fill="#F7A9A0"/>
<path d="M222.215 153.426C224.149 166.955 231.636 199.723 258.402 201.088C260.116 201.193 261.836 201.152 263.543 200.964C263.57 200.783 263.57 200.599 263.543 200.418C263.37 199.334 263.282 198.238 263.281 197.141C263.605 183.24 269.033 166.682 269.033 166.682C269.033 166.682 233.058 155.672 222.215 153.426Z" fill="#263238"/>
<path d="M212.818 97.4105C207.428 115.147 216.949 166.298 229.639 177.679C248.045 194.187 278.118 195.702 292.206 173.708C305.845 152.396 292.206 85.9418 278.08 75.6522C257.204 60.3357 220.792 71.2211 212.818 97.4105Z" fill="#F7A9A0"/>
<path d="M212.818 97.4105C207.428 115.147 216.949 166.298 229.639 177.679C248.045 194.187 278.118 195.702 292.206 173.708C305.845 152.396 292.206 85.9418 278.08 75.6522C257.204 60.3357 220.792 71.2211 212.818 97.4105Z" fill="#F7A9A0"/>
<path d="M255.806 130.092C255.806 129.967 255.557 130.303 255.582 130.439C256.168 133.902 256.256 137.961 253.248 139.537C253.161 139.537 253.248 139.761 253.311 139.723C257.092 138.668 256.979 133.281 255.806 130.092Z" fill="#263238"/>
<path d="M252.2 126.89C246.523 127.225 247.621 138.495 252.874 138.185C258.127 137.874 256.979 126.617 252.2 126.89Z" fill="#263238"/>
<path d="M276.945 127.856C276.945 127.72 277.232 128.005 277.232 128.142C277.319 131.654 278.005 135.651 281.262 136.632C281.362 136.632 281.362 136.843 281.262 136.83C277.332 136.508 276.458 131.183 276.945 127.856Z" fill="#263238"/>
<path d="M279.89 124.022C285.517 123.277 286.591 134.547 281.375 135.193C276.159 135.838 275.16 124.642 279.89 124.022Z" fill="#263238"/>
<path d="M247.096 117.779C248.624 117.447 250.132 117.033 251.614 116.537C253.348 116.066 254.771 115.867 255.994 114.465C256.293 114.029 256.441 113.508 256.414 112.981C256.387 112.454 256.187 111.95 255.844 111.548C254.259 109.909 252 109.971 249.892 110.456C247.758 110.874 245.858 112.069 244.563 113.807C243.166 115.631 245.025 118.126 247.096 117.779Z" fill="#263238"/>
<path d="M285.081 115.482C283.525 115.386 281.975 115.207 280.439 114.949C278.667 114.725 277.219 114.738 275.809 113.509C275.45 113.121 275.23 112.626 275.183 112.101C275.135 111.576 275.263 111.05 275.547 110.604C276.87 108.767 279.116 108.494 281.262 108.681C283.437 108.788 285.493 109.7 287.027 111.237C287.36 111.606 287.578 112.063 287.653 112.553C287.729 113.043 287.659 113.544 287.452 113.994C287.245 114.445 286.911 114.826 286.49 115.09C286.068 115.355 285.579 115.491 285.081 115.482Z" fill="#263238"/>
<path d="M256.78 161.519C257.691 162.263 258.639 163.318 259.912 163.306C261.235 163.163 262.511 162.74 263.655 162.065C263.768 162.065 263.892 162.065 263.83 162.226C263.396 162.984 262.759 163.607 261.99 164.025C261.221 164.444 260.351 164.642 259.475 164.597C258.743 164.478 258.062 164.146 257.52 163.642C256.978 163.138 256.599 162.485 256.43 161.767C256.38 161.519 256.642 161.419 256.78 161.519Z" fill="#263238"/>
<path d="M259.475 150.745C260.494 152.043 261.771 153.119 263.227 153.905C264.683 154.691 266.285 155.17 267.935 155.312C269.377 155.451 270.831 155.384 272.253 155.114C272.528 155.086 272.8 155.032 273.064 154.952L273.825 154.766C274.007 154.712 274.167 154.601 274.279 154.448C274.392 154.296 274.452 154.111 274.449 153.922C274.462 153.803 274.462 153.682 274.449 153.562V153.252C274.274 150.559 273.638 146.5 273.638 146.5C274.674 146.897 279.877 148.697 279.702 147.307C277.943 135.751 275.959 122.892 271.791 111.758C271.771 111.675 271.719 111.602 271.645 111.556C271.571 111.511 271.482 111.497 271.398 111.516C271.314 111.536 271.241 111.588 271.195 111.662C271.149 111.735 271.135 111.823 271.155 111.907C272.403 123.078 275.622 133.964 277.057 145.172C275.385 144.713 272.665 143.819 271.255 143.931C270.88 144.08 272.627 151.763 272.602 152.979C272.613 153.024 272.613 153.071 272.602 153.115C268.123 154.096 264.566 153.041 259.887 150.41C259.537 150.223 259.275 150.484 259.475 150.745Z" fill="#263238"/>
<path d="M270.568 153.897C269.26 155.95 267.442 157.634 265.29 158.787C264.101 159.375 262.758 159.579 261.447 159.37C258.577 158.899 258.265 156.342 258.589 154.108C258.766 152.92 259.084 151.757 259.537 150.645C262.771 152.872 266.637 154.012 270.568 153.897Z" fill="#263238"/>
<path d="M265.29 158.789C264.101 159.377 262.758 159.581 261.447 159.372C258.577 158.9 258.265 156.344 258.589 154.109C261.621 154.147 264.778 155.909 265.29 158.789Z" fill="#FF97B8"/>
<path d="M224.086 141.236C226.732 138.654 229.39 122.258 229.39 122.258C229.39 122.258 259.662 108.741 261.971 80.8018C261.971 80.8018 277.531 96.5031 290.671 99.5068C290.671 99.5068 288.911 70.8473 262.233 68.1787C262.233 68.1787 235.779 59.391 214.815 84.935C193.851 110.479 216.063 142.204 216.063 142.204L224.086 141.236Z" fill="#263238"/>
<path d="M260.985 75.5891C262.457 79.9954 261.796 85.1216 260.748 89.5775C259.622 94.1264 257.845 98.4905 255.469 102.536C253.194 106.737 250.243 110.539 246.735 113.793C242.617 117.368 237.55 119.739 232.584 121.923C232.434 121.998 232.584 122.271 232.709 122.209C237.962 120.074 243.241 117.865 247.77 114.402C251.636 111.248 254.943 107.472 257.553 103.231C260.403 99.0764 262.334 94.3678 263.218 89.4162C264.005 84.5258 263.019 80.0947 261.584 75.4402C261.422 75.105 260.873 75.2292 260.985 75.5891Z" fill="#263238"/>
<path d="M266.962 62.3338C261.497 58.846 248.432 51.9449 236.914 51.5353C225.172 51.1257 209.998 56.6367 204.695 58.3744C200.328 59.8018 185.69 61.2416 174.472 67.3483C167.085 71.3574 163.766 82.0318 164.777 87.3193C166.287 95.2755 182.708 90.6706 183.494 93.7488C183.993 95.7968 181.136 105.95 186.127 110.728C191.119 115.507 190.906 114.75 193.764 117.369C200.689 123.736 209.437 86.2395 223.6 76.1857C237.763 66.1319 266.962 62.3338 266.962 62.3338Z" fill="#FFC727"/>
<path opacity="0.1" d="M265.714 62.9059C265.714 62.9059 237.65 66.133 223.5 76.1992C209.349 86.2654 202.786 122.298 195.848 115.918C192.791 113.1 191.68 109.476 191.181 103.593C194.5 93.2906 201.426 77.5273 212.107 67.5976C222.09 58.2762 237.251 55.1856 252.799 55.8682C257.294 57.852 261.614 60.2061 265.714 62.9059Z" fill="black"/>
<path d="M195.037 133.79C202.985 122.346 210.784 104.001 223.5 90.8197C236.215 77.6381 267.985 73.8524 272.166 74.7709C282.385 76.9927 283.87 82.2182 285.642 81.5976C287.414 80.9769 278.979 67.6464 276.358 65.4619C272.275 62.5309 267.586 60.5422 262.632 59.6406C258.127 59.0324 230.039 57.3816 218.109 67.5099C206.18 77.6381 186.689 108.259 187.949 117.096C188.249 119.206 190.744 120.944 191.144 123.935C191.668 127.882 191.767 132.351 192.479 135.106C193.115 137.427 194.588 134.498 195.037 133.79Z" fill="#FFC727"/>
<path d="M226.944 84.5512C224.803 82.7399 222.82 80.7509 221.017 78.6058C219.161 76.4661 217.565 74.1164 216.262 71.6054C216.258 71.5824 216.249 71.5606 216.235 71.5415C216.221 71.5225 216.203 71.5067 216.183 71.4952C216.162 71.4837 216.139 71.4769 216.116 71.4751C216.092 71.4733 216.068 71.4766 216.046 71.4849C216.024 71.4931 216.004 71.5061 215.988 71.5228C215.971 71.5395 215.958 71.5597 215.95 71.5818C215.942 71.6039 215.939 71.6275 215.942 71.6509C215.944 71.6742 215.951 71.6969 215.963 71.7171C216.916 74.4721 218.306 77.0575 220.081 79.3754C221.892 81.6435 224.114 83.5547 226.632 85.0105C226.919 85.1594 227.169 84.7498 226.944 84.5512Z" fill="#263238"/>
<path d="M195.998 128.105C195.79 127.377 195.544 126.66 195.261 125.958C194.998 125.151 194.823 124.319 194.737 123.475C194.797 121.85 194.68 120.223 194.388 118.622C193.939 117.368 193.348 116.169 192.628 115.047C191.738 113.825 191.297 112.335 191.381 110.827C191.381 110.629 191.094 110.567 191.069 110.827C190.582 113.744 192.229 116.14 193.115 118.796C193.689 120.496 193.365 122.271 193.639 124.009C193.778 125.658 194.453 127.218 195.561 128.452C195.698 128.502 196.06 128.366 195.998 128.105Z" fill="#263238"/>
<path d="M201.014 118.213C200.278 116.972 199.442 115.83 198.818 114.489C198.225 113.215 197.725 111.9 197.32 110.555C196.896 109.239 196.597 107.886 196.21 106.558C195.748 104.994 195.099 103.467 194.712 101.879C194.712 101.668 194.363 101.779 194.413 101.99C194.8 103.629 194.912 105.354 195.249 107.017C195.571 108.45 195.988 109.859 196.497 111.237C196.949 112.569 197.53 113.853 198.231 115.073C198.894 116.323 199.807 117.425 200.914 118.312C200.928 118.314 200.942 118.313 200.955 118.309C200.968 118.305 200.98 118.297 200.989 118.288C200.999 118.278 201.006 118.266 201.011 118.253C201.015 118.24 201.016 118.226 201.014 118.213Z" fill="#263238"/>
<path d="M206.055 109.35C204.291 107.315 202.832 105.037 201.725 102.586C200.665 100.19 199.754 97.7202 198.855 95.2626C198.855 95.0888 198.506 95.1509 198.543 95.2626C198.94 97.9588 199.665 100.597 200.702 103.119C201.23 104.337 201.896 105.49 202.686 106.558C203.607 107.66 204.654 108.651 205.806 109.512C205.943 109.685 206.18 109.499 206.055 109.35Z" fill="#263238"/>
<path d="M211.334 100.936C210.429 100.088 209.7 99.0715 209.187 97.9447C208.513 96.7283 207.877 95.4871 207.278 94.2211C206.704 92.9799 206.105 91.8379 205.531 90.634C204.872 89.4611 204.473 88.1621 204.358 86.8235C204.358 86.7807 204.341 86.7396 204.311 86.7094C204.28 86.6791 204.239 86.6621 204.196 86.6621C204.153 86.6621 204.112 86.6791 204.081 86.7094C204.051 86.7396 204.034 86.7807 204.034 86.8235C203.935 88.16 204.109 89.5026 204.545 90.7705C204.95 92.1879 205.481 93.5669 206.13 94.8913C206.777 96.2019 207.506 97.4705 208.314 98.6894C208.952 99.8235 209.923 100.737 211.096 101.308C211.321 101.395 211.546 101.11 211.334 100.936Z" fill="#263238"/>
<path d="M215.938 89.9258C215.177 88.908 214.428 87.8903 213.754 86.8104C213.08 85.7306 212.506 84.6383 211.858 83.5212C211.209 82.4041 210.61 81.2002 210.011 79.9962C209.992 79.9633 209.961 79.9382 209.925 79.9254C209.889 79.9126 209.85 79.9129 209.814 79.9263C209.778 79.9397 209.748 79.9652 209.729 79.9985C209.71 80.0317 209.704 80.0705 209.711 80.1079C210.028 81.3798 210.445 82.6249 210.959 83.8315C211.488 85.0352 212.101 86.2006 212.793 87.3193C213.471 88.4289 214.212 89.4981 215.015 90.5216C215.771 91.5847 216.723 92.4947 217.822 93.2026C217.984 93.2895 218.222 93.1033 218.134 92.9296C217.504 91.8584 216.768 90.8522 215.938 89.9258Z" fill="#263238"/>
<path d="M235.242 80.2583C234.481 78.9178 233.732 77.6146 232.846 76.361C231.94 75.0624 230.957 73.8189 229.901 72.6373C227.901 70.3283 225.649 68.2469 223.188 66.4313C223.051 66.332 222.826 66.4313 222.951 66.6423C226.906 71.272 231.062 75.7528 234.98 80.4197C234.986 80.4445 234.998 80.4675 235.015 80.4869C235.031 80.5063 235.052 80.5214 235.076 80.5311C235.1 80.5408 235.125 80.5448 235.151 80.5427C235.177 80.5406 235.201 80.5325 235.223 80.5191C235.245 80.5056 235.263 80.4873 235.276 80.4654C235.29 80.4436 235.298 80.419 235.299 80.3935C235.301 80.3681 235.297 80.3426 235.287 80.3191C235.277 80.2956 235.262 80.2747 235.242 80.2583Z" fill="#263238"/>
<path d="M242.43 72.935C241.639 71.6289 240.706 70.4134 239.647 69.3107C237.334 67.0661 234.776 65.0845 232.023 63.4026C231.848 63.2909 231.648 63.5019 231.81 63.6384C234.057 65.6988 236.34 67.722 238.461 69.9189C239.53 70.9837 240.538 72.1066 241.481 73.2826C242.405 74.5238 243.041 75.8395 243.914 77.0062C243.93 77.027 243.952 77.0424 243.977 77.0502C244.002 77.058 244.029 77.0577 244.054 77.0495C244.079 77.0412 244.1 77.0254 244.116 77.0043C244.131 76.9832 244.139 76.9578 244.139 76.9317C243.832 75.5029 243.251 74.1461 242.43 72.935Z" fill="#263238"/>
<path d="M251.102 70.4379C250.396 69.16 249.56 67.958 248.606 66.8508C246.77 64.7433 244.589 62.9598 242.155 61.5757C241.993 61.4764 241.831 61.7246 241.968 61.8363C244.107 63.646 246.086 65.6351 247.883 67.7817C248.781 68.8492 249.617 69.9538 250.478 71.0461C251.252 72.225 252.085 73.3643 252.974 74.4594C253.049 74.5339 253.173 74.4594 253.149 74.3353C252.591 72.9749 251.906 71.6699 251.102 70.4379Z" fill="#263238"/>
<path d="M257.703 66.5424C256.83 65.5618 255.881 64.6185 254.945 63.6876C254.059 62.7264 253.022 61.9134 251.876 61.2796C251.701 61.1804 251.589 61.4162 251.701 61.5403C253.436 63.4269 255.133 65.3508 256.817 67.2747C258.275 69.1486 259.53 71.1706 260.561 73.3069C260.561 73.3938 260.76 73.3069 260.748 73.2325C260.435 70.748 259.373 68.4159 257.703 66.5424Z" fill="#263238"/>
<path d="M265.228 66.1583C263.648 64.1319 261.696 62.4219 259.475 61.119C259.313 61.0321 259.138 61.2928 259.288 61.3921C261.277 62.8986 263.023 64.6984 264.466 66.7293C265.943 68.741 267.198 70.9049 268.21 73.1835C268.21 73.2953 268.447 73.2704 268.422 73.1835C267.928 70.6244 266.833 68.2174 265.228 66.1583Z" fill="#263238"/>
<path d="M274.062 71.9903C273.904 71.4438 273.708 70.9089 273.476 70.3891C272.997 69.3437 272.411 68.3497 271.729 67.4226C270.298 65.5709 268.684 63.8662 266.912 62.3337C266.879 62.3057 266.836 62.292 266.793 62.2955C266.75 62.2989 266.709 62.3194 266.681 62.3523C266.653 62.3852 266.639 62.4279 266.643 62.471C266.646 62.514 266.667 62.554 266.7 62.5819C268.387 64.1337 269.882 65.8795 271.155 67.7826C271.778 68.7053 272.333 69.6718 272.814 70.6746C273.052 71.1587 273.264 71.6676 273.463 72.1765C273.604 72.6907 273.797 73.1896 274.037 73.6659C274.053 73.6916 274.075 73.7129 274.101 73.7277C274.127 73.7424 274.157 73.7502 274.187 73.7502C274.217 73.7502 274.247 73.7424 274.273 73.7277C274.299 73.7129 274.321 73.6916 274.337 73.6659C274.353 73.0951 274.26 72.5265 274.062 71.9903Z" fill="#263238"/>
<path d="M279.815 73.4312C279.389 72.5747 278.91 71.7456 278.38 70.9487C277.868 70.1613 277.301 69.4106 276.683 68.7022C276.046 67.9698 275.435 67.2624 274.774 66.5052C274.761 66.4847 274.745 66.467 274.725 66.4536C274.705 66.4402 274.682 66.4314 274.659 66.4277C274.635 66.424 274.611 66.4256 274.588 66.4324C274.565 66.4392 274.543 66.451 274.526 66.4669C274.508 66.4828 274.494 66.5025 274.484 66.5245C274.475 66.5465 274.471 66.5703 274.472 66.5941C274.473 66.618 274.479 66.6413 274.49 66.6624C274.501 66.6835 274.517 66.7019 274.536 66.7162C275.179 67.449 275.759 68.2337 276.271 69.0621C276.758 69.8441 277.269 70.6012 277.756 71.3708C278.243 72.1403 278.754 72.9098 279.241 73.6794C279.681 74.5104 280.164 75.3183 280.688 76.0997C280.788 76.2239 280.95 76.0997 280.913 75.9756C280.645 75.0889 280.276 74.2353 279.815 73.4312Z" fill="#263238"/>
<path d="M225.434 139.598C225.434 139.598 213.43 123.313 205.98 127.608C198.531 131.903 207.802 155.697 216.737 158.775C217.855 159.249 219.059 159.494 220.275 159.493C221.491 159.492 222.694 159.247 223.812 158.771C224.93 158.296 225.94 157.6 226.781 156.726C227.621 155.852 228.275 154.818 228.703 153.686L225.434 139.598Z" fill="#F7A9A0"/>
<path d="M208.8 134.361C208.663 134.361 208.638 134.548 208.8 134.597C215.04 136.968 218.471 142.628 220.892 148.511C218.995 146.264 216.45 145.073 213.405 147.332C213.255 147.444 213.405 147.692 213.58 147.655C214.665 147.286 215.839 147.259 216.94 147.579C218.041 147.899 219.016 148.55 219.731 149.442C220.914 150.943 221.93 152.566 222.764 154.283C223.063 154.829 224.012 154.519 223.837 153.886C223.837 153.886 223.837 153.786 223.837 153.737C223.737 145.855 217.336 134.97 208.8 134.361Z" fill="#263238"/>
<path d="M219.295 246.257C223.737 264.056 212.244 283.891 212.244 283.891C181.535 297.283 139.371 285.665 138.372 283.667C138.372 283.667 137.125 270.237 134.866 266.452C132.607 262.666 115.974 243.204 111.469 238.338C106.964 233.473 105.529 211.628 107.052 207.544C108.574 203.46 136.189 204.007 142.503 206.812C152.423 210.97 162.627 214.425 173.037 217.151C173.037 217.151 183.082 174.59 203.198 175.31C212.432 175.645 201.276 193.928 199.754 212.546C198.868 223.382 215.975 232.976 219.295 246.257Z" fill="#F7A9A0"/>
<path d="M129.775 222.834C132.695 224.621 136.401 224.758 139.758 225.565L150.002 227.712C156.862 229.188 163.622 231.091 170.242 233.409C173.569 234.635 176.78 236.151 179.838 237.939C183.058 239.686 185.696 242.331 187.425 245.548C190.768 251.83 191.918 259.038 190.694 266.04C191.129 259.164 189.505 252.314 186.027 246.355C182.658 240.496 175.82 237.815 169.494 235.395C162.992 233.029 156.374 230.991 149.665 229.288C143.002 227.24 135.827 226.309 129.775 222.834Z" fill="#263238"/>
<path d="M116.598 245.97L114.402 244.791C114.913 243.86 126.88 221.99 138.859 217.856C141.068 217.087 144.587 216.193 148.667 215.175C160.447 212.197 180.163 207.232 180.999 201.038C181.36 198.332 177.53 195.577 174.26 193.74L175.508 191.58C181.323 194.844 183.944 198.047 183.494 201.373C182.446 209.23 163.292 214.058 149.304 217.571C145.286 218.589 141.817 219.47 139.695 220.19C128.652 224.013 116.723 245.759 116.598 245.97Z" fill="#263238"/>
<path d="M111.619 242.122L109.647 240.595C110.309 239.751 125.869 219.942 137.711 215.833C140.207 214.964 144.524 214.021 149.478 212.929C160.921 210.446 180.05 206.214 180.874 200.691C181.173 198.729 178.877 196.334 174.26 193.74L175.508 191.58C181.261 194.807 183.844 197.898 183.369 201.05C182.371 207.728 167.684 211.477 150.04 215.362C145.173 216.429 140.956 217.348 138.56 218.179C127.404 222.039 111.781 241.923 111.619 242.122Z" fill="#263238"/>
<path d="M149.977 190.252C149.977 190.252 148.28 182.668 151.225 177.331C154.17 171.994 166.075 170.517 170.467 171.473C174.859 172.429 192.254 183.5 197.37 189.719C202.486 195.937 200.315 205.854 190.595 203.372C180.874 200.889 149.977 190.252 149.977 190.252Z" fill="#F7A9A0"/>
<path d="M189.085 182.297C196.172 186.02 206.442 196.285 197.532 203.472C191.618 206.898 183.594 200.791 177.642 199.525C181.523 199.947 185.204 201.424 188.872 202.417C192.242 203.36 196.534 203.931 198.443 200.381C202.436 193.468 193.964 186.331 189.085 182.297Z" fill="#263238"/>
<path d="M143.551 177.01C143.551 177.01 147.295 170.22 153.109 168.172C158.924 166.124 168.782 172.864 171.44 176.464C174.098 180.063 179.751 199.823 179.439 207.854C179.127 215.884 170.891 221.904 165.238 213.663C159.586 205.421 143.551 177.01 143.551 177.01Z" fill="#F7A9A0"/>
<path d="M164.028 170.492C168.006 172.868 171.366 176.142 173.836 180.049C176.432 183.959 177.58 188.738 178.378 193.07C179.42 197.524 180.03 202.066 180.2 206.636C180.376 208.985 179.748 211.325 178.418 213.274C177.089 215.223 175.135 216.668 172.875 217.373C174.93 216.522 176.634 215.003 177.709 213.064C178.783 211.125 179.164 208.881 178.79 206.698C178.206 202.257 177.373 197.852 176.294 193.504C175.383 189.011 174.61 184.816 172.326 180.906C170.194 176.978 167.386 173.454 164.028 170.492Z" fill="#263238"/>
<path d="M124.447 186.406C124.447 186.406 126.418 178.537 131.796 174.974C137.175 171.412 149.266 175.707 153.01 178.698C156.753 181.689 168.196 200.295 170.155 208.487C172.114 216.679 165.326 224.945 157.165 218.032C149.004 211.118 124.447 186.406 124.447 186.406Z" fill="#F7A9A0"/>
<path d="M143.713 174.525C148.485 175.92 152.873 178.383 156.541 181.724C160.285 185.014 162.78 189.594 164.902 193.776C167.229 198.026 169.147 202.485 170.629 207.095C171.479 209.418 171.493 211.963 170.669 214.296C169.846 216.629 168.235 218.606 166.112 219.891C167.999 218.504 169.339 216.503 169.899 214.237C170.46 211.97 170.206 209.58 169.182 207.479C167.352 203.106 165.269 198.841 162.942 194.707C160.721 190.376 158.725 186.255 155.281 182.928C151.944 179.482 148.03 176.638 143.713 174.525Z" fill="#263238"/>
<path d="M106.665 211.602C106.915 204.974 109.672 192.338 116.036 185.462C122.4 178.586 145.76 190.923 152.086 196.769C158.413 202.615 167.759 222.462 162.269 225.925C156.778 229.388 140.644 212.818 136.588 210.162C132.533 207.506 106.665 211.602 106.665 211.602Z" fill="#F7A9A0"/>
<path d="M121.589 215.562C124.596 211.9 129.201 209.008 134.305 209.48C139.496 210.2 143.039 214.06 146.783 217.002C150.526 219.943 153.933 223.617 158.013 225.69C160.072 226.596 162.244 226.931 162.605 224.97C163.053 222.769 163.001 220.496 162.456 218.317V218.429C161.081 214.056 159.323 209.811 157.202 205.744C155.044 201.722 152.523 197.899 148.829 195.342C145.071 192.747 141.092 190.484 136.937 188.578C132.778 186.534 128.581 184.647 124.347 182.918C133.082 185.773 141.817 188.876 149.778 193.965C153.908 196.509 156.678 200.717 158.937 204.788C161.179 208.944 163.05 213.289 164.527 217.771V217.833C165.151 220.382 165.151 223.042 164.527 225.591C164.29 226.352 163.86 227.04 163.279 227.589C162.645 228.126 161.841 228.425 161.008 228.433C159.629 228.456 158.267 228.127 157.053 227.477C152.535 224.995 149.129 221.532 145.585 218.28C142.041 215.028 138.56 211.329 134.067 210.56C129.575 209.79 124.858 212.124 121.589 215.562Z" fill="#263238"/>
<path d="M119.268 376.657C112.368 358.039 111.519 334.456 143.376 262.466C147.781 252.536 218.908 260.753 217.473 272.309C214.64 294.949 195.124 331.266 187.325 342.983C167.647 372.524 123.948 389.255 119.268 376.657Z" fill="#F7A9A0"/>
<path d="M115.974 364.034C114.93 358.592 114.511 353.05 114.726 347.514C114.838 344.758 115.001 342.003 115.325 339.26C115.668 336.505 116.197 333.776 116.91 331.093C118.249 325.735 119.886 320.456 121.814 315.28C123.687 310.068 125.931 304.995 128.527 300.1C126.593 305.263 124.933 310.488 123.336 315.739C121.739 320.989 120.266 326.252 118.994 331.552C118.382 334.208 117.746 336.864 117.446 339.52C117.147 342.176 116.797 344.932 116.573 347.65C116.085 353.097 115.885 358.566 115.974 364.034Z" fill="#263238"/>
<path d="M87.2737 413.546C72.8612 432.959 57.8247 455.486 54.1686 479.839C54.1686 480.199 54.7176 480.323 54.805 479.963C56.4645 473.322 58.5953 466.805 61.1814 460.464C70.6525 457.87 79.899 455.747 84.8903 446.388C89.969 436.769 89.3201 424.233 88.3593 413.757C88.2969 413.199 87.5232 413.174 87.2737 413.546Z" fill="#FFC727"/>
<path d="M61.2812 460.277C67.7575 445.83 76.068 431.32 86.6372 419.442C86.7121 419.355 86.8244 419.442 86.7495 419.553C79.8365 428.018 74.5831 437.228 69.442 446.612C74.2212 441.796 79.4247 437.476 83.9668 432.363C84.0542 432.263 84.1915 432.363 84.1166 432.512C79.6244 437.874 74.7204 443.682 68.8805 447.654C67.3082 450.534 65.7235 453.43 64.1263 456.343C64.5131 456.119 64.9249 455.933 65.3741 455.735C65.449 455.735 65.5114 455.797 65.3741 455.834C64.9249 456.057 64.4881 456.293 64.0264 456.492C63.2653 457.857 62.5165 459.222 61.7304 460.588C61.5682 460.848 61.1439 460.588 61.2812 460.277Z" fill="#263238"/>
<path d="M66.0605 455.239C69.9391 453.084 73.6401 450.627 77.1288 447.891C77.2161 447.816 77.3534 447.953 77.266 448.027C73.8836 450.922 70.1782 453.421 66.2227 455.474C66.0605 455.599 65.9232 455.338 66.0605 455.239Z" fill="#263238"/>
<path d="M52.4715 476.215C52.4715 476.284 52.4991 476.35 52.5482 476.399C52.5974 476.448 52.664 476.475 52.7335 476.475C52.803 476.475 52.8697 476.448 52.9188 476.399C52.968 476.35 52.9956 476.284 52.9956 476.215C53.0704 468.196 52.9956 460.079 53.1204 452.086C55.1918 447.94 59.6216 445.656 62.7037 442.33C64.9208 439.901 66.8509 437.227 68.4563 434.361C72.1628 427.514 74.4299 419.989 75.1197 412.243C75.9682 403.666 72.6989 375.367 69.0677 376.359C67.1835 376.868 61.0815 390.882 59.4594 395.511C56.8361 403.167 54.915 411.044 53.7193 419.045C50.7744 437.849 51.0864 457.224 52.4715 476.215Z" fill="#FFC727"/>
<path d="M52.4091 441.634C52.8458 431.494 55.1418 421.241 57.3006 411.399C59.6091 400.799 62.2919 390.819 67.8074 381.361C67.9072 381.188 68.1692 381.361 68.0819 381.523C64.4245 388.879 61.5916 396.612 59.634 404.584C60.0084 404.013 60.4451 403.467 60.8819 402.934C61.0316 402.71 61.381 402.934 61.2313 403.132C60.7452 403.99 60.1724 404.797 59.5217 405.54C59.5217 405.54 59.5217 405.54 59.4468 405.54C57.5626 413.111 56.215 420.869 55.0545 428.589L55.304 428.291C55.304 428.229 55.4663 428.291 55.4288 428.391L54.9671 429.148C54.3806 433.082 53.8441 436.992 53.295 440.877C60.3203 434.907 66.3224 427.869 69.7041 419.193C66.3848 428.192 61.1689 436.185 53.1203 441.647L52.6711 444.787C52.6711 444.998 52.2968 444.936 52.2968 444.725C52.2968 443.806 52.2968 442.876 52.3841 441.957C52.3619 441.935 52.3447 441.909 52.3338 441.88C52.3228 441.852 52.3184 441.821 52.3208 441.79C52.3232 441.759 52.3323 441.729 52.3476 441.702C52.3628 441.676 52.3838 441.652 52.4091 441.634Z" fill="#263238"/>
<path d="M55.7159 426.927C61.0691 418.958 66.0604 411.225 70.0286 402.413C70.0286 402.314 70.2407 402.413 70.2033 402.487C66.8965 411.176 62.2545 420.1 55.9904 427.138C55.8531 427.274 55.6036 427.088 55.7159 426.927Z" fill="#263238"/>
<path d="M62.8534 400.425C65.0746 396.515 67.4205 392.705 69.5169 388.72C69.5169 388.609 69.729 388.72 69.6791 388.82C67.9589 392.983 65.7829 396.946 63.1903 400.636C63.1604 400.676 63.1162 400.704 63.0668 400.713C63.0173 400.722 62.9662 400.712 62.9237 400.686C62.8811 400.659 62.8502 400.617 62.8372 400.569C62.8242 400.521 62.83 400.469 62.8534 400.425Z" fill="#263238"/>
<path d="M47.006 453.029C46.8981 458.345 46.267 463.637 45.1217 468.83C45.2091 469.401 45.2964 469.972 45.3713 470.555C47.0192 464.817 47.9743 458.905 48.2163 452.942C48.2623 452.861 48.2864 452.769 48.2864 452.676C48.2864 452.582 48.2623 452.49 48.2163 452.409C48.4448 444.417 47.8469 436.423 46.4319 428.553C43.9363 413.82 38.4832 399.682 28.1512 388.636C28.0667 388.561 27.9661 388.508 27.8572 388.479C27.7483 388.45 27.6342 388.447 27.5239 388.47C27.4137 388.493 27.3103 388.541 27.2221 388.611C27.1338 388.681 27.0631 388.77 27.0156 388.871C22.8478 399.409 24.2953 411.995 27.8517 422.508C29.806 428.202 32.5892 433.58 36.1123 438.47C39.6188 443.422 44.1359 447.593 47.006 453.029Z" fill="#FFC727"/>
<path d="M29.399 393.537C39.1945 409.35 46.0077 428.092 46.8687 446.76C46.8687 447.095 46.3197 447.182 46.2698 446.834C46.0452 445.158 45.7831 443.495 45.5086 441.869C41.4531 438.009 37.2978 433.938 34.4028 429.122C34.4028 429.035 34.4652 428.936 34.5401 429.01C37.9008 433.118 41.5051 437.022 45.3339 440.703C44.6226 436.569 43.7991 432.511 42.8382 428.501L42.0646 427.595C41.8899 427.397 42.1769 427.111 42.3516 427.31L42.5887 427.571C41.209 422.095 39.5005 416.707 37.4725 411.435C34.9768 408.481 32.1942 405.924 30.3723 402.362C30.3624 402.344 30.3601 402.322 30.366 402.302C30.3718 402.283 30.3853 402.266 30.4035 402.256C30.4217 402.246 30.4431 402.244 30.463 402.25C30.4829 402.256 30.4997 402.269 30.5096 402.287C31.9696 404.323 33.3796 406.371 35.0392 408.257C35.6881 409.015 36.4243 409.722 37.0982 410.454C34.8483 404.723 32.1705 399.168 29.0871 393.835C29.064 393.792 29.0556 393.742 29.0633 393.694C29.071 393.646 29.0943 393.602 29.1296 393.568C29.1649 393.534 29.2104 393.513 29.259 393.507C29.3077 393.502 29.3568 393.512 29.399 393.537Z" fill="#263238"/>
<path d="M31.3831 413.036C34.5526 417.281 38.1588 421.315 41.0912 425.696C41.1786 425.821 40.9914 425.957 40.8916 425.858C37.1229 422.04 33.8413 417.776 31.121 413.16C31.121 413.024 31.2833 412.912 31.3831 413.036Z" fill="#263238"/>
<path d="M41.5405 426.677L41.6777 426.813C41.7651 426.9 41.6777 427.049 41.528 426.962L41.3907 426.826C41.3807 426.805 41.3775 426.782 41.3814 426.759C41.3853 426.736 41.3962 426.715 41.4127 426.699C41.4291 426.682 41.4502 426.672 41.4731 426.668C41.496 426.664 41.5195 426.667 41.5405 426.677Z" fill="#263238"/>
<path d="M14.0631 423.922C15.2172 432.751 18.7917 441.095 24.3952 448.038C26.702 450.761 29.5535 452.976 32.7682 454.542C36.3994 456.33 40.2552 458.39 43.9987 459.855C45.7782 464.376 47.1032 469.062 47.9543 473.843C48.0666 473.434 48.1914 473.012 48.3162 472.602C45.9079 452.01 32.5061 434.41 15.3733 423.115C15.2407 423.014 15.0801 422.955 14.913 422.946C14.7458 422.938 14.5801 422.98 14.4378 423.068C14.2956 423.156 14.1835 423.284 14.1165 423.437C14.0496 423.589 14.031 423.759 14.0631 423.922Z" fill="#FFC727"/>
<path d="M19.9779 430.016C19.8656 429.904 19.9779 429.693 20.1526 429.78C29.5698 436.746 37.0783 445.951 41.9897 456.553C42.1145 456.826 41.7277 457.074 41.5654 456.801C40.7668 455.411 39.9557 454.058 39.0698 452.73C35.1516 451.998 31.4455 449.267 28.5505 446.661C28.4632 446.599 28.5505 446.474 28.6628 446.549C30.1599 447.925 31.8241 449.109 33.6167 450.074C35.2015 450.868 36.9235 451.377 38.6081 452.023C37.1606 449.739 35.6465 447.538 34.0659 445.419C29.8643 443.792 25.9283 441.554 22.3862 438.779C22.2864 438.705 22.3862 438.518 22.4985 438.593C26.036 440.721 29.6849 442.66 33.4295 444.402C31.0411 441.268 28.466 438.28 25.7179 435.453C24.3827 434.757 23.0351 434.062 21.7498 433.305C21.6375 433.305 21.7498 433.069 21.8371 433.107C22.9026 433.484 23.9202 433.984 24.8694 434.596C23.2846 433.045 21.6874 431.456 19.9779 430.016Z" fill="#263238"/>
<path d="M20.3397 437.117C20.5749 437.253 20.7964 437.411 21.0011 437.589C21.0011 437.589 21.0011 437.725 20.9262 437.7C20.6866 437.587 20.457 437.454 20.2399 437.303C20.1151 437.229 20.2274 437.042 20.3397 437.117Z" fill="#263238"/>
<path d="M75.0199 518.429H28.0638L31.8573 475.905L32.6933 466.521H70.3904L71.2265 475.905L75.0199 518.429Z" fill="#455A64"/>
<path d="M71.2265 475.905L32.1318 472.814L32.6933 466.521H70.3904L71.2265 475.905Z" fill="#37474F"/>
<path d="M72.649 459.967H30.4471V469.251H72.649V459.967Z" fill="#455A64"/>
<path d="M14.0506 518.428C171.278 517.671 347.66 517.658 504.899 518.428C347.672 519.198 171.29 519.185 14.0506 518.428Z" fill="#263238"/>
<path d="M419.398 66.9124C418.343 77.0021 414.49 86.6016 408.267 94.6386C402.044 102.676 393.698 108.834 384.16 112.425C374.622 116.016 364.269 116.899 354.256 114.975C344.242 113.051 334.964 108.396 327.457 101.53L299.93 105.551L313.656 81.8814C310.499 74.1758 309.15 65.8556 309.71 57.5534C310.271 49.2512 312.728 41.1855 316.893 33.9693C321.058 26.7532 326.823 20.5766 333.748 15.909C340.673 11.2415 348.577 8.20584 356.859 7.03289C365.141 5.85995 373.583 6.58056 381.542 9.13995C389.502 11.6993 396.771 16.0301 402.795 21.8031C408.82 27.5761 413.442 34.6393 416.31 42.4559C419.178 50.2724 420.217 58.6366 419.348 66.9124H419.398Z" fill="white"/>
<path d="M419.398 66.9127C418.337 77.0012 414.494 86.6017 408.292 94.6537C406.75 96.6632 405.083 98.5743 403.301 100.376C401.465 102.118 399.528 103.751 397.498 105.266C393.452 108.32 388.996 110.793 384.259 112.614C379.501 114.488 374.502 115.691 369.409 116.189C366.866 116.418 364.31 116.468 361.76 116.338C359.206 116.271 356.661 116.005 354.148 115.543C344.001 113.687 334.573 109.059 326.921 102.175L327.569 102.374L300.117 106.569L298.12 106.88L299.131 105.129L312.857 81.41L312.795 82.3409C309.562 74.4962 308.186 66.0173 308.772 57.5593C309.359 49.1013 311.892 40.8905 316.177 33.5615C320.464 26.2614 326.355 20.0197 333.409 15.3033C340.451 10.6555 348.459 7.65275 356.832 6.51996C365.206 5.38717 373.729 6.15371 381.763 8.76216C389.716 11.4502 396.964 15.8734 402.976 21.7079C408.973 27.516 413.567 34.6021 416.412 42.4324C419.256 50.2627 420.277 58.633 419.398 66.9127ZM419.398 66.9127C420.28 58.6697 419.247 50.3354 416.379 42.5522C413.511 34.769 408.885 27.7447 402.857 22.0208C396.829 16.2969 389.56 12.0263 381.61 9.53822C373.661 7.0501 365.243 6.4109 357.006 7.6699C348.845 8.88547 341.073 11.9424 334.283 16.6066C327.558 21.305 321.938 27.3988 317.811 34.4676C313.756 41.5641 311.371 49.4829 310.836 57.6285C310.318 65.764 311.64 73.9116 314.704 81.472L314.904 81.9685L314.642 82.4154L300.791 105.998L299.805 104.558L327.357 100.723H327.732L328.006 100.984C335.349 107.813 344.456 112.475 354.311 114.451C356.778 114.952 359.281 115.255 361.798 115.357C369.353 115.884 376.933 114.783 384.022 112.13C388.78 110.426 393.259 108.029 397.311 105.018C399.344 103.525 401.286 101.913 403.126 100.189C404.907 98.4088 406.574 96.5184 408.117 94.5295C414.366 86.535 418.27 76.977 419.398 66.9127Z" fill="#263238"/>
<path d="M384.259 70.599C379.07 77.4945 372.453 83.2004 364.855 87.3305C357.262 83.198 350.649 77.4923 345.463 70.599C338.638 61.6003 338.975 47.5374 348.745 44.5337C359.551 41.1576 364.855 57.3305 364.855 57.3305C364.855 57.3305 370.245 41.0583 380.977 44.5337C390.735 47.6367 391.109 61.5755 384.259 70.599Z" fill="#FFC727"/>
</svg>
