<svg width="437" height="296" viewBox="0 0 437 296" fill="none" xmlns="http://www.w3.org/2000/svg">
<path d="M70.8939 101.157C71.2184 100.957 71.5921 100.851 71.9733 100.851C72.3545 100.851 72.7282 100.957 73.0526 101.157C73.2376 101.266 73.4227 101.376 73.6077 101.472L74.1834 101.767C74.5294 101.923 74.8252 102.173 75.0381 102.487C75.251 102.802 75.3726 103.169 75.3895 103.548L75.4717 106.207L84.127 105.94L84.0448 103.281C84.0357 102.9 84.1328 102.524 84.3252 102.195C84.5176 101.865 84.7978 101.596 85.1344 101.417C85.5118 101.208 85.8778 100.98 86.2309 100.732C86.541 100.513 86.9055 100.385 87.284 100.361C87.6626 100.336 88.0405 100.417 88.3758 100.595L90.7127 101.849L94.8245 94.2077L92.4739 92.9331C92.1388 92.7516 91.8607 92.4806 91.6707 92.1502C91.4808 91.8198 91.3863 91.4432 91.398 91.0622C91.398 90.6305 91.398 90.1988 91.3569 89.7739C91.32 89.394 91.3896 89.0115 91.5578 88.669C91.7261 88.3264 91.9863 88.0375 92.3095 87.8345L94.5709 86.4639L90 79.1038L87.7317 80.5087C87.408 80.7074 87.0356 80.8127 86.6558 80.8127C86.2759 80.8127 85.9035 80.7074 85.5798 80.5087C85.4017 80.399 85.2166 80.2894 85.0247 80.1866L84.4559 79.9056C84.1079 79.748 83.8107 79.4964 83.5977 79.1793C83.3846 78.8621 83.2642 78.4919 83.2498 78.1101L83.1744 75.4512L74.5123 75.7184L74.6014 78.3705C74.6118 78.7529 74.5153 79.1305 74.3228 79.461C74.1303 79.7915 73.8494 80.0618 73.5118 80.2414C73.1343 80.4501 72.7683 80.6789 72.4153 80.9267C72.1045 81.1465 71.7387 81.2758 71.3588 81.3C70.9789 81.3242 70.5997 81.2424 70.2635 81.0637L67.9266 79.8165L63.8148 87.4507L66.1517 88.698C66.4868 88.8794 66.7649 89.1505 66.9549 89.4808C67.1449 89.8112 67.2393 90.1879 67.2276 90.5688C67.2276 90.9983 67.2413 91.43 67.2687 91.864C67.3056 92.2438 67.236 92.6264 67.0678 92.9689C66.8995 93.3115 66.6393 93.6004 66.3161 93.8034L64.0615 95.174L68.6393 102.527L70.8939 101.157ZM73.0663 87.4507C73.7288 86.2135 74.7435 85.2006 75.9818 84.5402C77.2202 83.8799 78.6267 83.6018 80.0232 83.7411C81.4197 83.8804 82.7435 84.4308 83.827 85.3228C84.9106 86.2148 85.7051 87.4081 86.1102 88.7519C86.5152 90.0956 86.5125 91.5293 86.1024 92.8715C85.6923 94.2136 84.8933 95.404 83.8064 96.2919C82.7195 97.1797 81.3936 97.7252 79.9966 97.8593C78.5995 97.9933 77.1942 97.7099 75.9583 97.0449C74.3066 96.152 73.0754 94.6419 72.5335 92.8442C71.9917 91.0466 72.1832 89.1076 73.0663 87.4507Z" fill="#DBDBDB"/>
<path d="M353.784 116.282C354.015 116.424 354.201 116.627 354.322 116.869C354.444 117.112 354.495 117.383 354.47 117.652C354.47 117.796 354.47 117.947 354.47 118.098C354.47 118.249 354.47 118.399 354.47 118.55C354.489 118.813 354.435 119.077 354.314 119.312C354.193 119.546 354.01 119.743 353.784 119.88L352.174 120.812L355.203 126.068L356.82 125.136C357.052 125.005 357.316 124.94 357.582 124.95C357.848 124.96 358.106 125.043 358.328 125.191C358.581 125.355 358.841 125.506 359.109 125.643C359.348 125.762 359.549 125.944 359.691 126.171C359.832 126.397 359.909 126.658 359.911 126.925V128.782H365.976V126.925C365.978 126.658 366.054 126.397 366.196 126.171C366.337 125.944 366.539 125.762 366.778 125.643C367.046 125.506 367.306 125.355 367.559 125.191C367.781 125.043 368.039 124.96 368.305 124.95C368.571 124.94 368.835 125.005 369.067 125.136L370.684 126.068L373.713 120.812L372.096 119.88C371.87 119.741 371.687 119.543 371.566 119.307C371.445 119.072 371.391 118.807 371.41 118.543C371.41 118.399 371.41 118.249 371.41 118.098C371.41 117.947 371.41 117.796 371.41 117.652C371.385 117.383 371.435 117.111 371.556 116.869C371.678 116.627 371.864 116.423 372.096 116.282L373.706 115.357L370.677 110.1L369.067 111.026C368.835 111.159 368.57 111.226 368.302 111.217C368.035 111.209 367.775 111.126 367.552 110.978C367.3 110.812 367.04 110.661 366.771 110.525C366.532 110.407 366.331 110.224 366.189 109.998C366.048 109.772 365.971 109.511 365.969 109.244V107.387H359.904V109.244C359.902 109.511 359.826 109.772 359.684 109.998C359.542 110.224 359.341 110.407 359.102 110.525C358.834 110.663 358.574 110.814 358.321 110.978C358.098 111.126 357.838 111.209 357.571 111.217C357.303 111.226 357.039 111.159 356.807 111.026L355.196 110.1L352.167 115.357L353.784 116.282ZM362.94 113.095C363.924 113.094 364.887 113.385 365.706 113.93C366.525 114.476 367.164 115.253 367.541 116.162C367.919 117.071 368.019 118.071 367.827 119.037C367.636 120.002 367.163 120.89 366.467 121.586C365.772 122.283 364.885 122.757 363.92 122.95C362.955 123.142 361.954 123.044 361.044 122.668C360.135 122.291 359.358 121.654 358.811 120.835C358.264 120.017 357.972 119.055 357.972 118.07C357.972 116.752 358.495 115.488 359.426 114.555C360.358 113.622 361.622 113.097 362.94 113.095Z" fill="#DBDBDB"/>
<path d="M384.116 168.11C384.116 172.783 385.501 177.351 388.098 181.237C390.694 185.123 394.385 188.151 398.702 189.94C403.02 191.728 407.771 192.196 412.354 191.285C416.938 190.373 421.148 188.122 424.453 184.818C427.757 181.513 430.008 177.303 430.92 172.719C431.831 168.136 431.363 163.385 429.575 159.067C427.787 154.749 424.758 151.059 420.872 148.463C416.986 145.866 412.418 144.48 407.745 144.48C404.642 144.48 401.569 145.092 398.702 146.279C395.835 147.467 393.231 149.207 391.036 151.401C388.842 153.595 387.102 156.2 385.914 159.067C384.727 161.934 384.116 165.006 384.116 168.11ZM396.711 168.11C396.71 165.925 397.357 163.79 398.569 161.973C399.782 160.157 401.506 158.741 403.523 157.904C405.541 157.068 407.761 156.849 409.904 157.274C412.046 157.7 414.014 158.752 415.558 160.296C417.102 161.841 418.154 163.808 418.58 165.951C419.006 168.093 418.786 170.313 417.95 172.331C417.113 174.348 415.697 176.072 413.881 177.285C412.064 178.498 409.929 179.144 407.745 179.143C404.818 179.143 402.012 177.98 399.943 175.911C397.874 173.842 396.711 171.036 396.711 168.11Z" fill="#EBEBEB"/>
<path d="M403.201 145.46H412.288L411.788 139.025H403.708L403.201 145.46Z" fill="#EBEBEB"/>
<path d="M420.498 148.524L426.926 154.952L431.12 150.045L425.405 144.33L420.498 148.524Z" fill="#EBEBEB"/>
<path d="M430.565 162.916V172.003L437 171.503V163.423L430.565 162.916Z" fill="#EBEBEB"/>
<path d="M427.502 180.213L421.08 186.641L425.98 190.835L431.696 185.12L427.502 180.213Z" fill="#EBEBEB"/>
<path d="M413.111 190.279H404.024L404.524 196.714H412.603L413.111 190.279Z" fill="#EBEBEB"/>
<path d="M395.814 187.216L389.386 180.795L385.192 185.695L390.907 191.41L395.814 187.216Z" fill="#EBEBEB"/>
<path d="M385.747 172.825V163.738L379.312 164.239V172.318L385.747 172.825Z" fill="#EBEBEB"/>
<path d="M388.81 155.528L395.231 149.1L390.331 144.906L384.616 150.622L388.81 155.528Z" fill="#EBEBEB"/>
<path d="M4.80396 54.256C4.80396 58.9294 6.18977 63.4978 8.78616 67.3836C11.3826 71.2693 15.0729 74.2979 19.3905 76.0864C23.7082 77.8748 28.4592 78.3427 33.0428 77.431C37.6264 76.5192 41.8367 74.2688 45.1412 70.9642C48.4458 67.6596 50.6963 63.4494 51.608 58.8658C52.5197 54.2822 52.0518 49.5312 50.2634 45.2135C48.4749 40.8959 45.4463 37.2056 41.5606 34.6092C37.6748 32.0128 33.1064 30.627 28.433 30.627C22.1662 30.627 16.156 33.1164 11.7247 37.5477C7.29344 41.979 4.80396 47.9892 4.80396 54.256ZM17.3997 54.256C17.3984 52.0719 18.0449 49.9364 19.2574 48.1198C20.47 46.3032 22.1942 44.8871 24.2118 44.0507C26.2294 43.2142 28.4498 42.995 30.592 43.4208C32.7342 43.8466 34.702 44.8982 36.2464 46.4426C37.7908 47.987 38.8424 49.9548 39.2682 52.097C39.6939 54.2392 39.4747 56.4596 38.6383 58.4772C37.8018 60.4948 36.3857 62.2189 34.5691 63.4315C32.7525 64.6441 30.6171 65.2906 28.433 65.2893C25.5068 65.2893 22.7004 64.1268 20.6313 62.0577C18.5621 59.9885 17.3997 57.1822 17.3997 54.256Z" fill="#EBEBEB"/>
<path d="M23.8894 31.6058H32.9764L32.4762 25.1777H24.3965L23.8894 31.6058Z" fill="#EBEBEB"/>
<path d="M41.1863 34.6706L47.6144 41.0987L51.8084 36.1919L46.093 30.4766L41.1863 34.6706Z" fill="#EBEBEB"/>
<path d="M51.2533 49.0605V58.1476L57.6882 57.6473V49.5677L51.2533 49.0605Z" fill="#EBEBEB"/>
<path d="M48.1901 66.3574L41.7689 72.7855L46.6687 76.9795L52.3841 71.2641L48.1901 66.3574Z" fill="#EBEBEB"/>
<path d="M33.7988 76.4238H24.7118L25.2121 82.8588H33.2917L33.7988 76.4238Z" fill="#EBEBEB"/>
<path d="M16.5019 73.3607L10.0738 66.9395L5.87982 71.8393L11.5952 77.5547L16.5019 73.3607Z" fill="#EBEBEB"/>
<path d="M6.43494 58.9698V49.8828L0 50.3831V58.4627L6.43494 58.9698Z" fill="#EBEBEB"/>
<path d="M9.49821 41.6729L15.9194 35.2448L11.0196 31.0508L5.3042 36.7662L9.49821 41.6729Z" fill="#EBEBEB"/>
<path d="M253.676 81.8803C249.564 81.9488 239.114 82.1201 235.112 82.1612L228.855 82.1955H228.546V81.8803V74.2118V73.8691H228.889L241.3 73.9171C244.39 73.9171 250.62 74.0062 253.711 74.0542H253.875V74.2118L253.717 81.8803H253.676ZM253.676 81.8803L253.519 74.2118L253.676 74.3694C250.579 74.4174 244.363 74.4791 241.266 74.5065L228.855 74.5544L229.197 74.2118V81.8803L228.882 81.565H235.05C238.984 81.613 249.647 81.7843 253.717 81.8529L253.676 81.8803Z" fill="#EBEBEB"/>
<path d="M239.833 91.5619C235.721 91.6304 225.264 91.8018 221.269 91.8429L215.012 91.8771H214.697V91.5619V83.8934V83.5508H215.039L227.45 83.5988C230.534 83.5988 236.77 83.6878 239.861 83.7358H240.018V83.8934L239.833 91.5619ZM239.833 91.5619L239.669 83.8934L239.833 84.051C236.736 84.099 230.513 84.1607 227.423 84.1881L215.012 84.2361L215.354 83.8934L215.32 91.5619L215.012 91.2467H221.179C225.113 91.2946 235.783 91.466 239.854 91.5345L239.833 91.5619Z" fill="#EBEBEB"/>
<path d="M267.519 83.8809H242.698V91.5493H267.519V83.8809Z" fill="#EBEBEB"/>
<path d="M162.991 147.072C158.879 147.14 148.422 147.312 144.426 147.353L138.17 147.387H137.854V147.072V139.403V139.061H138.197L150.608 139.109C153.698 139.109 159.928 139.198 163.018 139.246H163.176V139.403L162.991 147.072ZM162.991 147.072L162.827 139.403L162.991 139.561C159.893 139.609 153.671 139.67 150.58 139.698L138.17 139.746L138.512 139.403L138.444 147.072L138.135 146.756L144.303 146.791C148.237 146.832 158.907 147.003 162.977 147.072H162.991Z" fill="#EBEBEB"/>
<path d="M420.937 19.3393C416.825 19.4078 406.374 19.5792 402.372 19.6271H396.115H395.807V19.3119V11.6434V11.3008H396.149L408.56 11.3488C411.651 11.3488 417.88 11.4447 420.971 11.4858H421.135V11.6434L420.978 19.3119L420.937 19.3393ZM420.937 19.3393L420.779 11.6708L420.937 11.8353C417.839 11.8764 411.623 11.945 408.526 11.9655L396.115 12.0135L396.458 11.6708V19.3393L396.143 19.0309H402.31C406.244 19.072 416.907 19.2434 420.978 19.3119L420.937 19.3393Z" fill="#EBEBEB"/>
<path d="M434.78 21.3398H409.958V29.0083H434.78V21.3398Z" fill="#EBEBEB"/>
<path d="M27.0418 19.3452C22.9301 19.4206 12.4724 19.5919 8.47715 19.633H2.22039H1.90515V19.3178V11.6561V11.3066H2.2478L14.6311 11.382C17.7149 11.382 23.9511 11.478 27.0418 11.5191H27.1994V11.6767L27.0418 19.3383V19.3452ZM27.0418 19.3452L26.8774 11.6836L27.0418 11.8412C23.9443 11.8823 17.7218 11.9508 14.6311 11.9782L2.22039 12.0193L2.56304 11.6836V19.3452L2.25465 19.0368H8.42232C12.3559 19.0779 23.026 19.2561 27.0967 19.3178L27.0418 19.3452Z" fill="#EBEBEB"/>
<path d="M16.0633 249.27C20.1751 249.201 30.7561 249.03 34.7308 248.982H40.8985L40.5832 249.297V241.629L40.9259 241.971L28.5152 241.924C25.4245 241.924 19.1951 241.828 16.1044 241.786L16.2621 241.629L16.1044 249.297L16.0633 249.27ZM16.0633 249.27L15.9057 241.601V241.444H16.0702C19.1677 241.41 25.3834 241.334 28.4809 241.314L40.8916 241.266H41.2343V241.608V249.277V249.592H40.9259H34.6691C30.715 249.551 20.1888 249.38 16.1044 249.311L16.0633 249.27Z" fill="#EBEBEB"/>
<path d="M2.21353 258.932H27.035V251.263H2.21353V258.932Z" fill="#EBEBEB"/>
<path d="M409.958 249.278C414.07 249.209 424.651 249.038 428.632 248.99H434.8L434.492 249.305V241.637L434.834 241.979L422.424 241.931C419.333 241.931 413.104 241.835 410.013 241.794L410.177 241.637L410.013 249.305L409.958 249.278ZM409.958 249.278L409.801 241.643V241.486H409.958C413.056 241.445 419.278 241.369 422.369 241.349L434.78 241.301H435.122V241.643V249.312V249.627H434.807L428.55 249.593C424.596 249.552 414.07 249.38 409.986 249.312L409.958 249.278Z" fill="#EBEBEB"/>
<path d="M420.457 259.166H343.615V295.192H420.457V259.166Z" fill="#EBEBEB"/>
<path opacity="0.1" d="M420.464 259.166H395.019V295.192H420.464V259.166Z" fill="#020100"/>
<path opacity="0.1" d="M420.457 259.166H343.615V267.081L420.457 263.127V259.166Z" fill="#020100"/>
<path d="M423.787 252.334H340.277V261.366H423.787V252.334Z" fill="#EBEBEB"/>
<path opacity="0.1" d="M423.794 252.334H396.143V261.366H423.794V252.334Z" fill="#020100"/>
<path d="M378.222 266.238H360.411V271.762H378.222V266.238Z" fill="#A6A6A6"/>
<path d="M386.219 211.201H336.803V247.022H386.219V211.201Z" fill="#EBEBEB"/>
<path d="M354.264 207.488H336.803V211.203H355.265L354.264 207.488Z" fill="#EBEBEB"/>
<g opacity="0.3">
<path d="M386.219 211.203H336.803V247.024H386.219V211.203Z" fill="black"/>
<path d="M354.264 207.488H336.803V211.203H355.265L354.264 207.488Z" fill="black"/>
</g>
<path d="M352.798 208.941H338.516V211.1H352.798V208.941Z" fill="white"/>
<path d="M386.219 247.022H336.803L336.446 213.422H385.863L386.219 247.022Z" fill="#EBEBEB"/>
<path d="M353.867 210.016H336.405L336.446 213.422H354.908L353.867 210.016Z" fill="#EBEBEB"/>
<g opacity="0.1">
<path d="M386.22 247.024H336.803L336.446 213.424H385.863L386.22 247.024Z" fill="black"/>
<path d="M353.867 210.018H336.405L336.446 213.424H354.908L353.867 210.018Z" fill="black"/>
</g>
<path d="M379.853 213.902H330.436V249.723H379.853V213.902Z" fill="#EBEBEB"/>
<path d="M347.898 210.188H330.436V213.902H348.898L347.898 210.188Z" fill="#EBEBEB"/>
<g opacity="0.2">
<path d="M379.853 213.902H330.436V249.723H379.853V213.902Z" fill="white"/>
<path d="M347.898 210.188H330.436V213.902H348.898L347.898 210.188Z" fill="white"/>
</g>
<path d="M346.431 211.641H332.15V213.799H346.431V211.641Z" fill="white"/>
<path d="M379.853 249.723H330.436L330.073 216.123H379.49L379.853 249.723Z" fill="#EBEBEB"/>
<path d="M347.5 212.717H330.039L330.073 216.123H348.535L347.5 212.717Z" fill="#EBEBEB"/>
<g opacity="0.4">
<path d="M379.853 249.723H330.436L330.073 216.123H379.49L379.853 249.723Z" fill="white"/>
<path d="M347.5 212.717H330.039L330.073 216.123H348.535L347.5 212.717Z" fill="white"/>
</g>
<path d="M405.202 216.314H328.36V252.34H405.202V216.314Z" fill="#DBDBDB"/>
<path d="M405.209 216.314H379.764V252.34H405.209V216.314Z" fill="#C7C7C7"/>
<path opacity="0.1" d="M405.209 216.314H328.36V224.23L405.209 220.269V216.314Z" fill="#020100"/>
<path d="M362.967 223.379H345.156V228.902H362.967V223.379Z" fill="#A6A6A6"/>
<path d="M419.704 213.732L337.864 197.865L336.148 206.717L417.988 222.584L419.704 213.732Z" fill="#DBDBDB"/>
<path d="M421.631 212.691L394.465 207.533L392.78 216.407L419.946 221.565L421.631 212.691Z" fill="#C7C7C7"/>
<path d="M230.822 32.4219L209.077 74.9034L202.957 65.4326L130.446 112.314L116.768 91.1587L189.272 44.2844L183.152 34.8204L230.822 32.4219Z" fill="#EBEBEB"/>
<path d="M89.4175 108.846L103.089 130.001L101.253 131.186L87.5672 110.031L89.4175 108.846Z" fill="#EBEBEB"/>
<path d="M98.998 102.65L112.676 123.799L106.413 127.856L92.7412 106.7L98.998 102.65Z" fill="#EBEBEB"/>
<path d="M112.491 93.9277L126.17 115.076L116.5 121.333L102.822 100.171L112.491 93.9277Z" fill="#EBEBEB"/>
<path d="M112.19 155.191L99.6284 179.711L96.0992 174.25L54.2618 201.298L46.3672 189.093L88.2114 162.038L84.6821 156.576L112.19 155.191Z" fill="#DBDBDB"/>
<path d="M43.9001 190.691L51.7879 202.897L46.2096 206.508L38.3149 194.296L43.9001 190.691Z" fill="#DBDBDB"/>
<path d="M35.5205 195.955L31.9055 198.279L39.7581 210.495L43.3732 208.171L35.5205 195.955Z" fill="#DBDBDB"/>
<path d="M30.578 199.299L38.4726 211.511L37.4104 212.196L29.5157 199.984L30.578 199.299Z" fill="#DBDBDB"/>
<path d="M90.8772 239.395C85.9773 232.09 79.2271 222.05 74.5466 214.724L77.2466 212.963C81.8861 220.2 88.6363 230.719 93.077 237.956L93.1113 238.01H93.0564L90.8772 239.34V239.395ZM90.8772 239.395L92.9879 237.956V238.045C88.3142 231.192 81.4681 220.693 76.8766 213.641L77.3563 213.744L75.2044 215.115L75.3072 214.656C79.8713 221.714 86.3816 232.131 90.8977 239.388L90.8772 239.395Z" fill="#EBEBEB"/>
<path d="M241.266 124.766C240.909 125.211 216.334 174.039 216.04 174.429L215.868 174.162L208.755 163.197C210.126 163.026 124.607 217.733 124.943 217.767L124.676 217.939L124.498 217.671L108.626 193.11L108.448 192.836L108.722 192.665C108.791 192.891 193.439 137.574 192.877 138.643L185.791 127.678L185.619 127.411C185.887 127.411 240.964 124.827 241.266 124.8V124.766ZM241.266 124.766C241.266 124.588 185.147 128.192 186.092 127.445L193.213 138.41C193.685 138.759 109.147 192.925 109.079 193.186L109.175 192.74L125.039 217.294L124.594 217.199C124.875 217.253 208.947 162.375 209.084 162.957L216.177 173.956C215.06 174.642 241.533 124.69 241.266 124.752V124.766Z" fill="#EBEBEB"/>
<path d="M88.2936 206.268C90.9937 210.318 97.8193 220.549 100.41 224.483L104.432 230.65L104.604 230.911L104.336 231.089L97.0791 235.804L96.7982 235.989L96.6063 235.701C93.9885 231.589 87.2931 221.2 84.7918 217.232L80.8924 211.065L80.8033 210.934L80.9335 210.852L88.2936 206.268ZM88.2936 206.268L81.1049 211.099L81.1528 210.88L85.1824 216.979C87.7523 220.837 94.571 231.308 97.1819 235.331L96.7091 235.228L103.994 230.561L103.905 230.993L99.9437 224.88C97.456 220.967 90.7881 210.331 88.2457 206.268H88.2936Z" fill="#EBEBEB"/>
<path d="M103.925 196.14C108.722 203.363 115.418 213.354 120.057 220.536L120.222 220.79L119.968 220.954L108.763 228.239L108.476 228.431L108.291 228.136L100.389 215.801C97.7096 211.689 95.0918 207.468 92.4397 203.301L103.925 196.105V196.14ZM103.925 196.14C101.184 198.004 95.5852 201.711 92.8166 203.561L92.8714 203.294C95.5441 207.365 98.251 211.422 100.896 215.513L108.853 227.766L108.38 227.663L119.625 220.44L119.536 220.865C114.986 213.786 108.462 203.383 103.912 196.14H103.925Z" fill="#EBEBEB"/>
<path d="M2.14502 295.191C140.753 294.773 296.247 294.766 434.855 295.191C296.247 295.616 140.753 295.609 2.14502 295.191Z" fill="#263238"/>
<path d="M36.2797 150.13C36.2797 150.13 17.8383 147.553 22.1488 125.295C22.1488 125.295 42.7489 129.941 36.2797 150.13Z" fill="#FFC727"/>
<path opacity="0.1" d="M36.2797 150.13C36.2797 150.13 17.8383 147.553 22.1488 125.295C22.1488 125.295 42.7489 129.941 36.2797 150.13Z" fill="black"/>
<path d="M35.3476 145.485C34.9844 144.361 34.5595 143.257 34.0935 142.168C34.0935 142.024 34.0935 141.887 34.0456 141.75C34.0456 141.441 33.9907 141.133 33.9702 140.831C33.9154 140.146 33.8742 139.502 33.8331 138.837C33.7577 137.508 33.6687 136.171 33.6481 134.842C33.6481 134.773 33.5384 134.773 33.5384 134.842C33.5384 136.171 33.5384 137.501 33.5384 138.837C33.5384 139.522 33.6001 140.167 33.6481 140.831C33.6481 140.975 33.6481 141.126 33.6481 141.27C32.6159 139.054 31.3793 136.938 29.9543 134.952C29.3423 134.069 28.6858 133.218 27.9875 132.402C27.2474 131.559 26.473 130.758 25.7329 129.928C25.6849 129.873 25.6027 129.928 25.6507 130.011C26.9765 131.476 28.1669 133.059 29.2074 134.739C29.7693 135.589 30.2993 136.457 30.7973 137.343L30.6259 137.275C30.4066 137.186 30.1942 137.09 29.9406 137.007L28.4398 136.439C27.4462 136.069 26.4593 135.712 25.4725 135.335C25.4108 135.335 25.3697 135.418 25.4314 135.438C26.4114 135.829 27.3845 136.24 28.3508 136.658L29.7762 137.275L30.4615 137.569C30.6184 137.648 30.784 137.708 30.9549 137.748C31.3249 138.433 31.695 139.118 32.0308 139.803C32.8918 141.525 33.6448 143.299 34.2854 145.114C34.3334 145.238 34.3745 145.368 34.4156 145.491C33.9318 145.212 33.4279 144.969 32.908 144.765L30.996 143.895C29.7076 143.305 28.4193 142.702 27.1789 141.996C27.1172 141.962 27.0624 142.065 27.1309 142.099C28.3919 142.784 29.6391 143.525 30.9069 144.217C31.5374 144.559 32.1747 144.902 32.8257 145.21C33.3645 145.528 33.9494 145.759 34.5595 145.896C35.1755 147.582 35.5806 149.339 35.7657 151.125C35.9713 153.64 35.9507 156.182 36.0055 158.704C36.0055 158.745 36.074 158.745 36.074 158.704C36.2591 156.415 36.3619 154.106 36.3756 151.803C36.3735 149.655 36.0264 147.522 35.3476 145.485Z" fill="#263238"/>
<path d="M32.5105 132.395C32.3326 133.696 32.2706 135.01 32.3255 136.322H32.3803C32.4557 135.02 32.4694 133.718 32.6202 132.423C32.627 132.354 32.5174 132.327 32.5105 132.395Z" fill="#263238"/>
<path d="M27.2337 133.512C26.4098 133.196 25.6162 132.807 24.8626 132.347C24.8078 132.306 24.7461 132.409 24.8078 132.443C25.5461 132.942 26.3544 133.327 27.2063 133.588C27.2156 133.589 27.2249 133.587 27.2329 133.582C27.2409 133.577 27.2469 133.57 27.2501 133.561C27.2533 133.552 27.2534 133.543 27.2504 133.534C27.2475 133.525 27.2416 133.518 27.2337 133.512Z" fill="#263238"/>
<path d="M36.8964 185.451C36.8964 183.395 36.8416 181.373 36.821 179.338C36.7799 172.567 36.7251 165.803 36.6017 159.04C36.5058 153.667 36.3801 148.294 36.2248 142.921C36.2229 142.908 36.2182 142.895 36.2112 142.883C36.2041 142.871 36.1948 142.861 36.1837 142.853C36.1837 141.386 36.1837 139.92 36.1837 138.453C36.1837 138.453 36.1426 138.398 36.0946 138.398C36.0466 138.398 36.0055 138.398 36.0055 138.46C36.0055 139.927 36.0055 141.395 36.0055 142.867C35.9939 142.872 35.9841 142.881 35.9769 142.892C35.9697 142.903 35.9654 142.915 35.9644 142.928C35.6971 152.522 35.4504 162.048 35.3956 171.615C35.3956 173.554 35.3956 175.5 35.3956 177.447C35.3316 183.674 35.3088 189.908 35.3271 196.148C35.3271 197.142 35.3271 198.129 35.3271 199.123C35.3271 204.831 35.3819 210.533 35.3888 216.255C35.3888 216.563 35.7246 216.714 36.0741 216.728C36.4236 216.742 36.9307 216.584 36.9307 216.234C36.9307 209.943 36.9718 203.652 36.9718 197.361C36.8964 193.4 36.8964 189.432 36.8964 185.451Z" fill="#263238"/>
<path d="M29.1663 179.283C29.1663 179.283 20.2985 172.711 11.8831 177.152C3.46764 181.593 2.14502 198.711 2.14502 198.711C2.14502 198.711 14.4804 200.472 22.2859 193.064C29.7899 185.924 29.1663 179.283 29.1663 179.283Z" fill="#FFC727"/>
<path d="M31.5854 179.68C29.9549 179.031 28.1892 178.796 26.4456 178.995C26.088 178.931 25.726 178.895 25.3629 178.886L24.1088 178.79L21.5252 178.611C19.7777 178.481 18.0233 178.372 16.2758 178.193C16.2637 178.198 16.2532 178.205 16.2458 178.216C16.2384 178.226 16.2344 178.239 16.2344 178.252C16.2344 178.264 16.2384 178.277 16.2458 178.287C16.2532 178.298 16.2637 178.306 16.2758 178.31C18.0028 178.529 19.7023 178.776 21.4567 178.947C22.3476 179.036 23.2384 179.132 24.1362 179.194L24.7804 179.256C24.5199 179.317 24.2527 179.379 23.9991 179.454C22.6056 179.858 21.2576 180.405 19.9764 181.085C19.2911 181.209 18.6058 181.407 17.9205 181.572C16.8241 181.825 15.7276 182.113 14.638 182.394C12.4861 182.963 10.3549 183.594 8.21674 184.217C8.14821 184.217 8.21673 184.34 8.251 184.327C10.3891 183.799 12.5341 183.319 14.6722 182.812L17.7903 182.065L18.6058 181.873C16.2239 183.351 14.0951 185.202 12.3011 187.356C10.572 189.476 9.10197 191.795 7.92206 194.264C7.92206 194.332 7.98373 194.394 8.018 194.325C9.4744 191.787 11.2551 189.448 13.3153 187.369C13.2811 187.486 13.24 187.602 13.2057 187.719C13.0344 188.247 12.8768 188.767 12.7123 189.288C12.3833 190.33 12.027 191.378 11.7392 192.427C11.7392 192.495 11.8214 192.516 11.8488 192.427C12.2189 191.413 12.5752 190.371 12.9316 189.377L13.4593 187.877L13.7265 187.102L13.8088 186.862C14.7991 185.903 15.8497 185.008 16.9543 184.183C18.4152 183.106 19.9949 182.2 21.6623 181.483C21.6623 181.64 21.6074 181.791 21.5732 181.935C21.4841 182.339 21.395 182.744 21.3128 183.148C21.1414 183.991 20.977 184.834 20.8125 185.677C20.4767 187.39 20.2711 189.103 19.949 190.844C19.949 190.912 20.045 190.94 20.0587 190.844C20.4561 189.117 20.9701 187.417 21.3539 185.691C21.5458 184.827 21.7376 183.957 21.9227 183.093L22.1694 181.873C22.2105 181.647 22.2653 181.421 22.2927 181.188L22.7724 180.989C25.1024 180.133 27.6723 179.502 30.1531 179.982C31.3261 180.2 32.427 180.705 33.3583 181.451C34.2895 182.197 35.0223 183.161 35.4915 184.258C35.5669 184.45 35.8753 184.334 35.8273 184.135C35.3134 182.086 33.5316 180.503 31.5854 179.68Z" fill="#263238"/>
<path d="M18.0096 186.993C17.7538 188.117 17.5048 189.241 17.2627 190.365C16.9798 191.441 16.7714 192.536 16.639 193.641C16.639 193.689 16.7007 193.689 16.7144 193.641C17.0375 192.56 17.2893 191.458 17.4682 190.344C17.6875 189.234 17.9 188.124 18.1193 187.014C18.133 186.952 18.0233 186.925 18.0096 186.993Z" fill="#263238"/>
<path d="M9.4297 189.85C8.30581 190.419 7.20934 191.07 6.00321 191.543C5.99347 191.543 5.98411 191.547 5.97607 191.552C5.96804 191.558 5.96164 191.565 5.95753 191.574C5.95343 191.583 5.95176 191.593 5.95271 191.603C5.95366 191.612 5.9572 191.622 5.96294 191.629C5.96869 191.637 5.97644 191.644 5.98539 191.647C5.99435 191.651 6.00418 191.653 6.01388 191.652C6.02358 191.65 6.03278 191.647 6.04055 191.641C6.04831 191.635 6.05435 191.627 6.05804 191.618C7.23015 191.104 8.37394 190.527 9.48452 189.891C9.48452 189.891 9.48452 189.836 9.4297 189.85Z" fill="#263238"/>
<path d="M31.1605 167.208C31.1605 167.208 20.3259 167.893 15.2821 160.752C10.2384 153.611 11.3691 143.4 11.3691 143.4C11.3691 143.4 22.7587 144.771 27.2748 149.918C31.7909 155.064 31.1605 167.208 31.1605 167.208Z" fill="#FFC727"/>
<path d="M36.2522 177.913C35.8753 176.755 35.4093 175.61 34.9707 174.486C34.5321 173.362 34.1004 172.314 33.6001 171.245C32.6315 169.06 31.5472 166.928 30.3518 164.858C29.5911 163.542 28.7688 162.26 27.9259 161C27.9259 160.808 27.871 160.616 27.8368 160.424C27.7888 160.088 27.7408 159.739 27.686 159.417C27.5832 158.731 27.4599 158.046 27.3434 157.361C27.0966 155.867 26.7883 154.38 26.5484 152.879C26.5484 152.81 26.4251 152.81 26.4388 152.879C26.6581 154.352 26.802 155.839 27.0144 157.32C27.1104 158.046 27.2063 158.779 27.3159 159.506L27.4393 160.287C25.7884 157.869 23.9991 155.549 22.0803 153.338C21.8199 153.036 21.5526 152.742 21.2922 152.447C21.2922 152.365 21.2237 152.283 21.1894 152.2C21.1072 151.995 21.0318 151.789 20.9564 151.584C20.7919 151.152 20.6412 150.72 20.4835 150.288C20.182 149.439 19.9079 148.582 19.6749 147.712C19.6749 147.643 19.5515 147.671 19.5721 147.712C19.7845 148.596 20.0175 149.487 20.2574 150.364C20.3876 150.789 20.5247 151.207 20.6754 151.625C20.6754 151.693 20.7234 151.762 20.7508 151.837C19.3802 150.323 17.9205 148.87 16.4608 147.431C16.4499 147.421 16.4355 147.415 16.4207 147.416C16.406 147.417 16.392 147.423 16.382 147.434C16.372 147.445 16.3668 147.459 16.3674 147.474C16.3681 147.489 16.3746 147.503 16.3855 147.513C19.1867 150.443 21.7531 153.589 24.0608 156.922C23.7981 156.837 23.5303 156.768 23.259 156.716C22.4229 156.552 21.5869 156.435 20.7439 156.333C18.9759 156.107 17.2147 155.88 15.4535 155.606C15.3849 155.606 15.3575 155.702 15.4535 155.716C17.1324 156.045 18.7977 156.401 20.4698 156.806C21.2579 156.984 22.046 157.141 22.8341 157.299C23.4805 157.437 24.117 157.618 24.7392 157.84C24.9174 158.087 25.0956 158.334 25.2669 158.587C26.0618 159.745 26.8294 160.931 27.5764 162.117L26.4662 161.904C25.6301 161.74 24.7941 161.589 23.9511 161.452C22.2996 161.178 20.6412 160.89 19.0101 160.52C18.9956 160.52 18.9817 160.526 18.9714 160.536C18.9611 160.546 18.9553 160.56 18.9553 160.575C18.9553 160.589 18.9611 160.603 18.9714 160.613C18.9817 160.624 18.9956 160.629 19.0101 160.629C20.6686 161.02 22.3064 161.472 23.9511 161.911C24.7461 162.123 25.5479 162.315 26.3497 162.493L27.5558 162.754C27.7151 162.796 27.878 162.824 28.0424 162.836C29.6277 165.408 31.1102 168.033 32.4899 170.71C33.093 171.889 33.6755 173.079 34.2374 174.281C34.8199 175.514 35.3134 176.768 35.8479 178.015C35.9438 178.283 36.3344 178.18 36.2522 177.913Z" fill="#263238"/>
<path d="M25.1573 152.995C24.9517 151.96 24.7324 150.939 24.472 149.897C24.472 149.828 24.3486 149.863 24.3692 149.897C24.5748 150.911 24.7667 151.953 24.9517 152.953C25.1058 153.975 25.3116 154.988 25.5685 155.989C25.5019 154.983 25.3645 153.982 25.1573 152.995Z" fill="#263238"/>
<path d="M18.832 152.693C18.3317 152.439 17.7972 152.24 17.2764 152.007L16.454 151.685L16.036 151.521C15.8756 151.473 15.7215 151.406 15.5768 151.322C15.4946 151.26 15.4398 151.404 15.522 151.418C15.6847 151.459 15.8413 151.521 15.988 151.603L16.3992 151.788L17.1873 152.137C17.7089 152.381 18.2443 152.594 18.7909 152.775C18.8525 152.823 18.8937 152.72 18.832 152.693Z" fill="#263238"/>
<path d="M42.2554 158.725C42.2554 158.725 48.8206 146.437 58.8259 144.539C68.8312 142.641 74.9098 152.906 74.9098 152.906C74.9098 152.906 67.632 162.206 58.4627 163.83C49.2934 165.454 42.2554 158.725 42.2554 158.725Z" fill="#FFC727"/>
<path d="M65.487 150.027C62.8873 149.682 60.2514 149.714 57.6609 150.123L58.0995 149.883L60.3199 148.745C61.837 147.902 63.397 147.138 64.9936 146.456C65.0007 146.465 65.0104 146.472 65.0213 146.475C65.0322 146.478 65.0438 146.478 65.0545 146.474C65.0652 146.47 65.0745 146.463 65.0811 146.454C65.0877 146.444 65.0912 146.433 65.0912 146.422C65.0912 146.411 65.0877 146.4 65.0811 146.39C65.0745 146.381 65.0652 146.374 65.0545 146.37C65.0438 146.367 65.0322 146.366 65.0213 146.369C65.0104 146.372 65.0007 146.379 64.9936 146.388C63.4311 147.114 61.8138 147.758 60.2445 148.444C59.4632 148.8 58.6889 149.177 57.9282 149.581C57.4348 149.842 56.8934 150.088 56.4068 150.404C54.2157 150.843 52.0869 151.55 50.0678 152.507L51.3151 151.137C52.2471 150.116 53.1585 149.047 54.1796 148.122C54.2344 148.074 54.1796 147.998 54.0974 148.046C53.0557 148.992 51.9524 149.869 50.9381 150.856C50.4447 151.336 49.9787 151.829 49.5196 152.343C49.2934 152.597 49.0604 152.857 48.8343 153.131C45.4071 154.966 42.4292 157.538 40.115 160.661C37.8007 163.785 36.2077 167.382 35.4504 171.195C35.4504 171.264 35.5395 171.305 35.5601 171.237C36.964 166.565 39.4801 162.304 42.8928 158.819C46.5629 155.072 51.1855 152.397 56.2629 151.082C59.276 150.315 62.392 150.033 65.4938 150.246C65.5229 150.245 65.5505 150.233 65.5704 150.211C65.5903 150.19 65.601 150.162 65.6001 150.133C65.5992 150.104 65.5867 150.076 65.5655 150.056C65.5443 150.036 65.5161 150.026 65.487 150.027Z" fill="#263238"/>
<path opacity="0.1" d="M74.8824 152.912C74.8824 152.912 67.6046 162.205 58.4353 163.829C51.4522 165.063 45.7025 161.424 43.3588 159.628L42.8517 158.799C42.8517 158.799 47.5802 154.818 56.5165 152.522C65.4528 150.226 74.8824 152.912 74.8824 152.912Z" fill="black"/>
<path d="M59.6894 145.661C58.9227 146.106 58.1814 146.594 57.469 147.121C56.7767 147.648 56.1343 148.238 55.5502 148.882C55.5393 148.893 55.5331 148.908 55.5331 148.923C55.5331 148.939 55.5393 148.954 55.5502 148.965C55.5611 148.975 55.5759 148.982 55.5913 148.982C55.6067 148.982 55.6215 148.975 55.6324 148.965C56.3177 148.389 56.9619 147.813 57.6472 147.272C58.3161 146.724 59.0188 146.218 59.751 145.757C59.7638 145.749 59.7727 145.736 59.7759 145.721C59.7791 145.707 59.7764 145.691 59.7682 145.679C59.76 145.666 59.7471 145.657 59.7323 145.654C59.7175 145.65 59.7021 145.653 59.6894 145.661Z" fill="#263238"/>
<path d="M65.1649 147.759C64.7949 147.917 64.4179 148.047 64.0479 148.205L62.9377 148.664C62.8555 148.698 62.8966 148.828 62.9788 148.794L64.089 148.342C64.4591 148.191 64.8223 148.019 65.1992 147.869C65.2609 147.814 65.2335 147.704 65.1649 147.759Z" fill="#263238"/>
<path d="M40.9465 174.107C40.9465 174.107 42.7009 186.265 51.8427 190.513C60.9846 194.762 72.1207 190.513 72.1207 190.513C72.1207 190.513 67.7348 164.205 40.9465 174.107Z" fill="#FFC727"/>
<path d="M65.8228 182.606C64.9799 182.51 64.1438 182.366 63.3078 182.215L62.0811 181.982C61.8755 181.941 61.6562 181.893 61.4369 181.859C61.1971 181.626 60.9504 181.393 60.6968 181.174C58.966 179.65 57.0961 178.291 55.1116 177.117C54.0291 176.479 52.9102 175.904 51.7605 175.397H51.9319L54.9403 175.527C56.9482 175.623 58.9493 175.664 60.9572 175.794C61.0326 175.794 61.0257 175.685 60.9572 175.685C58.9424 175.547 56.9414 175.328 54.9335 175.15L52.0072 174.89L50.4996 174.759L50.1158 174.718C49.595 174.526 49.0673 174.341 48.5396 174.177C46.0472 173.322 43.3667 173.175 40.7958 173.752C38.5 174.341 36.2043 175.842 35.6081 178.268C35.6081 178.35 35.7177 178.412 35.752 178.33C36.6086 176.274 38.8564 175.28 40.8849 174.862C42.2409 174.602 43.6313 174.574 44.9967 174.78C45.0944 175.405 45.2504 176.02 45.4627 176.617C45.7162 177.473 45.9629 178.33 46.2233 179.18C46.7442 180.886 47.313 182.606 47.8201 184.292C47.8261 184.304 47.836 184.313 47.8481 184.318C47.8603 184.322 47.8737 184.323 47.8862 184.319C47.8986 184.315 47.9091 184.306 47.9158 184.295C47.9226 184.284 47.9251 184.271 47.9229 184.258C47.498 182.551 47.1416 180.831 46.7305 179.125C46.5317 178.282 46.3193 177.446 46.1068 176.61C45.9931 176.022 45.8396 175.443 45.6477 174.876C46.4476 175.02 47.2392 175.208 48.0188 175.438C49.4205 175.857 50.7939 176.365 52.1306 176.959C52.2608 177.823 52.4595 178.679 52.6583 179.536C52.905 180.612 53.1859 181.674 53.5217 182.723C53.5256 182.733 53.5327 182.742 53.5418 182.748C53.551 182.755 53.562 182.758 53.5731 182.758C53.5843 182.758 53.5953 182.755 53.6044 182.748C53.6136 182.742 53.6206 182.733 53.6245 182.723L53.5834 182.524C53.3778 181.53 53.1585 180.536 52.9529 179.543C52.7816 178.741 52.624 177.939 52.4527 177.137C53.5903 177.651 54.7005 178.206 55.7832 178.83C55.7832 179.077 55.8655 179.33 55.8997 179.556C55.9683 179.974 56.0436 180.386 56.119 180.804C56.2903 181.743 56.4754 182.675 56.7015 183.6C57.1149 185.394 57.6391 187.161 58.2709 188.89C58.2641 188.9 58.2605 188.912 58.2605 188.924C58.2605 188.937 58.2641 188.949 58.2709 188.959L58.3188 189.02C58.3599 189.062 58.4216 189.02 58.4148 188.959C57.9899 187.156 57.5102 185.375 57.1127 183.565C56.914 182.661 56.7152 181.763 56.5371 180.824C56.4411 180.372 56.3589 179.92 56.2766 179.454C56.2766 179.323 56.2287 179.186 56.2081 179.049C57.4408 179.77 58.6306 180.562 59.7717 181.42C61.7541 182.9 63.59 184.566 65.254 186.396C65.3157 186.464 65.4459 186.396 65.3842 186.286C64.7055 185.362 63.9781 184.474 63.205 183.627C62.7458 183.134 62.273 182.661 61.7864 182.195H61.9372C62.3621 182.27 62.7938 182.332 63.2255 182.394C64.0685 182.503 64.9182 182.585 65.7611 182.681C65.8708 182.709 65.8982 182.62 65.8228 182.606Z" fill="#263238"/>
<path d="M59.4015 186.732C59.4015 186.622 59.3673 186.519 59.3536 186.416C59.3399 186.313 59.2576 186.149 59.2371 186.019C59.0452 185.21 58.8876 184.388 58.7437 183.565C58.7437 183.511 58.6409 183.524 58.6409 183.565C58.6941 184.653 58.9256 185.725 59.3262 186.738C59.3262 186.738 59.3947 186.738 59.3879 186.738L59.4015 186.732Z" fill="#263238"/>
<path d="M51.7536 186.534C51.7519 186.521 51.7454 186.508 51.7353 186.499C51.7252 186.491 51.7122 186.486 51.6988 186.486C51.4384 185.41 51.1917 184.334 50.9724 183.244C50.8559 182.676 50.7394 182.107 50.6297 181.538C50.5681 181.23 50.5132 180.921 50.4584 180.613C50.4345 180.341 50.3674 180.075 50.2597 179.825C50.2558 179.814 50.2488 179.805 50.2396 179.799C50.2304 179.792 50.2195 179.789 50.2083 179.789C50.1971 179.789 50.1862 179.792 50.177 179.799C50.1678 179.805 50.1608 179.814 50.1569 179.825C50.1491 180.377 50.2277 180.928 50.3899 181.456C50.4995 182.052 50.616 182.641 50.7463 183.231C51.0135 184.43 51.3082 185.629 51.6508 186.808C51.6508 186.87 51.7742 186.856 51.7673 186.808C51.7605 186.76 51.7605 186.623 51.7536 186.534Z" fill="#263238"/>
<path d="M64.9936 179.111C63.3215 178.878 61.6562 178.638 59.9841 178.426C59.9087 178.426 59.8813 178.529 59.9841 178.535C61.6493 178.782 63.3215 178.988 64.9936 179.221C65.0347 179.228 65.0621 179.118 64.9936 179.111Z" fill="#263238"/>
<path d="M36.266 145.6C36.266 145.6 30.674 121.067 57.0373 111.137C57.0373 111.137 64.3426 143.435 36.266 145.6Z" fill="#FFC727"/>
<path d="M41.9539 131.689L42.2417 131.511L43.7288 130.682L46.7852 128.969C48.8 127.845 50.7874 126.673 52.809 125.542C52.8775 125.542 52.809 125.412 52.7542 125.446C50.6983 126.549 48.6424 127.577 46.5865 128.66L43.5643 130.257L42.3308 130.942C43.208 129.277 44.1537 127.639 45.1816 126.063C46.5522 123.966 48.0667 121.951 49.6429 120.005C49.7114 119.916 49.5949 119.799 49.5127 119.882C47.2003 122.13 45.1538 124.636 43.4136 127.351C43.4136 127.269 43.4136 127.18 43.4136 127.098C43.4136 126.488 43.4547 125.878 43.4684 125.268C43.4684 124.069 43.4273 122.869 43.4684 121.67C43.4684 121.602 43.3587 121.602 43.3587 121.67C43.3039 122.849 43.1669 124.021 43.0983 125.199C43.0983 125.789 43.0367 126.378 43.023 126.961C43.023 127.283 42.9818 127.646 43.023 127.995C42.4747 128.859 41.9539 129.734 41.4605 130.62C40.5796 132.219 39.7947 133.869 39.1099 135.561C39.1099 134.951 39.0414 134.341 39.0071 133.731C38.9317 132.361 38.7673 131.052 38.7056 129.702C38.7056 129.633 38.5959 129.633 38.5959 129.702C38.5959 131.072 38.5959 132.388 38.5959 133.731C38.5959 134.417 38.6371 135.102 38.685 135.746L38.7261 136.5C37.8883 138.69 37.2238 140.942 36.7388 143.236C36.2832 145.69 35.9539 148.164 35.752 150.651C35.752 150.651 35.7519 150.651 35.7862 150.651C36.0518 148.412 36.5103 146.199 37.1568 144.038C37.4789 142.88 37.8421 141.729 38.1985 140.612C39.2949 140.091 40.3434 139.447 41.4057 138.857C42.4679 138.268 43.6123 137.658 44.7088 137.048C46.9086 135.842 49.1084 134.615 51.3767 133.553C51.4384 133.553 51.3767 133.423 51.315 133.457C49.0193 134.499 46.703 135.513 44.4621 136.616C43.3382 137.185 42.228 137.788 41.1315 138.405C40.2201 138.919 39.2812 139.433 38.3903 140.029C38.6439 139.269 38.9112 138.508 39.2058 137.754C40.0185 135.687 40.9357 133.663 41.9539 131.689Z" fill="#263238"/>
<path d="M39.7335 126.077C39.7335 126.002 39.617 126.009 39.6239 126.077C39.713 127.448 39.7609 128.88 39.9117 130.271C39.9117 130.288 39.9182 130.303 39.9298 130.315C39.9413 130.327 39.957 130.333 39.9734 130.333C39.9897 130.333 40.0054 130.327 40.017 130.315C40.0286 130.303 40.0351 130.288 40.0351 130.271C39.9871 128.867 39.8363 127.475 39.7335 126.077Z" fill="#263238"/>
<path d="M52.3704 130.764C50.7257 131.449 49.0604 132.059 47.4157 132.745C47.3678 132.745 47.4157 132.841 47.4157 132.82C49.0879 132.196 50.7257 131.518 52.3841 130.867C52.4732 130.846 52.439 130.737 52.3704 130.764Z" fill="#263238"/>
<path d="M54.8786 119.442C53.2675 120.187 51.7022 121.027 50.1912 121.957C50.1803 121.969 50.1736 121.985 50.1721 122.001C50.1706 122.017 50.1743 122.033 50.1828 122.047C50.1913 122.061 50.204 122.072 50.2191 122.078C50.2342 122.084 50.2509 122.085 50.2666 122.081C51.7948 121.183 53.3504 120.326 54.9403 119.538C55.002 119.511 54.9403 119.415 54.8786 119.442Z" fill="#263238"/>
<path d="M54.4811 198.662H16.4609V238.738H54.4811V198.662Z" fill="#455A64"/>
<path d="M15.7893 212.842H13.843V295.194H15.7893V212.842Z" fill="#263238"/>
<path d="M56.8934 212.842H54.9471V295.194H56.8934V212.842Z" fill="#263238"/>
<path d="M37.3761 212.842H35.4299V295.194H37.3761V212.842Z" fill="#263238"/>
<path d="M55.9202 236.17H14.8162V241.721H55.9202V236.17Z" fill="#263238"/>
<path d="M50.2734 294.905C73.1212 291.095 132.619 278.664 149.511 270.378C243.191 225.231 287.941 68.9013 288.496 67.373H363.92C363.358 68.867 354.47 94.456 316.847 165.891C293.588 208.339 259.926 236.634 220.22 259.88C152.026 299.771 50.2734 294.905 50.2734 294.905Z" fill="#FFC727"/>
<g opacity="0.1">
<path d="M50.2733 294.903C73.1211 291.093 132.619 278.662 149.511 270.377C243.191 225.229 287.941 68.8993 288.496 67.3711H363.92C363.358 68.865 354.47 94.454 316.847 165.889C293.588 208.337 259.926 236.632 220.22 259.878C152.026 299.769 50.2733 294.903 50.2733 294.903Z" fill="black"/>
</g>
<path d="M270.973 59.5391L288.496 67.372C288.016 68.6467 264.668 188.944 193.24 246.687C143.117 287.201 111.039 296.713 2.14496 295.096V273.934C63.5955 273.934 107.434 271.947 147.428 251.079C237.688 203.993 270.836 59.8886 270.973 59.5391Z" fill="#FFC727"/>
<path d="M270.973 59.5391H352.263L363.92 67.372H288.496L270.973 59.5391Z" fill="#FFC727"/>
<path d="M332.89 9.16992L385.747 76.0069L261.173 75.6711L332.89 9.16992Z" fill="#FFC727"/>
<g opacity="0.1">
<path d="M332.89 9.16992L385.747 76.0069L261.173 75.6711L332.89 9.16992Z" fill="black"/>
</g>
<path d="M261.173 75.6712L243.054 67.3723L314.77 0.871094L332.89 9.17004L261.173 75.6712Z" fill="#FFC727"/>
<path d="M394.854 59.4685C394.537 62.5114 393.381 65.4062 391.513 67.8298C389.646 70.2533 387.142 72.1101 384.281 73.1928C381.42 74.2755 378.314 74.5415 375.31 73.961C372.306 73.3805 369.523 71.9764 367.271 69.9056L358.986 71.1185L363.097 63.9778C362.151 61.6536 361.747 59.1442 361.916 56.6404C362.084 54.1366 362.822 51.7042 364.072 49.5281C365.322 47.3521 367.051 45.4896 369.129 44.0823C371.207 42.675 373.578 41.76 376.063 41.4066C378.547 41.0533 381.08 41.2711 383.467 42.0433C385.855 42.8156 388.035 44.122 389.842 45.8633C391.649 47.6047 393.036 49.7351 393.896 52.0925C394.756 54.45 395.067 56.9726 394.806 59.4685H394.854Z" fill="white"/>
<path d="M394.854 59.4696C394.534 62.5119 393.382 65.4071 391.524 67.8371C391.057 68.4388 390.556 69.0131 390.023 69.5572C389.475 70.085 388.893 70.5771 388.282 71.0306C385.83 72.881 382.912 74.0149 379.853 74.3063C379.092 74.377 378.327 74.3931 377.564 74.3542C376.796 74.3324 376.031 74.2522 375.275 74.1144C372.234 73.5542 369.408 72.159 367.113 70.0849L367.305 70.1465L359.082 71.4075L358.486 71.5034L358.787 70.9757L362.899 63.8212V64.1022C361.693 61.1482 361.359 57.9108 361.936 54.7729C362.513 51.6351 363.977 48.7281 366.154 46.396C368.331 44.0638 371.131 42.4041 374.221 41.6131C377.312 40.8222 380.565 40.9331 383.595 41.9329C385.981 42.7411 388.157 44.0735 389.961 45.8322C391.754 47.5881 393.125 49.7274 393.973 52.0893C394.82 54.4513 395.122 56.9745 394.854 59.4696ZM394.854 59.4696C395.119 56.9819 394.808 54.4668 393.947 52.1181C393.085 49.7695 391.695 47.6502 389.885 45.9238C388.074 44.1974 385.891 42.91 383.505 42.161C381.118 41.412 378.59 41.2214 376.118 41.6039C373.669 41.9679 371.336 42.8893 369.299 44.2971C367.282 45.714 365.596 47.5518 364.359 49.6836C363.142 51.8231 362.427 54.2108 362.268 56.6667C362.111 59.1217 362.507 61.5806 363.426 63.8624L363.488 64.0063L363.413 64.1433L359.253 71.2704L358.958 70.8318L367.209 69.6737H367.326L367.408 69.7491C369.612 71.814 372.349 73.2236 375.31 73.8197C376.048 73.9692 376.798 74.0608 377.55 74.0938C378.303 74.1452 379.059 74.1452 379.812 74.0938C381.319 73.9788 382.802 73.6536 384.218 73.1276C385.643 72.6083 386.985 71.8834 388.2 70.9757C388.809 70.5276 389.391 70.0424 389.941 69.5229C390.477 68.9868 390.978 68.4169 391.441 67.8165C393.328 65.4025 394.509 62.5135 394.854 59.4696Z" fill="#263238"/>
<path d="M376.098 67.1793L369.046 60.0454L371.41 57.7017L375.529 61.8751L384.088 48.457L386.898 50.2525L376.098 67.1793Z" fill="#FFC727"/>
<path d="M282.733 295.399C284.282 295.899 328.408 295.33 330.073 294.241C330.71 293.836 331.005 287.388 331.135 279.616V279.37C331.135 277.766 327.023 250.861 327.023 250.861L297.508 251.156L302.627 279.424V279.904C302.627 279.904 285.837 287.682 284.124 289.073C282.411 290.465 281.184 294.905 282.733 295.399Z" fill="#AD6359"/>
<path d="M331.135 279.369V279.616C331.005 287.394 330.71 293.829 330.073 294.24C328.408 295.323 284.282 295.898 282.74 295.398C281.198 294.898 282.493 290.457 284.179 289.073C285.865 287.688 302.682 279.91 302.682 279.91V279.417L301.907 275.154H330.656C330.95 277.416 331.142 279.019 331.135 279.369Z" fill="#EBEBEB"/>
<path d="M282.733 295.398C283.528 295.652 295.514 295.624 307.232 295.398C309.59 295.35 311.933 295.295 314.167 295.234C322.521 295.008 329.429 294.658 330.066 294.24C330.704 293.822 330.991 287.586 331.122 279.945C331.122 279.835 331.122 279.732 331.122 279.623C331.122 279.513 331.122 279.451 331.122 279.369H331.087L302.648 279.424V279.911C302.648 279.911 285.858 287.682 284.145 289.073C282.431 290.464 281.184 294.905 282.733 295.398Z" fill="#FFC727"/>
<path d="M283.213 293.685C290.648 293.404 320.664 293 328.038 293.267C328.1 293.267 328.1 293.315 328.038 293.315C320.671 293.754 290.655 293.932 283.213 293.802C283.055 293.802 283.055 293.685 283.213 293.685Z" fill="#263238"/>
<path d="M299.495 279.546C302.415 278.957 305.999 279.361 308.267 281.417C308.356 281.499 308.267 281.622 308.144 281.595C305.335 280.724 302.439 280.161 299.509 279.916C299.485 279.917 299.46 279.913 299.438 279.905C299.415 279.896 299.394 279.883 299.376 279.867C299.358 279.85 299.344 279.83 299.334 279.808C299.324 279.786 299.318 279.762 299.317 279.738C299.316 279.714 299.32 279.689 299.328 279.666C299.337 279.644 299.35 279.623 299.366 279.605C299.383 279.587 299.403 279.573 299.425 279.563C299.447 279.553 299.471 279.547 299.495 279.546Z" fill="#263238"/>
<path d="M297.398 280.843C300.317 280.26 303.908 280.664 306.17 282.72C306.259 282.802 306.17 282.926 306.047 282.892C303.238 282.028 300.346 281.465 297.419 281.213C297.37 281.215 297.321 281.198 297.285 281.166C297.248 281.133 297.226 281.087 297.223 281.038C297.221 280.989 297.238 280.941 297.27 280.904C297.303 280.867 297.349 280.845 297.398 280.843Z" fill="#263238"/>
<path d="M295.301 282.143C298.221 281.561 301.811 281.965 304.073 284.021C304.162 284.096 304.073 284.22 303.95 284.192C301.141 283.329 298.249 282.766 295.322 282.513C295.273 282.516 295.224 282.499 295.188 282.466C295.151 282.434 295.129 282.388 295.126 282.339C295.124 282.29 295.141 282.241 295.173 282.205C295.206 282.168 295.252 282.146 295.301 282.143Z" fill="#263238"/>
<path d="M299.495 279.333H332.067C332.067 279.333 322.028 213.545 322.281 212.256C322.405 211.571 367.901 143.227 367.901 143.227H334C334 143.227 295.76 192.122 291.457 204.437C288.332 213.415 299.495 279.333 299.495 279.333Z" fill="#263238"/>
<path d="M318.204 209.743C318.677 207.838 319.766 206.152 320.767 204.486C323.035 200.738 362.124 146.565 362.673 145.674C362.714 145.606 362.823 145.64 362.789 145.674C361.24 148.929 322.617 201.725 320.219 206.748C319.307 208.667 318.519 210.442 318.56 212.594C318.676 214.754 318.904 216.906 319.245 219.042C319.529 221.203 319.814 223.36 320.102 225.511C320.687 229.829 321.292 234.139 321.918 238.443C323.184 247.091 324.497 255.738 325.858 264.381C326.03 265.457 326.208 266.533 326.386 267.602C326.386 267.705 326.249 267.746 326.229 267.643C324.68 259.002 323.172 250.36 321.863 241.678C320.554 232.995 319.369 224.298 318.217 215.588C317.847 213.658 317.843 211.675 318.204 209.743Z" fill="#455A64"/>
<path d="M328.223 271.618C323.426 271.618 324.796 271.529 320.075 271.584C317.745 271.584 302.456 271.79 300.29 272.27C300.242 272.27 300.242 272.372 300.29 272.379C302.476 272.749 317.758 272.263 320.088 272.18C324.837 272.023 323.474 272.009 328.223 271.79C328.312 271.797 328.312 271.618 328.223 271.618Z" fill="#37474F"/>
<path d="M434.252 294.974C432.71 295.501 388.584 295.734 386.898 294.679C386.254 294.281 385.843 287.826 385.575 280.075C385.575 279.993 385.575 279.911 385.575 279.829C385.514 278.232 374.508 251.608 374.508 251.608L403.352 251.375L414.036 279.335V279.822C414.036 279.822 430.969 287.285 432.703 288.641C434.437 289.998 435.787 294.453 434.252 294.974Z" fill="#AD6359"/>
<path d="M434.252 294.972C432.71 295.5 388.584 295.733 386.898 294.677C386.254 294.28 385.843 287.825 385.575 280.074C385.575 279.992 385.575 279.909 385.575 279.827C385.575 279.745 383.444 274.489 383.437 274.256L411.911 273.947L414.043 279.361V279.848C414.043 279.848 430.976 287.311 432.71 288.667C434.444 290.024 435.787 294.451 434.252 294.972Z" fill="#EBEBEB"/>
<path d="M434.252 294.972C432.71 295.5 388.584 295.733 386.898 294.678C386.254 294.28 385.843 287.825 385.575 280.074C385.575 279.992 385.575 279.91 385.575 279.827L414.043 279.361V279.848C414.043 279.848 430.976 287.311 432.71 288.668C434.444 290.025 435.787 294.452 434.252 294.972Z" fill="#FFC727"/>
<path d="M433.745 293.267C426.303 293.123 396.28 293.267 388.92 293.672C388.858 293.672 388.858 293.713 388.92 293.72C396.286 294.021 426.309 293.651 433.745 293.384C433.902 293.384 433.902 293.267 433.745 293.267Z" fill="#263238"/>
<path d="M417.236 279.424C414.31 278.896 410.732 279.362 408.505 281.48C408.416 281.562 408.505 281.685 408.629 281.658C411.421 280.736 414.304 280.118 417.229 279.814C417.281 279.815 417.331 279.796 417.368 279.76C417.405 279.724 417.427 279.674 417.428 279.623C417.429 279.571 417.409 279.521 417.373 279.483C417.337 279.446 417.288 279.425 417.236 279.424Z" fill="#263238"/>
<path d="M419.326 280.705C416.393 280.17 412.816 280.636 410.589 282.761C410.5 282.836 410.623 282.96 410.712 282.932C413.497 282.003 416.373 281.375 419.292 281.061C419.332 281.055 419.369 281.035 419.397 281.005C419.425 280.975 419.443 280.937 419.447 280.896C419.45 280.856 419.441 280.815 419.419 280.78C419.397 280.746 419.365 280.719 419.326 280.705Z" fill="#263238"/>
<path d="M421.444 281.952C418.511 281.418 414.933 281.89 412.706 284.008C412.624 284.09 412.74 284.207 412.836 284.179C415.626 283.259 418.508 282.644 421.43 282.343C421.482 282.345 421.532 282.326 421.57 282.29C421.608 282.255 421.63 282.206 421.632 282.154C421.634 282.102 421.615 282.052 421.58 282.014C421.544 281.976 421.496 281.954 421.444 281.952Z" fill="#263238"/>
<path d="M337.563 143.254C337.563 143.254 341.627 168.021 341.901 168.815C341.901 168.815 343.416 169.501 346.136 170.789L379.031 279.251L415.461 279.381L372.239 143.254H337.563Z" fill="#263238"/>
<path d="M340.579 168.049C343.74 169.368 346.78 170.959 349.666 172.805C349.685 172.82 349.699 172.842 349.704 172.867C349.71 172.891 349.707 172.917 349.695 172.94C349.684 172.962 349.666 172.98 349.643 172.99C349.62 173.001 349.594 173.003 349.57 172.997C346.507 171.503 343.402 170.07 340.394 168.412C340.353 168.384 340.323 168.342 340.311 168.293C340.299 168.245 340.304 168.194 340.327 168.149C340.35 168.105 340.388 168.07 340.434 168.052C340.48 168.033 340.532 168.032 340.579 168.049Z" fill="#455A64"/>
<path d="M341.751 153.863C342.251 156.824 342.525 159.832 342.861 162.82L343.107 164.972C343.125 165.633 343.301 166.279 343.621 166.857C344.266 167.857 345.417 168.323 346.465 168.782C346.582 168.83 346.534 169.022 346.404 168.981C345.278 168.711 344.239 168.162 343.382 167.384C342.429 166.377 342.456 164.849 342.312 163.554C341.896 160.344 341.667 157.113 341.627 153.877C341.613 153.802 341.737 153.781 341.751 153.863Z" fill="#455A64"/>
<path d="M345.355 154.768C345.458 156.906 345.698 159.044 345.876 161.168C345.965 162.224 346.04 163.272 346.102 164.328C346.164 165.383 346.294 166.493 346.26 167.569C346.26 167.638 346.143 167.658 346.13 167.569C345.951 166.555 345.931 165.513 345.842 164.471C345.753 163.43 345.684 162.313 345.622 161.23C345.499 159.078 345.444 156.906 345.246 154.754C345.28 154.699 345.348 154.706 345.355 154.768Z" fill="#455A64"/>
<path d="M350.008 175.341C352.53 181.509 379.476 269.638 379.771 270.406C379.771 270.467 379.695 270.502 379.668 270.447C376.063 263.395 353.065 183.873 350.762 177.678L349.899 175.376C349.885 175.321 349.981 175.28 350.008 175.341Z" fill="#455A64"/>
<path d="M378.77 273.167C379.826 273.023 380.915 273.023 381.977 272.948C383.04 272.873 384.109 272.859 385.178 272.831C387.316 272.784 389.454 272.756 391.592 272.729C395.832 272.683 400.076 272.66 404.325 272.66C406.744 272.66 409.17 272.79 411.589 272.845C411.598 272.842 411.608 272.841 411.618 272.842C411.628 272.844 411.637 272.847 411.645 272.853C411.653 272.859 411.66 272.866 411.664 272.875C411.669 272.884 411.671 272.894 411.671 272.903C411.671 272.913 411.669 272.923 411.664 272.932C411.66 272.94 411.653 272.948 411.645 272.954C411.637 272.959 411.628 272.963 411.618 272.964C411.608 272.966 411.598 272.965 411.589 272.962C409.458 273.051 407.32 273.181 405.182 273.263C403.043 273.345 400.912 273.352 398.774 273.387C394.464 273.448 390.16 273.517 385.856 273.503C384.657 273.503 383.465 273.503 382.265 273.462C381.066 273.421 379.908 273.462 378.757 273.291C378.681 273.263 378.709 273.167 378.77 273.167Z" fill="#455A64"/>
<path d="M349.693 106.729C342.902 101.013 333.047 87.6501 331.307 82.5584C329.059 76.0001 325.996 53.7759 328.394 51.4117C329.724 50.1096 345.294 53.4675 346.054 55.3315C346.815 57.1956 345.643 76.4113 345.773 77.8915C345.903 79.3718 351.941 93.7561 355.443 100.664C359.527 108.744 354.12 110.457 349.693 106.729Z" fill="#AD6359"/>
<path d="M327.784 57.9838C327.235 56.7118 327.106 55.2981 327.414 53.9474C328.01 51.7956 329.696 49.5958 329.388 48.2389C328.901 46.0802 327.154 42.5441 328.017 41.852C329.778 40.4128 331.732 41.6601 333.767 45.717C334.295 46.7724 334.994 49.3834 335.741 49.5753C337.043 49.9179 337.796 47.6496 338.118 45.5389C338.756 41.4271 338.852 35.4102 341.634 34.8551C342.689 34.6495 343.053 36.1777 343.121 38.0349C343.443 35.3759 344.067 32.7581 345.225 32.4771C345.524 32.4071 345.839 32.4548 346.105 32.6104C346.37 32.766 346.565 33.0176 346.65 33.3132C346.727 33.0065 346.893 32.7295 347.127 32.5172C347.361 32.3049 347.653 32.1669 347.966 32.1207C349.035 32.0317 349.693 33.0322 350.091 34.3959C350.19 34.2976 350.312 34.2246 350.445 34.1829C350.579 34.1411 350.72 34.132 350.858 34.1561C353.695 34.4439 354.079 44.8399 352.873 47.3412C350.365 52.2614 347.192 56.8133 343.443 60.8689C339.523 61.7256 327.784 57.9838 327.784 57.9838Z" fill="#AD6359"/>
<path d="M341.682 49.9382C342.661 48.2858 343.26 46.4366 343.436 44.5243C343.621 42.2766 343.197 40.0288 343.155 37.7879C343.155 37.7262 343.059 37.733 343.059 37.7879C343.135 38.8843 343.059 39.9945 343.121 41.091C343.183 42.1875 343.203 43.2497 343.121 44.3256C343.05 46.28 342.535 48.1925 341.614 49.9176L341.682 49.9382Z" fill="#263238"/>
<path d="M345.239 50.9175C346.191 48.943 346.94 46.8764 347.473 44.7498C347.973 42.4198 347.644 40.0144 347.356 37.6707C347.187 36.2681 346.984 34.8656 346.746 33.463C346.746 33.4082 346.644 33.4082 346.65 33.463C346.966 35.8547 347.212 38.2601 347.384 40.6723C347.56 42.9098 347.29 45.1602 346.589 47.2923C346.191 48.5121 345.698 49.6977 345.218 50.8764C345.198 50.9243 345.232 50.9381 345.239 50.9175Z" fill="#263238"/>
<path d="M348.946 51.0422C349.899 49.1987 350.742 47.6157 351.002 45.5118C351.233 43.0956 351.162 40.66 350.79 38.2614C350.611 36.9662 350.392 35.6847 350.152 34.3963C350.152 34.3483 350.049 34.3963 350.056 34.3963C350.532 37.271 350.821 40.1737 350.92 43.0859C350.989 44.4705 350.843 45.8575 350.488 47.1977C350.066 48.5093 349.537 49.7837 348.905 51.0079C348.905 51.0079 348.939 51.049 348.946 51.0422Z" fill="#263238"/>
<path d="M346.966 61.8145L326.667 64.3912C326.667 64.3912 329.6 80.3654 331.026 84.1346C332.451 87.9037 344.944 104.824 350.097 108.12C355.251 111.416 359.006 108.805 356.265 101.267C353.524 93.7287 347.274 79.406 346.945 77.8573C346.616 76.3085 346.966 61.8145 346.966 61.8145Z" fill="#455A64"/>
<path d="M353.168 93.3656L339.797 97.1279C338.112 94.9829 336.494 92.7968 335.117 90.8232L350.351 86.5332C351.256 88.6987 352.229 91.063 353.168 93.3656Z" fill="#37474F"/>
<path d="M345.65 67.1256C342.909 67.5916 331.43 69.1061 328.929 69.2706C328.757 69.2706 328.709 69.1746 328.888 69.1404C334.425 68.1283 340.014 67.4191 345.629 67.016C345.698 67.0091 345.725 67.1119 345.65 67.1256Z" fill="#263238"/>
<path opacity="0.1" d="M350.077 108.099C346.39 105.755 338.941 96.4488 334.48 89.918L353.668 94.5917C354.668 97.0519 355.587 99.3888 356.286 101.273C359.034 108.764 355.244 111.375 350.077 108.099Z" fill="black"/>
<path d="M374.994 152.725C374.994 152.725 326.756 151.828 326.667 151.732C326.578 151.636 333.095 109.929 339.537 98.2786C341.956 93.8927 350.378 94.2148 353.538 96.675C361.439 102.822 375.124 149.923 374.994 152.725Z" fill="#455A64"/>
<path d="M373.377 145.702L327.757 145.017C328.017 143.502 328.319 141.789 328.655 139.932L371.917 140.555C372.472 142.46 372.966 144.187 373.377 145.702Z" fill="#37474F"/>
<path d="M374.234 148.964L327.222 148.278C327.305 147.785 327.394 147.237 327.496 146.654L373.816 147.34C373.966 147.915 374.11 148.443 374.234 148.964Z" fill="#37474F"/>
<path d="M341.346 101.917C343.457 102.603 349.686 99.1762 351.194 95.8799C351.297 95.6538 350.796 93.3786 350.317 90.5826C350.036 88.8899 349.755 86.9916 349.631 85.2441L338.865 88.7049C339.65 90.8449 340.17 93.0726 340.414 95.3386C340.439 95.5778 340.439 95.8189 340.414 96.0581C340.414 96.0924 340.414 96.1335 340.414 96.1815C340.257 97.5589 338.913 101.157 341.346 101.917Z" fill="#AD6359"/>
<path d="M349.076 85.3945C348.871 87.7862 347.706 95.5369 341.538 96.1331C341.16 96.1668 340.779 96.1668 340.4 96.1331C340.4 96.0852 340.4 96.044 340.4 96.0098C340.422 95.7704 340.422 95.5296 340.4 95.2902C340.161 93.0263 339.643 90.8006 338.859 88.6634L349.076 85.3945Z" fill="#263238"/>
<path d="M353.88 76.1638C354.011 80.2413 349.083 90.5551 345.732 92.2477C340.935 94.708 334.466 93.31 332.753 87.8413C331.087 82.5371 337.769 69.2081 341.353 67.8169C346.65 65.7747 353.702 70.1538 353.88 76.1638Z" fill="#AD6359"/>
<path opacity="0.3" d="M350.611 86.0817C349.069 88.9873 347.24 91.5161 345.739 92.2493C340.901 94.7096 334.466 93.3116 332.753 87.8429C332.156 85.9378 332.629 82.9978 333.657 79.9414C334.24 82.0864 337.193 81.3668 337.193 81.3668L338.441 81.8534C339.03 84.3958 342.922 85.2799 345.294 84.6563C347.014 84.2245 349.159 81.264 349.159 81.264L350.611 86.0817Z" fill="#263238"/>
<path d="M351.064 85.0997C349.344 85.0038 349.008 83.3659 348.85 82.2557C348.549 79.9394 351.208 76.2525 350.906 73.573C350.829 72.782 350.486 72.0403 349.934 71.4691C349.381 70.8978 348.651 70.5307 347.863 70.4275C346.445 70.3727 344.204 71.5034 343.279 71.1128C342.354 70.7222 342.826 68.5635 342.162 68.3716C340.709 67.8714 337.947 71.058 337.138 72.5725C337.138 72.5725 339.763 65.3152 346.966 67.0901C353.99 68.7828 354.504 74.0527 354.381 76.3074C354.189 80.5562 351.064 85.0997 351.064 85.0997Z" fill="#263238"/>
<path d="M341.243 79.7617C341.243 79.7617 341.243 79.8234 341.243 79.8508C340.88 80.5361 340.558 81.3653 341.086 81.9067C341.086 81.9067 341.086 81.9547 341.086 81.941C340.373 81.4544 340.784 80.3442 341.243 79.7617Z" fill="#263238"/>
<path d="M342.217 79.3441C343.368 79.8101 342.347 82.0853 341.285 81.6467C340.222 81.2081 341.25 78.9535 342.217 79.3441Z" fill="#263238"/>
<path d="M337.365 77.8574C337.365 77.8574 337.289 77.8574 337.282 77.8985C336.988 78.5838 336.529 79.3788 335.788 79.324C335.788 79.324 335.788 79.324 335.788 79.3651C336.604 79.6118 337.2 78.5907 337.365 77.8574Z" fill="#263238"/>
<path d="M337.056 76.8504C335.96 76.261 334.856 78.4882 335.871 79.0365C336.885 79.5847 337.981 77.3438 337.056 76.8504Z" fill="#263238"/>
<path d="M344.231 77.8566C343.894 77.8036 343.56 77.7327 343.231 77.6441C342.868 77.6223 342.523 77.48 342.251 77.2398C342.181 77.1471 342.143 77.034 342.143 76.9177C342.143 76.8015 342.181 76.6884 342.251 76.5956C342.419 76.4343 342.627 76.3206 342.853 76.2664C343.08 76.2122 343.316 76.2194 343.539 76.2873C344.011 76.3563 344.439 76.6011 344.738 76.9726C344.8 77.06 344.836 77.1633 344.841 77.2703C344.846 77.3773 344.82 77.4834 344.767 77.5763C344.714 77.6692 344.635 77.7449 344.54 77.7946C344.445 77.8442 344.338 77.8658 344.231 77.8566Z" fill="#263238"/>
<path d="M336.631 75.3485C336.94 75.4912 337.255 75.617 337.577 75.7254C337.892 75.9072 338.258 75.9795 338.619 75.931C338.729 75.8936 338.823 75.8209 338.888 75.7242C338.952 75.6276 338.983 75.5124 338.975 75.3965C338.926 75.1698 338.816 74.9605 338.658 74.7905C338.5 74.6205 338.3 74.4961 338.077 74.4302C337.65 74.2246 337.16 74.1879 336.707 74.3274C336.603 74.3622 336.512 74.4268 336.445 74.5132C336.378 74.5995 336.338 74.7038 336.329 74.8129C336.321 74.922 336.346 75.031 336.399 75.1263C336.453 75.2216 336.534 75.2989 336.631 75.3485Z" fill="#263238"/>
<path d="M339.797 83.5936C339.496 83.7885 339.159 83.92 338.805 83.9801C338.452 84.0402 338.09 84.0276 337.742 83.9431C337.434 83.8704 337.138 83.7527 336.864 83.5936C336.81 83.568 336.757 83.5382 336.707 83.5045L336.563 83.4086C336.529 83.3843 336.504 83.3499 336.492 83.3103C336.48 83.2708 336.481 83.2283 336.494 83.1893L336.535 83.1208V83.0591C336.768 82.5108 337.221 81.6885 337.221 81.6885C336.981 81.6885 335.768 81.6885 335.912 81.4212C337.065 79.0003 338.464 76.704 340.085 74.5683C340.097 74.5574 340.113 74.5507 340.129 74.5492C340.145 74.5476 340.161 74.5514 340.175 74.5599C340.189 74.5684 340.2 74.5811 340.206 74.5962C340.212 74.6113 340.213 74.6279 340.209 74.6436C339.146 76.8777 337.707 78.913 336.611 81.1403C337.044 81.1342 337.475 81.1896 337.892 81.3047C337.961 81.3595 337.056 82.8329 336.974 83.0934C337.398 83.3363 337.866 83.4913 338.351 83.549C338.837 83.6067 339.328 83.5659 339.797 83.4291C339.845 83.484 339.88 83.5525 339.797 83.5936Z" fill="#263238"/>
<path d="M337.296 83.4629C337.425 83.9758 337.682 84.4475 338.043 84.8335C338.246 85.0427 338.51 85.1819 338.797 85.231C339.421 85.3338 339.667 84.8266 339.763 84.3401C339.813 84.0805 339.829 83.8156 339.811 83.552C338.985 83.7906 338.104 83.7594 337.296 83.4629Z" fill="#263238"/>
<path d="M338.043 84.8543C338.246 85.0635 338.51 85.2027 338.797 85.2518C339.421 85.3546 339.667 84.8475 339.763 84.3609C339.463 84.2369 339.129 84.2182 338.817 84.3077C338.505 84.3973 338.232 84.59 338.043 84.8543Z" fill="#FF9CBD"/>
<path d="M340.236 83.5729C339.537 83.0905 339.058 82.3507 338.904 81.5157C338.75 80.6806 338.933 79.8185 339.414 79.1184C339.751 78.6219 340.221 78.2303 340.771 77.9883C341.32 77.7463 341.927 77.6637 342.521 77.75C343.115 77.8363 343.673 78.088 344.131 78.4762C344.588 78.8645 344.928 79.3737 345.11 79.9457C345.292 80.5177 345.31 81.1295 345.161 81.711C345.012 82.2926 344.703 82.8206 344.268 83.2346C343.833 83.6486 343.291 83.932 342.703 84.0524C342.114 84.1728 341.504 84.1254 340.942 83.9155C340.694 83.8287 340.457 83.7137 340.236 83.5729ZM339.763 79.3583C339.448 79.8082 339.273 80.3414 339.261 80.8906C339.249 81.4398 339.401 81.9802 339.696 82.4434C339.991 82.9066 340.417 83.2717 340.92 83.4925C341.423 83.7133 341.981 83.7799 342.521 83.6838C343.062 83.5877 343.562 83.3333 343.959 82.9528C344.355 82.5723 344.629 82.0828 344.747 81.5462C344.865 81.0097 344.821 80.4503 344.62 79.9388C344.42 79.4273 344.072 78.9868 343.621 78.673C343.434 78.5399 343.229 78.4338 343.011 78.3578C342.44 78.1505 341.816 78.1362 341.236 78.3169C340.656 78.4975 340.15 78.8633 339.797 79.3583H339.763Z" fill="#263238"/>
<path d="M334.219 80.4884C333.047 79.8922 332.746 78.1309 333.534 76.5548C333.884 75.8379 334.449 75.2484 335.151 74.8689C335.442 74.6856 335.775 74.5808 336.118 74.5647C336.462 74.5486 336.803 74.6218 337.11 74.7771C337.416 74.9325 337.677 75.1646 337.867 75.451C338.057 75.7373 338.17 76.068 338.194 76.4108C338.301 77.2025 338.157 78.0079 337.783 78.7134C337.029 80.2074 335.555 80.9955 334.404 80.5775L334.219 80.4884ZM335.35 75.2458C334.731 75.5872 334.234 76.1114 333.924 76.7466C333.239 78.1172 333.452 79.618 334.411 80.1114C335.37 80.6049 336.72 79.8853 337.413 78.5216C337.747 77.8915 337.876 77.1728 337.783 76.4657C337.755 76.194 337.663 75.9328 337.514 75.7039C337.365 75.475 337.163 75.2851 336.926 75.1499L336.775 75.0814C336.539 75.0081 336.291 74.9848 336.045 75.0132C335.8 75.0415 335.563 75.1207 335.35 75.2458Z" fill="#263238"/>
<path d="M339.338 79.4962L339.736 79.3317C339.489 78.7424 338.735 77.7487 337.68 78.1393L337.824 78.5436C338.77 78.1873 339.318 79.4414 339.338 79.4962Z" fill="#263238"/>
<path d="M351.687 86.6908H352.133C352.133 86.4921 352.092 84.724 351.31 84.1552C350.529 83.5865 345.218 81.5032 344.992 81.4141L344.834 81.8115C346.376 82.4214 350.495 84.0867 351.064 84.4979C351.633 84.9091 351.687 86.2043 351.687 86.6908Z" fill="#263238"/>
<path d="M348.439 82.9767C348.439 82.9767 351.907 80.2013 353.236 81.5376C354.566 82.8739 351.242 87.3969 349.179 87.5477C348.915 87.584 348.647 87.5666 348.39 87.4965C348.134 87.4265 347.894 87.3053 347.685 87.1401C347.476 86.9749 347.303 86.7693 347.176 86.5355C347.049 86.3016 346.97 86.0445 346.945 85.7796L348.439 82.9767Z" fill="#AD6359"/>
<path d="M352.249 82.8122C352.249 82.8122 352.249 82.8601 352.249 82.867C350.79 83.0109 349.748 84.0183 348.898 85.1285C349.013 85.0209 349.149 84.9393 349.298 84.8895C349.447 84.8396 349.605 84.8225 349.762 84.8394C349.918 84.8563 350.068 84.9069 350.203 84.9875C350.338 85.0682 350.454 85.177 350.543 85.3066C350.543 85.3066 350.543 85.382 350.488 85.3615C350.283 85.2283 350.042 85.1603 349.798 85.1664C349.553 85.1725 349.316 85.2524 349.117 85.3957C348.781 85.6466 348.473 85.9339 348.199 86.2523C348.103 86.3483 347.911 86.2523 347.994 86.1016C348.439 84.402 350.413 82.4558 352.249 82.8122Z" fill="#263238"/>
<path d="M343.08 109.888C333.712 108.106 315.435 100.129 312.584 98.0458C306.608 93.6873 294.397 72.2512 295.452 68.8042C296.021 66.9059 312.296 66.2138 313.955 67.5227C315.613 68.8316 322.864 84.9018 323.789 86.2107C324.714 87.5196 343.121 99.8276 347.171 103.343C354.463 109.703 349.179 111.053 343.08 109.888Z" fill="#AD6359"/>
<path d="M312.831 73.4513C312.831 73.4513 316.257 67.2836 318.313 63.1718C319.451 60.8692 321.055 56.7369 321.109 54.6604C321.205 51.556 319.602 38.508 316.429 38.8301C313.557 39.1179 316.353 50.1512 316.353 50.1512C316.353 50.1512 314.517 38.7684 311.118 39.7552C307.719 40.7421 312.55 52.7759 312.55 52.7759C312.55 52.7759 310.398 41.1258 307.068 42.6883C304.546 43.8739 308.301 55.0236 308.301 55.0236C308.301 55.0236 306.382 45.0183 303.73 46.1148C300.804 47.3346 303.627 57.8539 303.627 57.8539C297.371 61.8012 294.862 64.563 295.404 69.504C295.452 70.3195 312.831 73.4513 312.831 73.4513Z" fill="#AD6359"/>
<path d="M317.525 54.9821C317.354 53.6115 317.196 52.2409 316.909 50.9526C316.621 49.6642 316.285 48.3073 315.881 47.0121C315.377 45.3151 314.687 43.6788 313.825 42.1328C315.195 44.9836 316.271 49.719 316.566 51.0417C316.861 52.3643 317.21 53.6732 317.498 54.9958C317.484 55.0301 317.525 55.0164 317.525 54.9821Z" fill="#263238"/>
<path d="M312.756 56.1067C312.468 54.4003 312.242 52.6802 311.878 50.9944C311.515 49.3085 310.926 46.958 310.453 45.2995C310.412 45.1762 310.213 45.1762 310.247 45.2995C310.659 46.9717 311.145 49.4113 311.536 51.0766C311.926 52.7419 312.386 54.4208 312.714 56.1135C312.721 56.1478 312.762 56.1341 312.756 56.1067Z" fill="#263238"/>
<path d="M308.836 57.8055C308.46 55.1757 307.813 52.5919 306.903 50.0959C306.862 49.9725 306.8 50.0548 306.835 50.185C307.52 52.7411 308.089 54.7353 308.754 57.8192C308.754 57.8672 308.843 57.8603 308.836 57.8055Z" fill="#263238"/>
<path d="M296.829 77.0213L317.443 70.7988C317.443 70.7988 323.056 84.4225 323.947 85.6355C324.837 86.8485 344.821 99.8965 348.809 103.172C352.798 106.448 352.14 112.581 343.573 110.944C336.186 109.532 316.162 101.349 312.42 98.848C308.678 96.3467 296.829 77.0213 296.829 77.0213Z" fill="#455A64"/>
<path d="M339.29 96.4155L331.622 107.223C329.278 106.352 326.873 105.413 324.577 104.481L333.239 92.2832C335.206 93.6195 337.296 95.0449 339.29 96.4155Z" fill="#37474F"/>
<path d="M301.339 81.0642C304.162 80.3035 315.6 76.7606 318.019 75.8217C318.19 75.76 318.19 75.6367 318.019 75.6847C309.5 77.7405 304.059 80.0637 301.325 80.9546C301.243 80.9751 301.27 81.0848 301.339 81.0642Z" fill="#263238"/>
<path d="M332.664 107.592C336.037 108.347 339.325 109.442 342.477 110.861C339.104 110.106 335.816 109.011 332.664 107.592Z" fill="#263238"/>
<path d="M338.968 109.73C339.715 110.142 340.743 110.649 341.449 111.101C340.96 111.068 340.485 110.928 340.057 110.691C339.628 110.454 339.256 110.126 338.968 109.73Z" fill="#263238"/>
<path d="M348.809 103.171C346.886 102.209 345.136 100.936 343.628 99.4023C345.551 100.364 347.302 101.638 348.809 103.171Z" fill="#263238"/>
</svg>
