<svg width="67" height="68" viewBox="0 0 67 68" fill="none" xmlns="http://www.w3.org/2000/svg">
<rect y="0.871094" width="67" height="67" rx="15" fill="#FFC727" fill-opacity="0.2"/>
<path d="M34 42.7282C34.9946 42.7282 35.9484 42.4272 36.6516 41.8914C37.3549 41.3556 37.75 40.6289 37.75 39.8711C37.75 38.2854 36.0625 37.014 34 37.014C33.0054 37.014 32.0516 37.315 31.3484 37.8508C30.6451 38.3866 30.25 39.1133 30.25 39.8711C30.25 40.6289 30.6451 41.3556 31.3484 41.8914C32.0516 42.4272 33.0054 42.7282 34 42.7282ZM45.25 29.8711C46.2446 29.8711 47.1984 30.1721 47.9016 30.7079C48.6049 31.2438 49 31.9705 49 32.7282V47.014C49 47.7717 48.6049 48.4984 47.9016 49.0343C47.1984 49.5701 46.2446 49.8711 45.25 49.8711H22.75C21.7554 49.8711 20.8016 49.5701 20.0983 49.0343C19.3951 48.4984 19 47.7717 19 47.014V32.7282C19 31.1425 20.6875 29.8711 22.75 29.8711H24.625V27.014C24.625 25.1195 25.6127 23.3027 27.3709 21.9632C29.129 20.6236 31.5136 19.8711 34 19.8711C35.2311 19.8711 36.4502 20.0558 37.5877 20.4148C38.7251 20.7738 39.7586 21.2999 40.6291 21.9632C41.4997 22.6265 42.1902 23.4139 42.6614 24.2805C43.1325 25.1471 43.375 26.0759 43.375 27.014V29.8711H45.25ZM34 22.7282C32.5082 22.7282 31.0774 23.1798 30.0225 23.9835C28.9676 24.7872 28.375 25.8773 28.375 27.014V29.8711H39.625V27.014C39.625 25.8773 39.0324 24.7872 37.9775 23.9835C36.9226 23.1798 35.4918 22.7282 34 22.7282Z" fill="#FFC727"/>
</svg>
