<svg width="67" height="67" viewBox="0 0 67 67" fill="none" xmlns="http://www.w3.org/2000/svg">
<rect width="67" height="67" rx="15" fill="#DCC7FF"/>
<path d="M44.08 38.5595C44.605 37.1553 44.89 35.652 44.89 34C44.89 32.8106 44.725 31.6707 44.44 30.6134C43.465 30.8612 42.445 30.9934 41.38 30.9934C36.79 30.9934 32.725 28.4989 30.25 24.6498C28.915 28.2181 26.365 31.1256 23.155 32.7115C23.095 33.1245 23.095 33.5705 23.095 34C23.095 37.1852 24.2439 40.24 26.289 42.4923C28.3341 44.7446 31.1078 46.0099 34 46.0099C35.575 46.0099 37.09 45.63 38.455 44.9526C39.31 46.7533 39.7 47.6454 39.67 47.6454C37.21 48.554 35.305 49 34 49C30.37 49 26.905 47.4306 24.355 44.6057C22.795 42.8877 21.64 40.7896 20.995 38.5099H19V30.9934H20.635C21.895 24.1542 27.4 19 34 19C37.6 19 41.065 20.5694 43.63 23.3943C45.535 25.4758 46.81 28.1355 47.335 30.9934H49V38.4108V38.4438V38.5099H48.91L43.57 43.9119L35.62 42.9207V40.1619H42.865L44.08 38.5595ZM29.905 33.62C30.355 33.62 30.79 33.8183 31.105 34.1817C31.42 34.5286 31.6 35.0077 31.6 35.5033C31.6 35.9989 31.42 36.478 31.105 36.8249C30.79 37.1718 30.355 37.37 29.905 37.37C28.96 37.37 28.195 36.5441 28.195 35.5033C28.195 34.4626 28.96 33.62 29.905 33.62ZM38.08 33.62C39.025 33.62 39.775 34.4626 39.775 35.5033C39.775 36.5441 39.025 37.37 38.08 37.37C37.135 37.37 36.37 36.5441 36.37 35.5033C36.37 35.0038 36.5502 34.5248 36.8708 34.1716C37.1915 33.8185 37.6265 33.62 38.08 33.62Z" fill="#9A6AF2"/>
</svg>
