<svg width="67" height="68" viewBox="0 0 67 68" fill="none" xmlns="http://www.w3.org/2000/svg">
<rect y="0.871094" width="67" height="67" rx="15" fill="#CCF2E1"/>
<path d="M28 34.8711C30.9016 34.8711 33.25 31.9355 33.25 28.3086C33.25 24.6816 30.9016 21.7461 28 21.7461C25.0984 21.7461 22.75 24.6816 22.75 28.3086C22.75 31.9355 25.0984 34.8711 28 34.8711ZM31.6 36.7461H31.2109C30.2359 37.332 29.1531 37.6836 28 37.6836C26.8469 37.6836 25.7687 37.332 24.7891 36.7461H24.4C21.4187 36.7461 19 39.7695 19 43.4961V45.1836C19 46.7363 20.0078 47.9961 21.25 47.9961H34.75C35.9922 47.9961 37 46.7363 37 45.1836V43.4961C37 39.7695 34.5812 36.7461 31.6 36.7461ZM41.5 34.8711C43.9844 34.8711 46 32.3516 46 29.2461C46 26.1406 43.9844 23.6211 41.5 23.6211C39.0156 23.6211 37 26.1406 37 29.2461C37 32.3516 39.0156 34.8711 41.5 34.8711ZM43.75 36.7461H43.5719C42.9203 37.0273 42.2313 37.2148 41.5 37.2148C40.7687 37.2148 40.0797 37.0273 39.4281 36.7461H39.25C38.2938 36.7461 37.4125 37.0918 36.6391 37.6484C37.7828 39.1895 38.5 41.2344 38.5 43.4961V45.7461C38.5 45.875 38.4766 45.998 38.4719 46.1211H46.75C47.9922 46.1211 49 44.8613 49 43.3086C49 39.6816 46.6516 36.7461 43.75 36.7461Z" fill="#00C000"/>
</svg>
