<svg width="519" height="387" viewBox="0 0 519 387" fill="none" xmlns="http://www.w3.org/2000/svg">
<path d="M519 339.842H0V340.101H519V339.842Z" fill="#EBEBEB"/>
<path d="M466.996 356.543H432.618V356.802H466.996V356.543Z" fill="#EBEBEB"/>
<path d="M343.806 359.365H334.786V359.625H343.806V359.365Z" fill="#EBEBEB"/>
<path d="M431.58 346.91H411.66V347.17H431.58V346.91Z" fill="#EBEBEB"/>
<path d="M99.2846 348.654H54.4534V348.914H99.2846V348.654Z" fill="#EBEBEB"/>
<path d="M115.104 348.654H108.533V348.914H115.104V348.654Z" fill="#EBEBEB"/>
<path d="M233.706 353.035H136.466V353.295H233.706V353.035Z" fill="#EBEBEB"/>
<path d="M246.006 293.546H45.5785C44.0083 293.544 42.5034 292.918 41.3942 291.807C40.2849 290.696 39.6619 289.19 39.6619 287.619V5.87508C39.6755 4.31395 40.3046 2.82126 41.4124 1.72123C42.5202 0.6212 44.0173 0.00267429 45.5785 0H246.006C247.578 0 249.085 0.624448 250.197 1.73597C251.308 2.8475 251.933 4.35505 251.933 5.92698V287.619C251.933 289.191 251.308 290.699 250.197 291.81C249.085 292.922 247.578 293.546 246.006 293.546ZM45.5785 0.207601C44.0772 0.21035 42.6383 0.80867 41.5777 1.87123C40.517 2.93379 39.9214 4.37377 39.9214 5.87508V287.619C39.9214 289.121 40.517 290.561 41.5777 291.623C42.6383 292.686 44.0772 293.284 45.5785 293.287H246.006C247.508 293.284 248.948 292.686 250.01 291.624C251.073 290.562 251.671 289.122 251.673 287.619V5.87508C251.671 4.37281 251.073 2.93286 250.01 1.8706C248.948 0.808332 247.508 0.210345 246.006 0.207601H45.5785Z" fill="#EBEBEB"/>
<path d="M470.536 293.546H270.098C268.527 293.544 267.021 292.918 265.91 291.807C264.799 290.696 264.174 289.19 264.171 287.619V5.87508C264.187 4.31301 264.819 2.82033 265.928 1.72058C267.038 0.620837 268.536 0.00264512 270.098 0H470.536C472.095 0.00540227 473.589 0.625135 474.695 1.72487C475.801 2.82461 476.428 4.31575 476.442 5.87508V287.619C476.442 289.188 475.82 290.692 474.713 291.803C473.606 292.914 472.104 293.541 470.536 293.546ZM270.098 0.207601C268.596 0.210345 267.156 0.808332 266.093 1.8706C265.031 2.93286 264.433 4.37281 264.43 5.87508V287.619C264.433 289.122 265.031 290.562 266.093 291.624C267.156 292.686 268.596 293.284 270.098 293.287H470.536C472.038 293.284 473.478 292.686 474.54 291.624C475.602 290.562 476.2 289.122 476.203 287.619V5.87508C476.2 4.37281 475.602 2.93286 474.54 1.8706C473.478 0.808332 472.038 0.210345 470.536 0.207601H270.098Z" fill="#EBEBEB"/>
<path d="M296.64 3.4052C281.101 5.68296 266.692 12.8529 255.504 23.8746C243.515 35.7078 236.114 51.4542 224.104 63.3186C212.205 75.0979 197.331 83.4249 181.069 87.4106C167.689 90.6595 155.015 88.1371 141.791 92.1023C120.644 98.3825 101.761 110.638 87.4145 127.396C73.0676 144.153 63.8674 164.698 60.9202 186.56C58.4394 204.767 60.5362 223.928 69.2242 240.152C76.1157 252.918 86.7263 263.286 99.648 269.881C121.052 280.697 146.14 280.001 169.952 282.824C192.235 285.454 214.012 291.336 234.588 300.284C260.31 311.494 284.153 327.49 311.317 334.538C343.827 342.966 380.385 337.081 406.906 316.466C433.427 295.851 448.302 260.217 441.565 227.312C437.413 207.123 425.995 189.249 419.113 169.849C413.173 153.164 410.583 135.47 411.494 117.782C412.356 101.112 416.3 84.0786 411.941 67.9584C408.671 55.8035 400.886 45.2989 391.938 36.4447C368.428 13.1313 330.427 -1.90936 296.64 3.4052Z" fill="#E6E6E6"/>
<path d="M220.035 126.522H214.731L213.413 122.359L212.126 126.522H206.676L210.974 130.238L208.918 136.891L213.413 132.335L218.022 136.891L215.883 130.165L220.035 126.522Z" fill="white"/>
<path d="M316.497 296.319H311.182L309.864 292.156L308.577 296.319H303.127L307.425 300.035L305.369 306.688L309.864 302.131L314.473 306.688L312.345 299.962L316.497 296.319Z" fill="white"/>
<path d="M220.45 198.901H218.177L217.617 197.115L217.066 198.901H214.731L216.568 200.489L215.696 203.333L217.617 201.392L219.589 203.333L218.675 200.458L220.45 198.901Z" fill="white"/>
<path d="M362.989 183.031H360.715L360.155 181.246L359.605 183.031H357.269L359.107 184.62L358.235 187.464L360.155 185.512L362.127 187.464L361.214 184.588L362.989 183.031Z" fill="white"/>
<path d="M221.706 173.969H219.443L218.873 172.184L218.322 173.969H215.997L217.835 175.557L216.952 178.401L218.873 176.46L220.845 178.401L219.931 175.526L221.706 173.969Z" fill="white"/>
<path d="M142.123 181.66H139.85L139.289 179.885L138.739 181.66H136.404L138.241 183.248L137.369 186.102L139.289 184.151L141.261 186.102L140.348 183.227L142.123 181.66Z" fill="white"/>
<path d="M151.455 224.955H149.192L148.621 223.17L148.071 224.955H145.746L147.583 226.543L146.701 229.388L148.621 227.436L150.593 229.388L149.68 226.512L151.455 224.955Z" fill="white"/>
<path d="M352.785 138.334H350.512L349.951 136.549L349.401 138.334H347.066L348.903 139.922L348.031 142.766L349.951 140.825L351.924 142.766L351.01 139.891L352.785 138.334Z" fill="white"/>
<path d="M335.918 77.7038H334.278L333.873 76.4062L333.468 77.7038H331.786L333.115 78.8456L332.482 80.9008L333.873 79.4995L335.295 80.9008L334.63 78.8248L335.918 77.7038Z" fill="white"/>
<path d="M240.525 138.708H238.885L238.48 137.41L238.076 138.708H236.394L237.723 139.849L237.09 141.905L238.48 140.503L239.902 141.905L239.249 139.829L240.525 138.708Z" fill="white"/>
<path d="M178.972 151.973H177.332L176.917 150.686L176.522 151.973H174.841L176.169 153.114L175.536 155.18L176.917 153.768L178.339 155.18L177.685 153.104L178.972 151.973Z" fill="white"/>
<path d="M267.472 77.5488H265.832L265.427 76.2617L265.022 77.5488H263.341L264.669 78.6906L264.036 80.7459L265.427 79.3446L266.849 80.7459L266.185 78.6699L267.472 77.5488Z" fill="white"/>
<path d="M390.589 157.766H388.949L388.544 156.479L388.139 157.766H386.458L387.786 158.918L387.153 160.973L388.544 159.561L389.966 160.973L389.302 158.897L390.589 157.766Z" fill="white"/>
<path d="M347.865 106.904H346.235L345.82 105.617L345.426 106.904H343.734L345.073 108.056L344.429 110.112L345.82 108.7L347.242 110.112L346.588 108.036L347.865 106.904Z" fill="white"/>
<path d="M398.582 189.871H396.942L396.526 188.584L396.132 189.871H394.45L395.779 191.023L395.146 193.079L396.526 191.667L397.959 193.079L397.295 190.992L398.582 189.871Z" fill="white"/>
<path d="M360.767 254.32H359.127L358.712 253.033L358.318 254.32H356.636L357.965 255.462L357.331 257.517L358.712 256.116L360.134 257.517L359.48 255.441L360.767 254.32Z" fill="white"/>
<path d="M332.887 185.637H331.247L330.842 184.35L330.437 185.637H328.755L330.084 186.789L329.451 188.844L330.842 187.443L332.264 188.844L331.599 186.768L332.887 185.637Z" fill="white"/>
<path d="M239.612 195.662H237.972L237.557 194.375L237.162 195.662H235.481L236.809 196.814L236.176 198.87L237.557 197.468L238.989 198.87L238.325 196.794L239.612 195.662Z" fill="white"/>
<path d="M165.582 274.332H163.308L162.748 272.547L162.187 274.332H159.862L161.7 275.92L160.828 278.764L162.748 276.813L164.72 278.764L163.807 275.889L165.582 274.332Z" fill="white"/>
<path d="M355.64 325.558H353.377L352.806 323.783L352.256 325.558H349.92L351.768 327.146L350.886 329.99L352.806 328.049L354.778 329.99L353.865 327.115L355.64 325.558Z" fill="white"/>
<path d="M218.374 228.672H216.101L215.541 226.887L214.991 228.672H212.655L214.503 230.26L213.62 233.104L215.541 231.163L217.513 233.104L216.599 230.229L218.374 228.672Z" fill="white"/>
<path d="M387.129 281.27C391.949 279.274 394.238 273.749 392.241 268.929C390.245 264.109 384.72 261.821 379.9 263.817C375.08 265.813 372.791 271.339 374.788 276.158C376.784 280.978 382.31 283.267 387.129 281.27Z" fill="white"/>
<path d="M296.609 49.5228C296.609 50.578 296.296 51.6096 295.709 52.487C295.123 53.3644 294.29 54.0482 293.315 54.452C292.34 54.8558 291.267 54.9615 290.232 54.7556C289.197 54.5498 288.247 54.0416 287.501 53.2955C286.755 52.5493 286.246 51.5986 286.041 50.5637C285.835 49.5287 285.94 48.456 286.344 47.4811C286.748 46.5062 287.432 45.6729 288.309 45.0867C289.187 44.5004 290.218 44.1875 291.273 44.1875C292.688 44.1875 294.045 44.7496 295.046 45.7502C296.047 46.7507 296.609 48.1078 296.609 49.5228Z" fill="white"/>
<path d="M103.478 164.689L99.0876 166.08C97.8276 165.864 96.5321 166.103 95.4315 166.753C94.3309 167.403 93.4967 168.422 93.0775 169.63L89.6833 172.796C89.6103 172.863 89.5623 172.953 89.5473 173.051C89.5322 173.149 89.5511 173.249 89.6007 173.335C89.6502 173.421 89.7276 173.487 89.82 173.523C89.9124 173.559 90.0143 173.563 90.1088 173.533L94.51 172.204C95.7968 172.47 97.1363 172.254 98.2746 171.598C99.4129 170.942 100.271 169.891 100.686 168.644L103.966 165.468C104.047 165.394 104.099 165.294 104.113 165.186C104.128 165.078 104.104 164.968 104.046 164.875C103.988 164.783 103.9 164.713 103.796 164.679C103.692 164.645 103.58 164.649 103.478 164.689Z" fill="white"/>
<path d="M259.5 386.717C370.652 386.717 460.758 381.456 460.758 374.967C460.758 368.477 370.652 363.217 259.5 363.217C148.348 363.217 58.2422 368.477 58.2422 374.967C58.2422 381.456 148.348 386.717 259.5 386.717Z" fill="#F5F5F5"/>
<path d="M421.418 309.366L435.815 300.086L431.351 312.272H420.587L421.418 309.366Z" fill="#263238"/>
<path opacity="0.2" d="M421.418 309.366L435.815 300.086L431.351 312.272H420.587L421.418 309.366Z" fill="white"/>
<path opacity="0.4" d="M421.708 309.501L435.659 300.512L431.351 312.272H420.847L421.708 309.501Z" fill="white"/>
<path d="M435.846 317.909L446.942 291.928H439.821L429.597 318.386L435.846 317.909Z" fill="#263238"/>
<path opacity="0.2" d="M435.846 317.909L446.942 291.928H439.821L429.597 318.386L435.846 317.909Z" fill="white"/>
<path opacity="0.4" d="M435.846 317.908L446.849 292.145H439.935L429.815 318.364L435.846 317.908Z" fill="white"/>
<path d="M436.282 317.815L447.295 291.761L453.44 291.605L442.842 316.881L436.282 317.815Z" fill="#263238"/>
<path opacity="0.2" d="M436.282 317.815L447.295 291.761L453.44 291.605L442.842 316.881L436.282 317.815Z" fill="white"/>
<path opacity="0.4" d="M436.406 317.795L447.461 291.928L453.378 291.762L442.842 316.881L436.406 317.795Z" fill="white"/>
<path d="M453.793 291.451L459.688 291.326L449.122 315.833L443.226 316.685L453.793 291.451Z" fill="#263238"/>
<path opacity="0.2" d="M453.793 291.451L459.688 291.326L449.122 315.833L443.226 316.685L453.793 291.451Z" fill="white"/>
<path opacity="0.4" d="M453.897 291.606L459.637 291.439L449.122 315.832L443.361 316.663L453.897 291.606Z" fill="white"/>
<path d="M460.062 291.326L465.231 291.17L455.08 314.971L449.433 315.802L460.062 291.326Z" fill="#263238"/>
<path opacity="0.2" d="M460.062 291.326L465.231 291.17L455.08 314.971L449.433 315.802L460.062 291.326Z" fill="white"/>
<path opacity="0.4" d="M460.176 291.439L465.2 291.252L455.08 314.97L449.599 315.77L460.176 291.439Z" fill="white"/>
<path d="M415.376 312.355L406.294 337.339L423.286 332.627L431.694 308.41L415.376 312.355Z" fill="#006747" fill-opacity="0.92"/>
<path opacity="0.2" d="M415.376 312.355L406.294 337.339L423.286 332.627L431.694 308.41L415.376 312.355Z" fill="black"/>
<path d="M391.658 298.488L415.376 312.356L406.294 337.341L383.177 321.978L391.658 298.488Z" fill="#006747" fill-opacity="0.92"/>
<path opacity="0.05" d="M391.658 298.488L415.376 312.356L406.294 337.341L383.177 321.978L391.658 298.488Z" fill="black"/>
<path d="M391.658 298.488L409.159 297.139L431.694 308.411L415.376 312.356L391.658 298.488Z" fill="#006747" fill-opacity="0.92"/>
<path opacity="0.4" d="M391.658 298.488L409.159 297.139L431.694 308.411L415.376 312.356L391.658 298.488Z" fill="white"/>
<path d="M421.864 289.229L422.528 289.571L416.892 304.715L416.051 304.456L421.864 289.229Z" fill="#263238"/>
<path opacity="0.4" d="M421.864 289.229L422.123 289.363L416.331 304.539L416.051 304.456L421.864 289.229Z" fill="white"/>
<path opacity="0.2" d="M422.528 289.571L422.123 289.363L416.331 304.539L416.892 304.715L422.528 289.571Z" fill="white"/>
<path d="M340.111 295.789L328.423 333.801L341.876 331.704L353.74 295.291L340.111 295.789Z" fill="#263238"/>
<path opacity="0.2" d="M340.111 295.789L328.423 333.801L341.876 331.704L353.74 295.291L340.111 295.789Z" fill="white"/>
<path opacity="0.4" d="M340.318 296.007L328.714 333.759L341.875 331.704L353.636 295.592L340.318 296.007Z" fill="white"/>
<path d="M354.321 295.29L342.633 331.703L355.328 329.845L366.933 294.781L354.321 295.29Z" fill="#263238"/>
<path opacity="0.2" d="M354.321 295.29L342.633 331.703L355.328 329.845L366.933 294.781L354.321 295.29Z" fill="white"/>
<path opacity="0.4" d="M354.539 295.592L342.934 331.652L355.328 329.846L366.871 295L354.539 295.592Z" fill="white"/>
<path d="M367.441 294.791L355.878 329.554L367.441 328.08L379.005 294.49L367.441 294.791Z" fill="#263238"/>
<path opacity="0.2" d="M367.441 294.791L355.878 329.554L367.441 328.08L379.005 294.49L367.441 294.791Z" fill="white"/>
<path opacity="0.4" d="M367.597 294.999L356.19 329.513L367.442 328.08L378.901 294.781L367.597 294.999Z" fill="white"/>
<path d="M379.472 294.19L367.784 327.915L378.756 326.358L390.101 293.816L379.472 294.19Z" fill="#263238"/>
<path opacity="0.2" d="M379.472 294.19L367.784 327.915L378.756 326.358L390.101 293.816L379.472 294.19Z" fill="white"/>
<path opacity="0.4" d="M379.596 294.407L368.043 327.883L378.756 326.357L390.028 294.023L379.596 294.407Z" fill="white"/>
<path d="M400.139 312.024L398.758 316.02L381.652 319.425L387.631 302.775L400.139 312.024Z" fill="#263238"/>
<path opacity="0.2" d="M400.139 312.024L398.758 316.02L381.652 319.425L387.631 302.775L400.139 312.024Z" fill="white"/>
<path opacity="0.4" d="M400.014 312.356L398.758 316.02L381.963 319.363L387.755 303.107L400.014 312.356Z" fill="white"/>
<path d="M432.067 310.166L415.76 340.548C411.401 338.472 411.37 326.109 414.619 319.01C418.636 312.117 427.552 308.733 432.067 310.166Z" fill="#263238"/>
<g opacity="0.2">
<path d="M417.068 338.097L416.363 339.415C412.325 335.605 412.667 324.686 414.619 319.008C411.546 331.184 417.068 338.097 417.068 338.097Z" fill="black"/>
</g>
<g opacity="0.3">
<path d="M432.067 310.166L415.76 340.548C411.401 338.472 411.37 326.109 414.619 319.01C418.636 312.117 427.552 308.733 432.067 310.166Z" fill="white"/>
</g>
<path opacity="0.2" d="M415.636 318.064C422.082 312.438 426.67 311.556 430.708 312.698L431.362 311.473C426.369 310.85 421.708 312.054 415.636 318.064Z" fill="white"/>
<path d="M417.618 321.646C412.844 329.95 411.785 338.254 415.252 340.247C418.719 342.24 425.393 337.133 430.168 328.891C434.943 320.65 436.001 312.283 432.535 310.301C429.068 308.318 422.393 313.384 417.618 321.646Z" fill="#006747" fill-opacity="0.92"/>
<path opacity="0.4" d="M417.618 321.646C412.844 329.95 411.785 338.254 415.252 340.247C418.719 342.24 425.393 337.133 430.168 328.891C434.943 320.65 436.001 312.283 432.535 310.301C429.068 308.318 422.393 313.384 417.618 321.646Z" fill="white"/>
<path opacity="0.2" d="M417.639 321.334C416.72 322.97 415.952 324.686 415.345 326.462C415.091 327.136 415.067 327.876 415.277 328.565C415.487 329.254 415.92 329.854 416.508 330.271C418.169 331.226 421.376 328.787 423.67 324.822C425.964 320.857 426.473 316.85 424.812 315.885C423.836 315.324 421.957 315.687 420.598 317.244C419.487 318.514 418.497 319.883 417.639 321.334Z" fill="black"/>
<path d="M426.369 324.148L422.03 322.393L419.57 319.705C418.977 319.89 418.471 320.282 418.145 320.811C417.818 321.339 417.694 321.968 417.795 322.58L421.137 323.681L424.459 327.428L426.369 324.148Z" fill="#263238"/>
<path opacity="0.2" d="M426.369 324.148L422.03 322.393L419.57 319.705C418.977 319.89 418.471 320.282 418.145 320.811C417.818 321.339 417.694 321.968 417.795 322.58L421.137 323.681L424.459 327.428L426.369 324.148Z" fill="white"/>
<path d="M424.718 325.403C424.189 326.327 424.075 327.241 424.459 327.479C424.843 327.718 425.58 327.137 426.109 326.223C426.639 325.31 426.753 324.386 426.369 324.147C425.985 323.909 425.248 324.49 424.718 325.403Z" fill="#263238"/>
<path opacity="0.4" d="M424.718 325.403C424.189 326.327 424.075 327.241 424.459 327.479C424.843 327.718 425.58 327.137 426.109 326.223C426.639 325.31 426.753 324.386 426.369 324.147C425.985 323.909 425.248 324.49 424.718 325.403Z" fill="white"/>
<path opacity="0.2" d="M418.179 320.805C417.873 321.359 417.74 321.991 417.795 322.621L421.137 323.721L424.459 327.469C424.044 327.157 424.334 325.912 424.812 325.258C424.812 325.258 423.504 324.438 418.179 320.805Z" fill="black"/>
<path opacity="0.2" d="M426.078 324.116L421.916 322.549L419.331 319.84L419.165 319.902L421.843 322.58L425.839 324.199L426.078 324.116Z" fill="white"/>
<g opacity="0.2">
<path d="M424.926 325.528C424.48 326.306 424.376 327.095 424.698 327.282C425.02 327.469 425.663 326.991 426.109 326.244C426.556 325.497 426.66 324.677 426.338 324.479C426.016 324.282 425.372 324.739 424.926 325.528Z" fill="black"/>
<path opacity="0.4" d="M424.926 325.528C424.48 326.306 424.376 327.095 424.698 327.282C425.02 327.469 425.663 326.991 426.109 326.244C426.556 325.497 426.66 324.677 426.338 324.479C426.016 324.282 425.372 324.739 424.926 325.528Z" fill="black"/>
</g>
<path d="M418.054 338.327L418.262 338.659L430.158 332.856L430.002 332.545L418.054 338.327Z" fill="#263238"/>
<path opacity="0.1" d="M418.054 338.327L418.262 338.659L430.158 332.856L430.002 332.545L418.054 338.327Z" fill="white"/>
<path d="M433.583 316.268H433.894L434.226 326.689H433.811L433.583 316.268Z" fill="#263238"/>
<path opacity="0.1" d="M433.583 316.268H433.894L434.226 326.689H433.811L433.583 316.268Z" fill="white"/>
<path d="M419.622 318.812L434.226 326.691L434.05 326.93L419.352 319.082L419.622 318.812Z" fill="#263238"/>
<path opacity="0.1" d="M419.622 318.812L434.226 326.691L434.05 326.93L419.352 319.082L419.622 318.812Z" fill="white"/>
<path d="M418.989 319.819L419.238 319.508L430.261 332.4L430.095 332.649L418.989 319.819Z" fill="#263238"/>
<path opacity="0.1" d="M418.989 319.819L419.238 319.508L430.261 332.4L430.095 332.649L418.989 319.819Z" fill="white"/>
<path d="M430.874 329.243C429.836 331.101 429.566 332.97 430.344 333.395C431.123 333.821 432.628 332.71 433.697 330.852C434.766 328.994 435.005 327.126 434.226 326.7C433.448 326.274 431.953 327.385 430.874 329.243Z" fill="#263238"/>
<path opacity="0.2" d="M430.874 329.243C429.836 331.101 429.566 332.97 430.344 333.395C431.123 333.821 432.628 332.71 433.697 330.852C434.766 328.994 435.005 327.126 434.226 326.7C433.448 326.274 431.953 327.385 430.874 329.243Z" fill="white"/>
<path opacity="0.1" d="M431.164 329.409C430.199 331.081 429.991 332.752 430.687 333.157C431.382 333.561 432.763 332.534 433.697 330.873C434.631 329.212 434.87 327.52 434.174 327.116C433.479 326.711 432.13 327.738 431.164 329.409Z" fill="black"/>
<path opacity="0.2" d="M398.758 316.02L383.177 321.978L384.319 318.812L398.758 316.02Z" fill="black"/>
<path d="M412.325 106.145C427.591 106.145 439.967 93.7695 439.967 78.5033C439.967 63.2371 427.591 50.8613 412.325 50.8613C397.059 50.8613 384.683 63.2371 384.683 78.5033C384.683 93.7695 397.059 106.145 412.325 106.145Z" fill="#006747" fill-opacity="0.92"/>
<path opacity="0.4" d="M412.325 106.145C427.591 106.145 439.967 93.7695 439.967 78.5033C439.967 63.2371 427.591 50.8613 412.325 50.8613C397.059 50.8613 384.683 63.2371 384.683 78.5033C384.683 93.7695 397.059 106.145 412.325 106.145Z" fill="white"/>
<path opacity="0.4" d="M412.325 106.145C427.591 106.145 439.967 93.7695 439.967 78.5033C439.967 63.2371 427.591 50.8613 412.325 50.8613C397.059 50.8613 384.683 63.2371 384.683 78.5033C384.683 93.7695 397.059 106.145 412.325 106.145Z" fill="white"/>
<path opacity="0.2" d="M387.973 65.3939C387.351 68.5079 389.51 69.8157 394.253 69.5459C405.498 68.9176 416.488 65.9553 426.525 60.8474C428.725 59.3423 428.943 57.6296 428.113 55.8027C441.534 66.463 442.468 80.7147 436.624 91.6656C435.201 93.8226 433.067 95.4129 430.594 96.1602C423.428 98.9812 415.914 100.821 408.256 101.63C401.166 102.668 397.004 102.201 395.405 100.354C383.313 90.9805 382.296 76.6043 387.973 65.3939Z" fill="white"/>
<path opacity="0.2" d="M384.683 78.503C384.655 83.8235 386.248 89.0264 389.25 93.419C390.703 95.495 395.405 95.9102 402.744 94.8826C412.282 93.9001 421.639 91.6088 430.552 88.0733C435.41 86.1634 438.628 83.7241 440.008 80.662C440.331 75.7562 439.357 70.8519 437.185 66.4414C436.759 70.2612 434.143 73.4271 428.881 75.7834C418.589 79.6368 407.885 82.2807 396.983 83.6618C390.039 84.4611 385.254 83.3193 384.683 78.503Z" fill="white"/>
<path opacity="0.1" d="M401.208 54.1716C403.844 53.1527 406.578 52.4049 409.366 51.9399C413.031 51.5663 413.664 52.1891 413.259 53.1544C412.17 54.2701 410.881 55.1715 409.46 55.8117C407.25 56.7698 404.903 57.3757 402.505 57.6074C400.834 57.6801 399.059 57.7216 398.052 56.9535C397.554 56.0504 399.049 55.0955 401.208 54.1716Z" fill="black"/>
<path d="M456.969 64.9265C455.589 60.6707 446.506 59.477 433.832 61.1482C434.965 62.5121 435.946 63.9947 436.759 65.5701C441.295 65.7465 444.295 66.826 444.949 68.8294C446.548 73.7806 433.251 82.5206 415.242 88.3438C397.232 94.167 381.34 94.8936 379.742 89.9423C379.047 87.8663 380.718 85.3025 384.704 82.313C384.652 82.313 384.984 82.095 384.932 82.1262C384.711 80.4056 384.648 78.6682 384.745 76.9362C373.182 83.1019 366.29 89.5271 367.691 93.8452C369.891 100.623 391.658 99.6476 416.321 91.655C440.984 83.6624 459.17 71.7047 456.969 64.9265Z" fill="#006747" fill-opacity="0.92"/>
<path opacity="0.3" d="M456.969 64.9265C455.589 60.6707 446.506 59.477 433.832 61.1482C434.965 62.5121 435.946 63.9947 436.759 65.5701C441.295 65.7465 444.295 66.826 444.949 68.8294C446.548 73.7806 433.251 82.5206 415.242 88.3438C397.232 94.167 381.34 94.8936 379.742 89.9423C379.047 87.8663 380.718 85.3025 384.704 82.313C384.652 82.313 384.984 82.095 384.932 82.1262C384.711 80.4056 384.648 78.6682 384.745 76.9362C373.182 83.1019 366.29 89.5271 367.691 93.8452C369.891 100.623 391.658 99.6476 416.321 91.655C440.984 83.6624 459.17 71.7047 456.969 64.9265Z" fill="white"/>
<path d="M146.652 156.892C162.465 141.079 162.465 115.441 146.652 99.6273C130.839 83.8141 105.2 83.8141 89.3871 99.6273C73.5738 115.441 73.5738 141.079 89.3871 156.892C105.2 172.705 130.839 172.705 146.652 156.892Z" fill="#006747" fill-opacity="0.92"/>
<path opacity="0.4" d="M146.652 156.892C162.465 141.079 162.465 115.441 146.652 99.6273C130.839 83.8141 105.2 83.8141 89.3871 99.6273C73.5738 115.441 73.5738 141.079 89.3871 156.892C105.2 172.705 130.839 172.705 146.652 156.892Z" fill="white"/>
<path opacity="0.2" d="M147.084 131.381L146.161 131.516C146.041 131.535 145.919 131.529 145.803 131.496C145.686 131.464 145.578 131.407 145.486 131.329L143.991 130.073C143.926 130.022 143.857 129.977 143.784 129.938L139.424 128.06C139.277 127.996 139.151 127.891 139.061 127.759L136.601 124.281C136.492 124.122 136.341 123.996 136.165 123.918L134.722 123.254C134.656 123.222 134.586 123.201 134.514 123.191L132.988 122.963C132.778 122.926 132.579 122.841 132.407 122.714L129.169 120.264C129.037 120.168 128.884 120.107 128.722 120.088L126.345 119.776C126.19 119.755 126.032 119.777 125.888 119.839L125.245 120.119C125.137 120.165 125.02 120.189 124.902 120.189C124.785 120.189 124.668 120.165 124.56 120.119L121.726 118.811C121.559 118.729 121.368 118.707 121.186 118.749L118.674 119.309C118.517 119.349 118.376 119.436 118.27 119.558L117.232 120.7C117.143 120.798 117.03 120.871 116.904 120.911C116.778 120.951 116.644 120.957 116.515 120.929L114.439 120.493L110.069 118.541L108.647 116.32C108.542 116.146 108.505 115.939 108.543 115.739L108.855 114.016L109.893 111.545C109.905 111.521 109.91 111.494 109.907 111.467C109.905 111.44 109.895 111.415 109.879 111.393C109.863 111.372 109.841 111.355 109.816 111.345C109.791 111.335 109.764 111.333 109.737 111.337L107.9 111.555C107.784 111.57 107.673 111.612 107.576 111.677C107.479 111.741 107.398 111.828 107.339 111.929L106.8 112.863C106.738 112.968 106.655 113.058 106.557 113.13C106.459 113.201 106.347 113.252 106.229 113.279L103.717 113.839C103.601 113.868 103.479 113.853 103.375 113.795C103.27 113.737 103.192 113.641 103.156 113.528L102.845 112.583L102.077 111.171C102.006 111.056 101.969 110.923 101.969 110.787C101.969 110.652 102.006 110.519 102.077 110.403L103.322 108.587L103.81 107.331C103.872 107.168 103.985 107.029 104.132 106.936L105.782 105.898C105.95 105.796 106.147 105.752 106.343 105.774L107.91 105.992C108.009 106.006 108.111 106 108.207 105.973C108.304 105.947 108.393 105.9 108.471 105.836L109.104 105.338C109.219 105.253 109.356 105.203 109.498 105.193L111.253 105.068C111.396 105.06 111.539 105.089 111.668 105.151L112.612 105.587C112.703 105.632 112.78 105.701 112.833 105.788C112.886 105.874 112.914 105.973 112.913 106.075V106.916C112.913 107.048 112.966 107.174 113.059 107.268C113.153 107.361 113.28 107.414 113.412 107.414H113.692C113.781 107.413 113.87 107.393 113.952 107.357C114.033 107.32 114.107 107.267 114.167 107.201C114.227 107.134 114.273 107.057 114.302 106.972C114.331 106.887 114.343 106.797 114.336 106.708L114.252 105.981L114.086 104.507C114.069 104.367 114.096 104.225 114.163 104.1C114.23 103.976 114.334 103.875 114.46 103.812L116.142 102.971L118.342 100.553L119.837 98.3002L122.598 97.4387C122.714 97.4034 122.816 97.332 122.889 97.235C122.961 97.1379 123.001 97.0202 123.003 96.8989V95.5495C123.002 95.43 123.041 95.3137 123.115 95.2194C123.188 95.1252 123.291 95.0586 123.408 95.0305L125.235 94.5842C125.397 94.545 125.541 94.4494 125.639 94.3143L126.397 93.1932C126.424 93.1553 126.441 93.1117 126.448 93.0658C126.455 93.0199 126.452 92.9731 126.438 92.9288C126.424 92.8846 126.399 92.8443 126.367 92.8109C126.335 92.7775 126.295 92.7521 126.252 92.7365L122.92 91.5117L120.48 90.3284C120.375 90.2777 120.258 90.2559 120.141 90.265C120.025 90.2741 119.912 90.3139 119.816 90.3803L116.702 92.5497C116.593 92.6231 116.467 92.6673 116.337 92.6782C116.206 92.6891 116.074 92.6663 115.955 92.612L113.702 91.574L112.01 90.7955C111.977 90.7809 111.949 90.757 111.929 90.7266C111.909 90.6961 111.898 90.6605 111.898 90.6242C111.898 90.5878 111.909 90.5522 111.929 90.5218C111.949 90.4914 111.977 90.4675 112.01 90.4529L113.723 89.882C113.799 89.8586 113.87 89.8197 113.931 89.7678L116.256 87.8164C110.455 88.1214 104.789 89.6795 99.6478 92.3836C97.5841 97.641 96.1216 103.115 95.2882 108.701C95.2729 108.831 95.2884 108.962 95.3335 109.085C95.3786 109.208 95.452 109.318 95.5477 109.407L101.921 115.51C102.035 115.617 102.181 115.683 102.336 115.697L104.703 115.957C104.821 115.966 104.936 116.005 105.035 116.071L114.169 121.562C114.279 121.624 114.368 121.717 114.426 121.83C114.483 121.943 114.506 122.069 114.491 122.195L113.609 131.423C113.569 131.768 113.65 132.116 113.837 132.409L118.301 139.498C118.359 139.59 118.433 139.67 118.519 139.737L121.944 142.374C122.026 142.437 122.09 142.522 122.128 142.619C122.167 142.716 122.178 142.821 122.162 142.924L120.937 150.418L118.602 161.992C118.83 163.549 120.854 162.594 123.792 160.414L126.708 155.619L129.272 154.581L135.832 149.899L140.348 144.782L142.777 139.405C142.819 139.319 142.871 139.239 142.932 139.166L145.403 136.333L147.053 134.62C147.203 134.463 147.288 134.255 147.292 134.039V131.568C147.294 131.541 147.29 131.514 147.28 131.489C147.27 131.464 147.254 131.442 147.234 131.424C147.214 131.406 147.19 131.392 147.164 131.385C147.138 131.378 147.111 131.376 147.084 131.381Z" fill="black"/>
<path d="M136.061 96.3689H136.009C136.014 96.3484 136.014 96.3271 136.009 96.3066L136.061 96.3689Z" fill="white"/>
<path d="M292.311 200.852C295.695 202.637 321.998 232.303 314.981 246.409C309.791 256.789 277.353 261.616 277.353 261.616L273.357 252.762C273.357 252.762 297.107 244.354 298.508 240.669C299.909 236.984 273.222 217.366 273.222 217.366L292.311 200.852Z" fill="#006747" fill-opacity="0.92"/>
<path opacity="0.3" d="M292.311 200.852C295.695 202.637 321.998 232.303 314.981 246.409C309.791 256.789 277.353 261.616 277.353 261.616L273.357 252.762C273.357 252.762 297.107 244.354 298.508 240.669C299.909 236.984 273.222 217.366 273.222 217.366L292.311 200.852Z" fill="white"/>
<path opacity="0.2" d="M288.699 246.66C287.848 250.106 285.377 252.764 280.333 254.196L283.447 260.497L282.803 260.632L277.883 251.082L288.699 246.66Z" fill="black"/>
<path d="M276.918 249.119L283.8 262.489L270.544 265.488C270.355 265.527 270.177 265.606 270.02 265.718C269.863 265.83 269.732 265.974 269.634 266.14C269.536 266.307 269.474 266.492 269.452 266.683C269.43 266.875 269.449 267.069 269.506 267.253L271.084 272.121C271.215 272.556 271.2 273.023 271.04 273.448C270.881 273.874 270.586 274.235 270.202 274.477L269.164 275.1C268.85 275.286 268.477 275.345 268.122 275.264C267.766 275.183 267.456 274.968 267.254 274.664L255.836 257.423C255.764 257.315 255.718 257.191 255.701 257.062C255.684 256.932 255.697 256.801 255.74 256.677C255.782 256.554 255.852 256.442 255.944 256.35C256.036 256.258 256.148 256.188 256.272 256.146L276.918 249.119Z" fill="#006747" fill-opacity="0.92"/>
<g opacity="0.2">
<path d="M276.918 249.119L283.8 262.489L270.544 265.488C270.355 265.527 270.177 265.606 270.02 265.718C269.863 265.83 269.732 265.974 269.634 266.14C269.536 266.307 269.474 266.492 269.452 266.683C269.43 266.875 269.449 267.069 269.506 267.253L271.084 272.121C271.215 272.556 271.2 273.023 271.04 273.448C270.881 273.874 270.586 274.235 270.202 274.477L269.164 275.1C268.85 275.286 268.477 275.345 268.122 275.264C267.766 275.183 267.456 274.968 267.254 274.664L255.836 257.423C255.764 257.315 255.718 257.191 255.701 257.062C255.684 256.932 255.697 256.801 255.74 256.677C255.782 256.554 255.852 256.442 255.944 256.35C256.036 256.258 256.148 256.188 256.272 256.146L276.918 249.119Z" fill="white"/>
</g>
<path opacity="0.2" d="M264.69 253.27C269.563 254.509 274.619 254.86 279.616 254.308L276.918 249.066L264.69 253.27Z" fill="black"/>
<path opacity="0.2" d="M290.993 231.557L293.173 233.55C295.394 225.526 291.387 217.845 290.059 207.6L288.138 208.139C289.967 215.813 290.925 223.668 290.993 231.557Z" fill="black"/>
<path d="M232.678 286.737L213.828 293.971L210.299 266.246L228.921 258.783L232.678 286.737Z" fill="#006747" fill-opacity="0.92"/>
<path opacity="0.2" d="M232.678 286.737L213.828 293.971L210.299 266.246L228.921 258.783L232.678 286.737Z" fill="black"/>
<path d="M220.803 259.499C232.024 236.528 243.276 219.972 254.611 217.771L340.464 193.067C361.058 189.953 379.638 196.036 396.09 211.938C393.049 237.743 380.52 251.289 362.542 257.703L273.752 281.038C265.645 283.051 248.995 276.803 220.803 259.499Z" fill="#006747" fill-opacity="0.92"/>
<path d="M196.857 262.313L227.094 248.082C235.003 253.272 235.844 261.016 233.394 267.119L202.711 277.219C196.12 273.295 194.77 268.977 196.857 262.313Z" fill="#006747" fill-opacity="0.92"/>
<path d="M175.661 255.461L163.298 256.572C159.488 256.913 155.893 258.483 153.053 261.046L114.844 295.59L166.547 299.981C169.326 300.22 172.122 299.797 174.706 298.746L184.608 294.698C187.295 293.6 189.67 291.857 191.522 289.623C193.374 287.389 194.647 284.732 195.227 281.889L195.621 279.958C196.215 277.013 196.047 273.966 195.134 271.104L194.013 267.606C193.305 265.387 192.166 263.33 190.66 261.554C188.827 259.415 186.51 257.746 183.9 256.686C181.291 255.626 178.466 255.206 175.661 255.461Z" fill="#006747" fill-opacity="0.92"/>
<path opacity="0.19" d="M175.661 255.461L163.298 256.572C159.488 256.913 155.893 258.483 153.053 261.046L114.844 295.59L166.547 299.981C169.326 300.22 172.122 299.797 174.706 298.746L184.608 294.698C187.295 293.6 189.67 291.857 191.522 289.623C193.374 287.389 194.647 284.732 195.227 281.889L195.621 279.958C196.215 277.013 196.047 273.966 195.134 271.104L194.013 267.606C193.305 265.387 192.166 263.33 190.66 261.554C188.827 259.415 186.51 257.746 183.9 256.686C181.291 255.626 178.466 255.206 175.661 255.461Z" fill="white"/>
<path opacity="0.29" d="M183.373 264.265L177.072 264.836C175.142 265.013 173.322 265.811 171.882 267.109L152.42 284.703L178.754 286.966C180.169 287.085 181.591 286.868 182.906 286.332L187.951 284.256C189.32 283.697 190.529 282.808 191.473 281.67C192.416 280.531 193.064 279.177 193.359 277.727L193.556 276.741C193.862 275.244 193.78 273.693 193.317 272.236L192.746 270.451C192.388 269.31 191.806 268.251 191.034 267.337C190.096 266.249 188.911 265.402 187.578 264.867C186.245 264.333 184.803 264.126 183.373 264.265Z" fill="white"/>
<path d="M185.802 268.032L181.858 268.385C180.645 268.499 179.502 269.001 178.598 269.817L166.433 280.82L182.896 282.232C183.783 282.305 184.675 282.17 185.501 281.837L188.615 280.55C189.47 280.198 190.225 279.641 190.814 278.928C191.402 278.214 191.806 277.367 191.988 276.461L192.113 275.848C192.301 274.913 192.247 273.945 191.957 273.035L191.604 271.914C191.387 271.213 191.034 270.56 190.566 269.994C189.986 269.311 189.251 268.777 188.422 268.435C187.593 268.094 186.695 267.956 185.802 268.032Z" fill="#006747" fill-opacity="0.92"/>
<path opacity="0.1" d="M220.803 259.499C232.024 236.528 243.276 219.972 255.296 217.574L341.087 192.911C361.006 189.953 379.586 196.077 396.038 211.979C392.997 237.784 380.468 251.33 362.49 257.745L273.7 281.079C265.645 283.051 248.995 276.802 220.803 259.499Z" fill="black"/>
<path d="M196.857 262.313L227.094 248.082C225.173 256.438 229.367 263.123 233.394 267.119L202.711 277.219C196.12 273.295 194.77 268.977 196.857 262.313Z" fill="#006747" fill-opacity="0.92"/>
<path d="M192.175 308.638L221.063 297.604L226.294 262.779L204.673 271.104L192.175 308.638Z" fill="#006747" fill-opacity="0.92"/>
<path opacity="0.3" d="M192.175 308.638L221.063 297.604L226.294 262.779L204.673 271.104L192.175 308.638Z" fill="white"/>
<path d="M167.076 239.559L198.559 229.988L224.249 252.648L199.41 262.872L167.076 239.559Z" fill="#006747" fill-opacity="0.92"/>
<path opacity="0.3" d="M167.076 239.559L198.559 229.988L224.249 252.648L199.41 262.872L167.076 239.559Z" fill="white"/>
<path opacity="0.7" d="M327.313 196.876L331.651 195.631C330.151 196.653 328.89 197.988 327.953 199.543C327.016 201.098 326.426 202.837 326.223 204.641C322.413 224.695 327.406 243.047 340.09 258.938C342.166 261.077 345.561 261.606 348.457 261.43L344.741 262.405C340.817 262.665 339 261.367 336.727 259.291C323.949 247.053 318.323 222.66 322.745 204.921C323.555 200.727 325.506 197.395 327.313 196.876Z" fill="white"/>
<path opacity="0.7" d="M317.42 199.721L321.572 198.527C318.936 199.669 316.714 203.873 316.144 207.496C312.344 227.55 317.368 245.663 330.011 261.793C331.797 263.776 335.398 264.274 338.315 264.108L334.433 265.094C330.509 265.354 328.797 264.42 326.669 262.167C313.891 249.929 308.255 225.536 312.677 207.797C313.299 203.614 316.185 200.074 317.42 199.721Z" fill="white"/>
<path d="M393.142 210.641C392.343 212.789 392.706 214.429 394.731 215.312L421.521 207.215C425.538 205.565 427.023 204.517 421.044 205.274L393.142 210.641Z" fill="#006747" fill-opacity="0.92"/>
<path opacity="0.3" d="M393.142 210.641C392.343 212.789 392.706 214.429 394.731 215.312L421.521 207.215C425.538 205.565 427.023 204.517 421.044 205.274L393.142 210.641Z" fill="black"/>
<path opacity="0.2" d="M230.893 264.242C248.092 270.47 267.441 278.847 275.651 276.376L363.3 253.073C374.853 251.361 385.472 228.888 393.485 214.48C384.143 227.746 374.697 247.292 360.964 250.115L275.651 272.993C265.728 276.283 246.826 268.415 230.893 264.242Z" fill="black"/>
<path opacity="0.4" d="M331.662 197.801C329.976 199.045 328.823 200.88 328.434 202.939L342.966 198.911C356.657 195.932 380.801 204.963 392.79 212.405C382.41 203.188 356.646 192.04 344.004 195.081L331.662 197.801Z" fill="white"/>
<path opacity="0.3" d="M393.039 213.849L394.201 215.042L424.76 205.648L393.039 213.849Z" fill="black"/>
<path opacity="0.2" d="M284.485 209.187L283.737 250.583L254.518 250.739C269.745 256.603 284.931 258.357 288.886 252.451C295.726 241.033 295.425 225.318 290.962 207.309L284.485 209.187Z" fill="black"/>
<path opacity="0.2" d="M291.439 209.135L314.607 202.658C313.735 203.793 313.157 205.127 312.926 206.54L292.166 212.436L291.439 209.135Z" fill="#E6E6E6"/>
<path opacity="0.2" d="M265.282 217.646L253.542 221.394C250.802 222.698 248.336 224.512 246.276 226.739L239.923 234.099L244.293 235.054L249.566 228.909C251.169 227.048 253.137 225.536 255.348 224.466L266.548 220.491L265.282 217.646Z" fill="#E0E0E0"/>
<path d="M242.778 161.926L258.535 174.029L283.935 177.268L299.681 140.855L292.259 130.641L258.535 118.59C250.054 130.651 246.089 145.651 242.778 161.926Z" fill="#006747" fill-opacity="0.92"/>
<path opacity="0.2" d="M242.778 161.926L258.535 174.029L283.935 177.268L299.681 140.855L292.259 130.641L258.535 118.59C251.196 129.177 246.068 143.917 242.778 161.926Z" fill="white"/>
<path opacity="0.3" d="M242.778 161.926L258.535 174.019L274.842 133.724C269.569 130.703 264.14 125.721 258.535 118.59C251.933 127.247 246.753 142.028 242.778 161.926Z" fill="black"/>
<path d="M285.876 200.883C288.014 203.997 297.107 242.725 284.256 251.838C274.81 258.533 243.909 247.448 243.909 247.448L244.563 237.753C244.563 237.753 269.475 241.583 272.454 238.998C275.433 236.414 261.908 212.841 261.192 206.509C260.476 200.177 285.876 200.883 285.876 200.883Z" fill="#006747" fill-opacity="0.92"/>
<path opacity="0.3" d="M285.876 200.883C288.014 203.997 297.107 242.725 284.256 251.838C274.81 258.533 243.909 247.448 243.909 247.448L244.563 237.753C244.563 237.753 269.475 241.583 272.454 238.998C275.433 236.414 261.908 212.841 261.192 206.509C260.476 200.177 285.876 200.883 285.876 200.883Z" fill="white"/>
<path d="M255.41 237.441L254.455 252.44L241.532 248.216C241.348 248.156 241.153 248.137 240.961 248.158C240.769 248.179 240.583 248.241 240.417 248.339C240.25 248.437 240.106 248.569 239.994 248.727C239.882 248.884 239.805 249.064 239.767 249.254L238.626 254.236C238.514 254.677 238.261 255.07 237.904 255.353C237.548 255.636 237.109 255.795 236.653 255.803H235.449C235.084 255.804 234.733 255.664 234.469 255.413C234.204 255.162 234.046 254.818 234.027 254.454L233.072 233.787C233.066 233.656 233.09 233.525 233.142 233.405C233.195 233.285 233.274 233.178 233.375 233.094C233.475 233.01 233.594 232.949 233.722 232.919C233.849 232.888 233.982 232.887 234.11 232.916L255.41 237.441Z" fill="#006747" fill-opacity="0.92"/>
<path d="M308.4 141.832C308.4 141.832 313.123 164.948 316.351 169.588C319.579 174.228 336.073 189.798 336.073 189.798L334.516 194.635C334.516 194.635 309.75 178.743 308.047 176.512C306.345 174.28 294.792 152.586 294.792 152.586L308.4 141.832Z" fill="#006747" fill-opacity="0.92"/>
<path d="M316.351 116.006C316.351 116.006 315.002 122.576 309.915 124.019C304.829 125.462 309.999 111.376 309.999 111.376L314.649 110.234L316.351 116.006Z" fill="#263238"/>
<path d="M315.733 131.953C322.949 124.738 322.949 113.039 315.733 105.824C308.518 98.6084 296.819 98.6084 289.604 105.824C282.388 113.039 282.388 124.738 289.604 131.953C296.819 139.169 308.518 139.169 315.733 131.953Z" fill="#263238"/>
<path opacity="0.2" d="M315.733 131.953C322.949 124.738 322.949 113.039 315.733 105.824C308.518 98.6084 296.819 98.6084 289.604 105.824C282.388 113.039 282.388 124.738 289.604 131.953C296.819 139.169 308.518 139.169 315.733 131.953Z" fill="white"/>
<path opacity="0.7" d="M307.248 133.143C311.104 132.364 314.515 130.135 316.777 126.915L315.355 126.074C312.799 128.809 309.664 130.937 306.179 132.302L307.248 133.143Z" fill="white"/>
<path opacity="0.7" d="M317.265 125.939L315.791 125.244C316.13 124.861 316.363 124.396 316.465 123.895L317.846 124.6C317.805 125.098 317.6 125.569 317.265 125.939Z" fill="white"/>
<path d="M288.906 132.593C287.868 136.402 298.83 141.758 302.67 137.949C300.594 136.381 300.055 134.741 300.314 133.143C300.506 132.173 300.89 131.252 301.445 130.434C301.735 129.964 302.054 129.514 302.4 129.084L297.729 119.41C296.764 123.666 294.605 133.278 288.906 132.593Z" fill="#E4897B"/>
<path opacity="0.2" d="M297.605 123.936C295.529 128.679 298.643 131.918 300.314 133.143C300.506 132.173 300.89 131.251 301.445 130.433L297.605 123.936Z" fill="black"/>
<path d="M296.058 125.763C296.436 127.32 297.317 128.709 298.565 129.714C299.814 130.718 301.359 131.281 302.961 131.317C305.035 131.412 307.066 130.71 308.639 129.355C308.859 129.171 309.067 128.973 309.262 128.763C312.936 124.86 316.528 117.003 312.749 112.155C311.922 111.081 310.833 110.238 309.586 109.705C308.34 109.172 306.977 108.969 305.629 109.114C304.281 109.258 302.993 109.747 301.888 110.532C300.783 111.317 299.898 112.373 299.318 113.598C296.733 118.809 294.979 121.746 296.058 125.763Z" fill="#E4897B"/>
<path d="M306.148 119.369C306.081 119.44 306.028 119.523 305.995 119.614C305.961 119.705 305.946 119.802 305.951 119.899C305.955 119.997 305.98 120.092 306.023 120.179C306.066 120.266 306.126 120.344 306.2 120.407C306.48 120.563 306.885 120.407 307.113 119.94C307.341 119.473 307.321 119.079 307.051 118.902C306.781 118.726 306.386 118.985 306.148 119.369Z" fill="#263238"/>
<path d="M310.767 122.058C310.638 122.204 310.572 122.395 310.584 122.59C310.595 122.784 310.684 122.966 310.829 123.096C311.099 123.241 311.504 123.033 311.742 122.629C311.981 122.224 311.95 121.757 311.68 121.591C311.41 121.425 310.995 121.663 310.767 122.058Z" fill="#263238"/>
<path d="M309.189 121.445C308.954 122.975 308.936 124.53 309.137 126.064C308.74 126.105 308.34 126.058 307.963 125.927C307.587 125.796 307.243 125.584 306.957 125.307L309.189 121.445Z" fill="#DE5753"/>
<path d="M305.566 117.085C305.611 117.111 305.661 117.124 305.712 117.124C305.763 117.124 305.813 117.111 305.857 117.085C306.173 116.942 306.517 116.875 306.863 116.889C307.21 116.903 307.548 116.999 307.85 117.168C307.91 117.196 307.978 117.201 308.042 117.184C308.106 117.166 308.162 117.126 308.199 117.071C308.236 117.017 308.253 116.95 308.246 116.885C308.239 116.819 308.209 116.757 308.161 116.711C307.783 116.488 307.356 116.359 306.917 116.336C306.478 116.312 306.04 116.395 305.639 116.576C305.57 116.604 305.515 116.658 305.486 116.726C305.457 116.794 305.456 116.871 305.483 116.94C305.502 116.993 305.53 117.042 305.566 117.085Z" fill="#263238"/>
<path d="M305.078 127.009C304.442 126.763 303.873 126.369 303.422 125.857C302.97 125.346 302.648 124.733 302.483 124.071C302.477 124.031 302.487 123.991 302.51 123.958C302.533 123.925 302.568 123.902 302.608 123.895C302.645 123.888 302.683 123.897 302.714 123.918C302.745 123.939 302.767 123.972 302.774 124.009C302.936 124.618 303.237 125.181 303.653 125.655C304.069 126.128 304.589 126.499 305.172 126.739C305.189 126.744 305.205 126.754 305.219 126.766C305.232 126.778 305.243 126.793 305.251 126.809C305.259 126.826 305.263 126.844 305.264 126.862C305.265 126.88 305.261 126.898 305.255 126.915C305.241 126.951 305.214 126.98 305.179 126.995C305.144 127.011 305.104 127.012 305.068 126.998L305.078 127.009Z" fill="#263238"/>
<path d="M313.673 121.6C313.707 121.643 313.755 121.673 313.808 121.683C313.844 121.688 313.881 121.685 313.916 121.674C313.951 121.664 313.984 121.647 314.012 121.623C314.04 121.6 314.063 121.571 314.08 121.539C314.097 121.506 314.107 121.471 314.109 121.434C314.147 120.996 314.08 120.555 313.912 120.149C313.744 119.742 313.48 119.382 313.144 119.099C313.115 119.076 313.083 119.06 313.048 119.051C313.013 119.041 312.977 119.039 312.941 119.043C312.905 119.048 312.87 119.06 312.839 119.079C312.808 119.097 312.781 119.122 312.76 119.151C312.718 119.21 312.702 119.284 312.713 119.355C312.725 119.427 312.764 119.491 312.822 119.535C313.078 119.77 313.276 120.061 313.402 120.385C313.528 120.708 313.578 121.057 313.549 121.403C313.555 121.443 313.569 121.481 313.59 121.515C313.612 121.549 313.64 121.578 313.673 121.6Z" fill="#263238"/>
<path d="M295.975 116.67C297.117 111.543 298.954 107.796 300.791 106.944C302.629 106.093 307.175 112.384 307.175 112.384C306.898 112.143 306.562 111.98 306.201 111.912C305.841 111.843 305.468 111.872 305.122 111.994C304.776 112.117 304.469 112.329 304.231 112.608C303.994 112.888 303.835 113.226 303.77 113.588C303.532 115.871 300.926 118.279 298.85 118.715C298.85 118.715 299.234 117.864 298.435 117.677C297.636 117.491 295.622 121.933 295.934 124.694C295.934 124.715 294.792 121.798 295.975 116.67Z" fill="#263238"/>
<path d="M294.792 116.494C294.7 117.95 295.189 119.384 296.152 120.48C297.428 121.923 299.12 121.03 299.639 119.266C300.086 117.698 299.992 115.02 298.269 114.242C297.893 114.071 297.481 113.998 297.069 114.028C296.658 114.059 296.261 114.192 295.914 114.417C295.568 114.641 295.284 114.949 295.088 115.312C294.891 115.675 294.79 116.082 294.792 116.494Z" fill="#E4897B"/>
<path d="M299.193 109.415C299.193 109.415 302.774 105.263 309.76 105.824C318.303 106.54 317.161 118.383 315.708 118.892C314.576 119.079 315.459 113.878 314.244 114.366C313.31 115.062 313.31 115.612 312.334 115.518C311.784 115.518 311.13 114.294 310.476 112.996C309.199 111.667 306.272 115.923 304.103 116.806C302.131 116.255 300.48 112.103 299.193 109.415Z" fill="#263238"/>
<path d="M258.327 180.135C257.725 189.954 258.981 202.4 262.064 209.79L288.159 208.15L297.325 205.493C295.601 203.718 291.667 194.366 294.345 179.709L258.327 180.135Z" fill="#006747" fill-opacity="0.92"/>
<g opacity="0.3">
<path d="M258.327 180.135C257.725 189.954 258.981 202.4 262.064 209.79L288.159 208.15L297.325 205.493C295.394 203.417 291.823 194.376 294.345 179.709L258.327 180.135Z" fill="white"/>
</g>
<path opacity="0.2" d="M288.159 208.149L289.602 203.156L294.699 206.26L288.159 208.149Z" fill="black"/>
<path d="M297.605 120.002L297.273 122.43C297.169 123.182 297.262 123.947 297.543 124.652L297.698 125.036C297.98 125.742 298.442 126.363 299.037 126.836C299.632 127.309 300.341 127.619 301.093 127.735L302.66 127.973V128.71L300.584 128.316C299.873 128.178 299.206 127.866 298.645 127.407C298.083 126.949 297.644 126.359 297.366 125.69L297.003 124.807C296.678 124.016 296.591 123.146 296.754 122.306L297.221 119.877L297.605 120.002Z" fill="#263238"/>
<path opacity="0.2" d="M297.605 120.002L297.273 122.43C297.169 123.182 297.262 123.947 297.543 124.652L297.698 125.036C297.98 125.742 298.442 126.363 299.037 126.836C299.632 127.309 300.341 127.619 301.093 127.735L302.66 127.973V128.71L300.584 128.316C299.873 128.178 299.206 127.866 298.645 127.407C298.083 126.949 297.644 126.359 297.366 125.69L297.003 124.807C296.678 124.016 296.591 123.146 296.754 122.306L297.221 119.877L297.605 120.002Z" fill="white"/>
<path d="M303.854 127.539H302.743C302.41 127.539 302.141 127.809 302.141 128.141V128.888C302.141 129.221 302.41 129.491 302.743 129.491H303.854C304.186 129.491 304.456 129.221 304.456 128.888V128.141C304.456 127.809 304.186 127.539 303.854 127.539Z" fill="#263238"/>
<path d="M297.885 116.754H297.065C296.704 116.754 296.411 117.047 296.411 117.408V119.681C296.411 120.042 296.704 120.335 297.065 120.335H297.885C298.246 120.335 298.539 120.042 298.539 119.681V117.408C298.539 117.047 298.246 116.754 297.885 116.754Z" fill="#263238"/>
<path opacity="0.15" d="M308.4 141.832C308.4 141.832 313.123 164.948 316.351 169.588C319.579 174.228 336.81 190.504 336.81 190.504L333.873 194.178C333.873 194.178 309.77 178.743 308.068 176.532C306.366 174.321 294.792 152.586 294.792 152.586L308.4 141.832Z" fill="white"/>
<path opacity="0.2" d="M300.272 158.201L304.072 169.681L299.307 161.004L300.272 158.201Z" fill="black"/>
<path d="M258.14 183.195L293.754 185.458C293.754 185.458 297.906 152.938 309.324 142.516L303.459 137.689L287.889 132.292C287.889 132.292 279.938 132.074 275.267 133.07C273.821 134.85 272.503 136.73 271.323 138.696C268.984 142.512 266.956 146.511 265.261 150.654C261.025 161.008 258.616 172.018 258.14 183.195Z" fill="#006747" fill-opacity="0.92"/>
<path opacity="0.2" d="M293.962 184.016L282.544 175.919C280.468 173.926 274.676 160.027 270.337 150.82L294.667 180.133L293.962 184.016Z" fill="black"/>
<path opacity="0.2" d="M282.263 132.344H283.571L306.718 140.378L307.684 141.167C307.394 141.924 306.821 142.538 306.085 142.879L304.746 143.523C296.255 140.43 288.346 137.461 282.263 132.344Z" fill="#263238"/>
<path d="M284.038 139.755C284.038 139.755 290.484 162.228 293.712 166.868C296.94 171.508 318.759 192.87 318.759 192.87L315.272 196.804C315.272 196.804 286.301 177.383 284.599 175.151C282.896 172.919 270.503 151.474 270.503 151.474C267.181 142.329 279.222 128.067 284.038 139.755Z" fill="#006747" fill-opacity="0.92"/>
<path opacity="0.15" d="M284.038 139.755C284.038 139.755 290.484 162.228 293.712 166.868C296.94 171.508 318.759 192.87 318.759 192.87L315.272 196.804C315.272 196.804 286.301 177.383 284.599 175.151C282.896 172.919 270.503 151.474 270.503 151.474C267.181 142.329 279.222 128.067 284.038 139.755Z" fill="white"/>
<path d="M273.585 149.399L275.952 154.257C276.99 150.354 278.858 148.029 281.64 147.385L278.879 141.832C276.194 143.566 274.294 146.282 273.585 149.399Z" fill="#006747" fill-opacity="0.92"/>
<g opacity="0.2">
<path d="M255.41 237.441L254.455 252.44L241.532 248.216C241.348 248.156 241.153 248.137 240.961 248.158C240.769 248.179 240.583 248.241 240.417 248.339C240.25 248.437 240.106 248.569 239.994 248.727C239.882 248.884 239.805 249.064 239.767 249.254L238.626 254.236C238.514 254.677 238.261 255.07 237.904 255.353C237.548 255.636 237.109 255.795 236.653 255.803H235.449C235.084 255.804 234.733 255.664 234.469 255.413C234.204 255.162 234.046 254.818 234.027 254.454L233.072 233.787C233.066 233.656 233.09 233.525 233.142 233.405C233.195 233.285 233.274 233.178 233.375 233.094C233.475 233.01 233.594 232.949 233.722 232.919C233.849 232.888 233.982 232.887 234.11 232.916L255.41 237.441Z" fill="white"/>
</g>
<path d="M311.981 183.602L303.314 192.383L315.49 197.895L318.292 204.279C318.345 204.398 318.427 204.503 318.529 204.585C318.632 204.666 318.752 204.721 318.881 204.746C319.01 204.77 319.142 204.763 319.267 204.725C319.393 204.687 319.507 204.619 319.6 204.528L325.652 198.57C325.728 198.496 325.788 198.407 325.827 198.308C325.866 198.209 325.884 198.103 325.879 197.997C325.874 197.891 325.847 197.787 325.799 197.693C325.75 197.598 325.683 197.515 325.6 197.448L319.943 192.746L311.981 183.602Z" fill="#006747" fill-opacity="0.92"/>
<path opacity="0.3" d="M311.981 183.602L303.314 192.383L315.49 197.895L318.292 204.279C318.345 204.398 318.427 204.503 318.529 204.585C318.632 204.666 318.752 204.721 318.881 204.746C319.01 204.77 319.142 204.763 319.267 204.725C319.393 204.687 319.507 204.619 319.6 204.528L325.652 198.57C325.728 198.496 325.788 198.407 325.827 198.308C325.866 198.209 325.884 198.103 325.879 197.997C325.874 197.891 325.847 197.787 325.799 197.693C325.75 197.598 325.683 197.515 325.6 197.448L319.943 192.746L311.981 183.602Z" fill="white"/>
<path d="M320.659 189.736L329.337 180.135L337.039 189.03L342.322 191.708C342.396 191.747 342.462 191.801 342.514 191.866C342.567 191.931 342.606 192.007 342.628 192.087C342.65 192.168 342.656 192.253 342.644 192.336C342.633 192.419 342.604 192.498 342.561 192.57L342.415 192.819L333.447 195.103L332.804 194.335L320.659 189.736Z" fill="#006747" fill-opacity="0.92"/>
<g opacity="0.3">
<path d="M320.659 189.736L329.337 180.135L337.039 189.03L342.322 191.708C342.396 191.747 342.462 191.801 342.514 191.866C342.567 191.931 342.606 192.007 342.628 192.087C342.65 192.168 342.656 192.253 342.644 192.336C342.633 192.419 342.604 192.498 342.561 192.57L342.415 192.819L333.447 195.103L332.804 194.335L320.659 189.736Z" fill="white"/>
</g>
<path d="M321.147 118.892C321.15 116.127 320.534 113.396 319.341 110.901C318.149 108.406 316.412 106.211 314.258 104.476C312.105 102.742 309.589 101.513 306.897 100.881C304.205 100.248 301.406 100.228 298.705 100.821C296.004 101.415 293.471 102.607 291.292 104.31C289.114 106.012 287.345 108.183 286.117 110.66C284.888 113.138 284.232 115.859 284.196 118.624C284.159 121.389 284.744 124.127 285.907 126.636L285.159 126.034C283.374 127.072 282.44 128.826 282.502 131.473C289.242 136.535 296.887 140.262 305.027 142.455C305.817 141.777 306.46 140.945 306.917 140.01C307.374 139.075 307.635 138.056 307.684 137.016L306.905 136.85C310.954 135.896 314.562 133.605 317.147 130.346C319.731 127.087 321.141 123.052 321.147 118.892ZM305.577 134.265C302.922 134.265 300.327 133.478 298.12 132.003C295.913 130.529 294.193 128.432 293.177 125.98C292.161 123.528 291.895 120.829 292.413 118.225C292.931 115.622 294.209 113.231 296.086 111.354C297.963 109.477 300.355 108.198 302.958 107.68C305.562 107.163 308.26 107.428 310.713 108.444C313.165 109.46 315.261 111.18 316.736 113.387C318.211 115.594 318.998 118.189 318.998 120.844C319.001 124.397 317.593 127.806 315.085 130.323C312.576 132.839 309.171 134.257 305.618 134.265H305.577Z" fill="#006747" fill-opacity="0.92"/>
<path opacity="0.3" d="M321.147 118.892C321.15 116.127 320.534 113.396 319.341 110.901C318.149 108.406 316.412 106.211 314.258 104.476C312.105 102.742 309.589 101.513 306.897 100.881C304.205 100.248 301.406 100.228 298.705 100.821C296.004 101.415 293.471 102.607 291.292 104.31C289.114 106.012 287.345 108.183 286.117 110.66C284.888 113.138 284.232 115.859 284.196 118.624C284.159 121.389 284.744 124.127 285.907 126.636L285.159 126.034C283.374 127.072 282.44 128.826 282.502 131.473C289.242 136.535 296.887 140.262 305.027 142.455C305.817 141.777 306.46 140.945 306.917 140.01C307.374 139.075 307.635 138.056 307.684 137.016L306.905 136.85C310.954 135.896 314.562 133.605 317.147 130.346C319.731 127.087 321.141 123.052 321.147 118.892ZM305.577 134.265C302.922 134.265 300.327 133.478 298.12 132.003C295.913 130.529 294.193 128.432 293.177 125.98C292.161 123.528 291.895 120.829 292.413 118.225C292.931 115.622 294.209 113.231 296.086 111.354C297.963 109.477 300.355 108.198 302.958 107.68C305.562 107.163 308.26 107.428 310.713 108.444C313.165 109.46 315.261 111.18 316.736 113.387C318.211 115.594 318.998 118.189 318.998 120.844C319.001 124.397 317.593 127.806 315.085 130.323C312.576 132.839 309.171 134.257 305.618 134.265H305.577Z" fill="white"/>
<path opacity="0.2" d="M286.675 127.031L292.259 130.643C288.107 127.633 285.73 123.231 285.274 117.242C284.782 120.572 285.268 123.973 286.675 127.031Z" fill="black"/>
<path opacity="0.2" d="M307.248 102.906C310.037 103.674 312.611 105.075 314.772 106.999C316.932 108.924 318.62 111.32 319.704 114.002C318.826 111.453 317.439 109.109 315.628 107.113C313.817 105.116 311.619 103.508 309.168 102.387L307.248 102.906Z" fill="white"/>
<path opacity="0.2" d="M308.068 101.951L306.231 102.677L304.632 102.387L305.047 101.131C306.106 101.156 307.142 101.438 308.068 101.951Z" fill="white"/>
<path opacity="0.2" d="M255.296 239.133L254.507 250.686L255.161 250.862L256.043 239.205L255.296 239.133Z" fill="#263238"/>
</svg>
