<svg width="464" height="519" viewBox="0 0 464 519" fill="none" xmlns="http://www.w3.org/2000/svg">
<path d="M63.6745 415.766H24.8342V428.127H63.6745V415.766Z" fill="#EBEBEB"/>
<path d="M415.104 298.461H376.264V310.822H415.104V298.461Z" fill="#EBEBEB"/>
<path d="M42.012 443.714C35.5386 443.824 19.2226 444.1 12.9701 444.178H3.17166H2.67456V443.67V431.308V430.822H3.2269L22.647 430.9C27.4745 430.9 37.2287 431.054 42.0672 431.121H42.3323V431.375L42.0782 443.736L42.012 443.714ZM42.012 443.714L41.7468 431.353L42.012 431.618C37.1624 431.684 27.4303 431.794 22.5918 431.839L3.17166 431.927L3.724 431.375V443.736L3.21585 443.239H12.8375C18.9906 443.316 35.6822 443.592 42.0561 443.692L42.012 443.714Z" fill="#EBEBEB"/>
<path d="M169.248 208.585C162.775 208.695 146.459 208.971 140.206 209.049H130.408H129.911V208.541V196.179V195.627H130.463L149.883 195.693C154.722 195.693 164.465 195.848 169.303 195.914H169.568V196.168L169.303 208.53L169.248 208.585ZM169.248 208.585L168.983 196.223L169.248 196.489C164.399 196.555 154.677 196.665 149.828 196.71L130.408 196.776L130.96 196.223V208.585L130.452 208.088H140.074C146.238 208.165 162.929 208.441 169.292 208.541L169.248 208.585Z" fill="#EBEBEB"/>
<path d="M147.585 224.171C141.112 224.281 124.796 224.557 118.544 224.635H108.745H108.248V224.127L108.193 211.765V211.213H108.745L128.165 211.279C133.004 211.279 142.747 211.434 147.585 211.5H147.851V211.754L147.585 224.115V224.171ZM147.585 224.171L147.32 211.809L147.585 212.075C142.736 212.141 133.004 212.251 128.165 212.295L108.745 212.362L109.298 211.809V224.171L108.789 223.674H118.411C124.564 223.751 141.256 224.027 147.63 224.127L147.585 224.171Z" fill="#EBEBEB"/>
<path d="M126.011 196.223H87.1709V208.584H126.011V196.223Z" fill="#EBEBEB"/>
<path d="M460.153 431.352H421.312V443.713H460.153V431.352Z" fill="#EBEBEB"/>
<path d="M438.49 49.6328H399.65V61.9941H438.49V49.6328Z" fill="#EBEBEB"/>
<path d="M460.153 77.5809C453.679 77.6913 437.363 77.9675 431.111 78.0448H421.312H420.815V77.5367L420.76 65.1754V64.623H421.312L440.733 64.7004C445.571 64.7004 455.314 64.844 460.153 64.9213H460.418V65.1754L460.153 77.5367V77.5809ZM460.153 77.5809L459.888 65.1754L460.153 65.4405C455.303 65.5068 445.582 65.6173 440.733 65.6504L421.312 65.7277L421.865 65.1754V77.5367L421.357 77.0396H430.978C437.142 77.1058 453.834 77.3931 460.197 77.4925L460.153 77.5809Z" fill="#EBEBEB"/>
<path d="M63.6745 61.9949C57.2012 62.1054 40.8852 62.3816 34.6327 62.4589H24.8343H24.3372V61.9507V49.5894V49.0371H24.8895L44.3096 49.1144C49.1481 49.1144 58.8913 49.258 63.7298 49.3354H63.9949V49.5894L63.7298 61.9507L63.6745 61.9949ZM63.6745 61.9949L63.4094 49.6336L63.6745 49.8988C58.825 49.965 49.0929 50.0755 44.2544 50.1086L24.8343 50.186L25.3866 49.6336V61.9949L24.8784 61.4978H34.5001C40.6532 61.5641 57.3448 61.8513 63.7187 61.9507L63.6745 61.9949Z" fill="#EBEBEB"/>
<path d="M161.416 294.781H0.0012207V304.635H161.416V294.781Z" fill="#EBEBEB"/>
<path d="M147.022 304.635H14.395V331.821H147.022V304.635Z" fill="#EBEBEB"/>
<path d="M147.022 310.015L14.395 312.644V304.635H147.022V310.015Z" fill="#C7C7C7"/>
<path d="M127.039 326.696H34.3787V309.783H127.039V326.696ZM35.4833 325.591H125.934V310.888H35.4833V325.591Z" fill="#DBDBDB"/>
<path d="M95.8093 315.959H65.6187V320.521H95.8093V315.959Z" fill="#DBDBDB"/>
<path d="M13.3236 488.198H8.927L21.7081 331.832H32.9094L13.3236 488.198Z" fill="#EBEBEB"/>
<path d="M32.9094 331.832L31.5948 342.293H20.8574L21.708 331.832H32.9094Z" fill="#C7C7C7"/>
<path d="M148.094 488.198H152.49L139.709 331.832H128.508L148.094 488.198Z" fill="#EBEBEB"/>
<path d="M128.508 331.832L129.822 342.293H140.56L139.709 331.832H128.508Z" fill="#C7C7C7"/>
<path fill-rule="evenodd" clip-rule="evenodd" d="M405.802 229.772C404.477 228.502 403.438 226.834 401.384 226.602C400.577 226.514 400.887 225.895 400.975 225.497C402.566 217.809 404.16 210.124 405.758 202.443C405.88 201.879 406.001 201.427 406.675 201.25C413.16 199.515 416.915 194.224 421.555 189.993C423.916 187.903 425.831 185.358 427.186 182.511C428.541 179.664 429.309 176.573 429.442 173.423C429.553 171.645 430.547 171.037 432.149 171.004C434.115 171.004 435.872 171.877 436.247 173.302C437.281 176.793 437.707 180.436 437.507 184.072C437.241 187.055 435.595 189.673 434.634 192.479C433.927 194.533 432.999 196.522 432.16 198.565C432.591 199.052 433.265 198.985 433.784 199.107L453.259 203.172C455.988 203.735 457.17 204.796 457.17 206.696C457.145 207.857 456.741 208.979 456.019 209.888C455.297 210.798 454.296 211.446 453.171 211.733C452.629 211.877 451.801 211.479 451.58 212.219C451.359 212.959 452.287 213.092 452.685 213.501C454.695 215.6 453.568 218.836 450.475 220.184C449.735 220.515 448.509 220.04 448.266 220.99C448.089 221.753 449.282 221.985 449.702 222.636C451.204 224.912 449.536 228.16 446.388 229.032C445.971 229.074 445.558 229.144 445.151 229.242C444.786 229.386 444.422 229.563 444.952 230.137C447.349 232.733 446.708 235.517 443.45 236.964L442.478 237.395C441.321 237.789 440.066 237.789 438.909 237.395C428.724 235.296 418.543 233.179 408.365 231.043C407.875 231.012 407.396 230.884 406.956 230.666C406.516 230.448 406.124 230.144 405.802 229.772Z" fill="#EBEBEB"/>
<path fill-rule="evenodd" clip-rule="evenodd" d="M379.688 210.143C380.704 205.26 381.743 200.378 382.726 195.495C382.925 194.501 383.124 194.037 384.339 194.302C390.282 195.62 396.236 196.861 402.201 198.025C403.372 198.257 403.461 198.699 403.24 199.726C401.163 209.543 399.119 219.371 397.109 229.21C396.855 230.458 396.446 230.734 395.198 230.458C389.431 229.188 383.654 227.972 377.865 226.857C376.429 226.581 376.33 226.039 376.606 224.78C377.689 219.919 378.661 215.026 379.688 210.143Z" fill="#EBEBEB"/>
<path d="M51.258 0H50.1533V125.612H51.258V0Z" fill="#C7C7C7"/>
<path d="M92.1971 165.601L88.861 172.936H12.5502L9.21411 165.601L41.7136 143.121H59.7087L92.1971 165.601Z" fill="#EBEBEB"/>
<path d="M61.9622 121.447L59.7087 143.121H41.7136L39.449 121.447H61.9622Z" fill="#DBDBDB"/>
<path d="M92.1971 165.602L88.861 172.948H12.5392L9.21411 165.602H92.1971Z" fill="#DBDBDB"/>
<path d="M128.309 0H127.204V71.0194H128.309V0Z" fill="#C7C7C7"/>
<path d="M169.248 111.009L165.912 118.344H89.5902L86.2651 111.009L118.754 88.5176H136.76L169.248 111.009Z" fill="#EBEBEB"/>
<path d="M139.013 66.8555L136.76 88.5181H118.754L116.5 66.8555H139.013Z" fill="#DBDBDB"/>
<path d="M169.248 111.008L165.912 118.343H89.5902L86.2651 111.008H169.248Z" fill="#DBDBDB"/>
<path d="M308.161 136.682H249.525V195.318H308.161V136.682Z" fill="white"/>
<path d="M311.199 133.666H246.476V198.4H311.199V133.666ZM249.503 195.351V136.682H308.15V195.318L249.503 195.351Z" fill="#DBDBDB"/>
<path d="M260.892 191.098H281.163V145.397H260.892V191.098Z" fill="#EBEBEB"/>
<path d="M267.133 177.709H290.552V154.29H267.133V177.709Z" fill="#C7C7C7"/>
<path d="M311.221 200.862V198.365H246.476V200.862H311.221Z" fill="#C7C7C7"/>
<path d="M308.161 54.1406H249.525V112.777H308.161V54.1406Z" fill="white"/>
<path d="M298.782 64.2266H254.551V79.5373H298.782V64.2266Z" fill="#C7C7C7"/>
<path d="M311.199 51.0918H246.476V115.837H311.199V51.0918ZM249.525 112.788V54.1296H308.172V112.788H249.525Z" fill="#DBDBDB"/>
<path d="M290.563 71.7598H267.144V95.1788H290.563V71.7598Z" fill="#EBEBEB"/>
<path d="M311.221 118.333V115.836H246.476V118.333H311.221Z" fill="#C7C7C7"/>
<path d="M308.161 220.902H249.525V279.538H308.161V220.902Z" fill="white"/>
<path d="M300.174 227.408H280.941V259.587H300.174V227.408Z" fill="#EBEBEB"/>
<path d="M311.199 217.852H246.476V282.585H311.199V217.852ZM249.503 279.536V220.934H308.15V279.57L249.503 279.536Z" fill="#DBDBDB"/>
<path d="M290.563 238.51H267.144V261.929H290.563V238.51Z" fill="#C7C7C7"/>
<path d="M311.221 285.083V282.586H246.476V285.083H311.221Z" fill="#C7C7C7"/>
<path d="M372.839 414.748C363.206 415.091 352.27 412.097 346.57 403.702C341.842 396.764 342.207 387.64 345.697 380.261C347.53 376.408 350.198 373.011 353.507 370.319C357.562 367.004 362.345 364.618 366.951 362.243C375.722 357.758 385.819 352.18 388.769 342.006C391.365 333.058 386.316 323.845 378.959 318.808C373.738 315.348 367.538 313.67 361.284 314.024C361.141 313.516 360.986 313.03 360.809 312.544C357.937 304.988 350.801 299.664 343.289 297.3C334.586 294.622 325.227 295.012 316.777 298.404C314.71 299.243 312.721 300.263 310.834 301.453C310.226 301.84 310.779 302.823 311.386 302.436C318.921 297.732 327.851 295.781 336.661 296.913C344.681 298.018 352.579 301.652 357.341 308.38C358.572 310.095 359.513 312.003 360.124 314.024C357.939 314.221 355.784 314.677 353.706 315.383C349.972 316.642 344.283 319.172 344.692 323.944C344.932 325.664 345.757 327.249 347.029 328.433C348.3 329.616 349.941 330.324 351.674 330.44C355.827 330.639 359.307 327.258 360.82 323.668C361.929 320.94 362.187 317.94 361.56 315.063C367.5 314.762 373.379 316.368 378.34 319.647C385.664 324.574 390.492 333.831 387.41 342.58C385.742 347.264 382.207 351.075 378.34 354.08C374.254 357.062 369.898 359.655 365.327 361.824C360.791 363.958 356.504 366.589 352.546 369.667C349.417 372.267 346.859 375.486 345.035 379.123C341.61 385.961 340.682 394.301 343.93 401.371C347.874 409.899 357.02 414.373 365.946 415.555C368.234 415.855 370.544 415.962 372.85 415.875C373.557 415.853 373.568 414.715 372.839 414.748ZM360.688 318.83C360.555 322.773 358.589 326.905 354.91 328.705C354.085 329.137 353.174 329.379 352.244 329.416C351.314 329.452 350.387 329.281 349.531 328.915C347.996 328.228 346.774 326.99 346.106 325.447C344.184 320.763 350.094 317.957 353.629 316.709C355.799 315.95 358.055 315.468 360.345 315.273C360.616 316.438 360.739 317.633 360.71 318.83H360.688Z" fill="#EBEBEB"/>
<path d="M462.97 315.672C455.487 316.36 448.14 318.112 441.152 320.875C434.33 323.505 427.951 327.168 422.24 331.734C416.872 336.152 412.387 341.676 410.255 348.37C410.255 348.447 410.255 348.525 410.177 348.602C407.106 349.643 404.146 350.986 401.34 352.612C396.038 355.572 391.2 359.294 386.979 363.659C378.502 372.321 372.692 383.238 370.243 395.109C369.956 396.534 369.735 397.981 369.558 399.428C369.459 400.146 370.586 400.356 370.663 399.627C372.113 388.283 376.704 377.569 383.919 368.696C387.494 364.273 391.657 360.359 396.292 357.064C400.399 354.06 404.92 351.667 409.713 349.961C408.997 352.721 408.762 355.583 409.017 358.423C409.338 361.737 410.398 365.194 413.049 367.348C414.191 368.31 415.588 368.917 417.07 369.094C418.78 369.207 420.479 368.757 421.909 367.812C424.571 366.155 426.511 363.556 427.344 360.533C427.736 359.045 427.802 357.491 427.539 355.975C427.276 354.46 426.69 353.019 425.819 351.75C424.956 350.562 423.847 349.574 422.568 348.851C421.29 348.129 419.87 347.69 418.407 347.564C416.068 347.348 413.71 347.562 411.448 348.193C413.302 343.065 416.372 338.464 420.396 334.783C425.503 330.134 431.33 326.344 437.65 323.559C444.07 320.604 450.865 318.541 457.844 317.428C459.556 317.163 461.268 316.942 463.003 316.788C463.127 316.753 463.236 316.679 463.312 316.575C463.389 316.472 463.428 316.345 463.424 316.217C463.421 316.088 463.374 315.964 463.291 315.866C463.209 315.767 463.095 315.699 462.97 315.672ZM411.591 349.431C414.33 348.55 417.254 348.413 420.064 349.033C421.477 349.415 422.772 350.142 423.835 351.148C424.897 352.155 425.693 353.409 426.151 354.799C426.611 356.251 426.734 357.789 426.51 359.296C426.286 360.802 425.721 362.238 424.858 363.493C423.157 366.012 420.064 368.508 416.827 367.912C413.591 367.315 411.569 364.311 410.752 361.284C409.944 358.042 409.902 354.657 410.63 351.397C410.752 350.778 410.928 350.171 411.094 349.574L411.591 349.431Z" fill="#EBEBEB"/>
<path d="M284.134 474.224C281.405 460.526 280.058 446.066 283.769 432.412C286.719 421.564 293.325 411.424 302.935 405.37C307.696 402.38 313.123 400.615 318.732 400.233C324.698 399.802 330.685 400.443 336.639 399.946C342.262 399.471 347.686 397.737 351.895 393.97C355.845 390.328 358.551 385.536 359.627 380.272C361.947 369.225 356.501 358.035 347.763 351.385C339.246 344.911 326.719 342.426 317.119 348.071C316.068 348.706 315.083 349.446 314.181 350.28C309.852 347.774 305.009 346.289 300.019 345.939C288.785 345.165 277.926 351.075 271.784 360.421C270.328 362.658 269.169 365.076 268.337 367.612C268.061 368.452 269.442 368.717 269.674 367.933C271.412 362.869 274.438 358.345 278.455 354.806C282.473 351.267 287.342 348.836 292.585 347.75C299.647 346.462 306.937 347.714 313.165 351.285C307.884 356.809 305.819 365.646 309.332 372.594C311.662 377.234 317.064 381.155 322.245 378.438C324.445 377.208 326.119 375.216 326.951 372.837C327.801 370.156 327.735 367.269 326.763 364.63C324.952 359.195 320.721 354.621 316.048 351.451L315.385 351.031C315.864 350.629 316.37 350.26 316.899 349.926C325.868 343.972 338.219 346.137 346.504 352.257C355.043 358.565 360.544 369.391 358.291 380.062C357.245 385.184 354.576 389.833 350.679 393.318C346.437 397.03 341.002 398.444 335.479 398.786C329.956 399.129 324.156 398.587 318.511 399.018C313.293 399.374 308.218 400.883 303.654 403.437C294.573 408.562 287.812 417.367 284.09 426.999C279.417 439.151 279.406 452.584 281.162 465.298C281.593 468.458 282.146 471.606 282.775 474.743C282.985 475.495 284.3 475.086 284.134 474.224ZM322.124 358.852C325.36 363.072 327.934 369.181 324.797 374.163C324.176 375.23 323.307 376.131 322.262 376.789C321.218 377.447 320.029 377.842 318.799 377.941C315.86 378.007 313.275 375.886 311.618 373.6C306.956 367.027 308.901 357.46 314.391 351.915C317.36 353.749 319.979 356.098 322.124 358.852Z" fill="#EBEBEB"/>
<path d="M0.0012207 504.748C148.414 504.074 314.91 504.063 463.323 504.748C314.91 505.433 148.414 505.422 0.0012207 504.748Z" fill="#263238"/>
<path d="M364.499 501.698C368.288 500.428 364.919 489.47 360.699 486.078C359.351 484.974 354.369 482.477 348.117 479.45C334.363 472.822 314.579 463.985 314.579 463.985L331.436 392.59L262.77 392.965C262.77 392.965 243.99 460.019 244.123 464.184C244.123 464.438 244.123 464.703 244.123 464.957C244.708 483.88 245.647 499.367 247.205 500.306C251.392 503.002 360.677 502.98 364.499 501.698Z" fill="#EB9481"/>
<path d="M364.499 501.697C360.677 502.978 251.381 503 247.227 500.36C245.669 499.388 244.73 483.901 244.145 465.011C244.145 464.757 244.145 464.492 244.145 464.237C244.635 460.85 245.351 457.499 246.288 454.207H316.91L314.59 464.039C314.59 464.039 334.375 472.876 348.128 479.504C354.38 482.52 359.362 485.027 360.71 486.132C364.93 489.468 368.288 500.415 364.499 501.697Z" fill="#EBEBEB"/>
<path d="M365.725 502.306C361.837 503.621 250.563 503.488 246.332 500.793C244.697 499.787 243.78 483.582 243.217 463.952C243.217 463.742 243.217 463.543 243.217 463.333L315.021 462.615V463.841C315.021 463.841 357.584 482.941 361.936 486.399C366.289 489.856 369.614 501.025 365.725 502.306Z" fill="#FFC727"/>
<path d="M364.477 497.997C345.698 497.511 270.016 497.334 251.436 498.285C251.281 498.285 251.281 498.395 251.436 498.406C270.016 499.29 345.72 498.848 364.477 498.307C364.864 498.284 364.864 498.008 364.477 497.997Z" fill="#263238"/>
<path d="M322.996 462.857C315.606 461.466 306.581 462.592 300.903 467.84C300.682 468.049 300.98 468.348 301.212 468.281C308.271 466.013 315.551 464.505 322.93 463.785C323.038 463.771 323.138 463.72 323.213 463.64C323.288 463.56 323.333 463.457 323.341 463.348C323.349 463.239 323.319 463.131 323.256 463.042C323.193 462.952 323.102 462.887 322.996 462.857Z" fill="#263238"/>
<path d="M328.321 466.051C320.931 464.659 311.905 465.786 306.227 471.033C306.006 471.243 306.305 471.552 306.537 471.475C313.595 469.206 320.876 467.699 328.255 466.979C328.363 466.964 328.463 466.913 328.538 466.833C328.613 466.754 328.658 466.651 328.665 466.542C328.673 466.433 328.643 466.324 328.58 466.235C328.518 466.146 328.426 466.081 328.321 466.051Z" fill="#263238"/>
<path d="M333.646 469.265C326.255 467.884 317.23 469 311.552 474.258C311.331 474.457 311.629 474.766 311.861 474.689C318.92 472.42 326.2 470.913 333.579 470.193C333.688 470.178 333.788 470.127 333.862 470.047C333.937 469.968 333.982 469.865 333.99 469.756C333.998 469.647 333.968 469.538 333.905 469.449C333.842 469.359 333.751 469.294 333.646 469.265Z" fill="#263238"/>
<path d="M332.607 446.74C329.713 442.741 324.311 444.531 321.229 447.115C316.015 451.652 312.087 457.481 309.84 464.017C309.83 464.045 309.826 464.076 309.829 464.105C309.832 464.135 309.842 464.164 309.858 464.19C309.874 464.215 309.896 464.237 309.921 464.253C309.947 464.269 309.976 464.279 310.006 464.282C310.006 464.845 310.536 465.387 311.166 465.21C317.263 463.001 324.068 461.299 329.293 457.245C332.342 454.881 335.347 450.518 332.607 446.74ZM319.716 459.908C316.744 461.079 313.728 462.117 310.801 463.398C312.925 460.043 315.218 456.799 317.672 453.677C318.882 452.187 320.189 450.778 321.583 449.457C323.792 447.458 332.486 443.216 331.171 451.313C330.453 455.776 323.262 458.494 319.716 459.908Z" fill="#263238"/>
<path d="M291.082 462.063C297.158 464.67 304.151 464.548 310.624 465.178C310.768 465.179 310.909 465.146 311.038 465.082C311.167 465.018 311.278 464.925 311.364 464.81C311.45 464.695 311.508 464.561 311.533 464.42C311.558 464.278 311.549 464.133 311.508 463.996C311.538 463.986 311.566 463.97 311.588 463.947C311.611 463.925 311.628 463.897 311.638 463.867C311.647 463.836 311.65 463.804 311.644 463.773C311.639 463.741 311.626 463.712 311.607 463.686C307.775 457.939 302.504 453.296 296.318 450.22C292.673 448.508 286.995 448.144 285.205 452.739C283.515 457.091 287.525 460.549 291.082 462.063ZM287.768 456.804C284.454 449.292 293.943 451.204 296.606 452.573C298.291 453.492 299.911 454.526 301.455 455.666C304.618 458.065 307.656 460.624 310.558 463.333C307.398 462.836 304.228 462.604 301.057 462.228C297.224 461.753 289.58 460.936 287.746 456.804H287.768Z" fill="#263238"/>
<path d="M164.752 348.214C164.752 348.214 152.446 392.777 173.932 405.966C188.293 414.804 251.69 402.597 254.385 394.754C259.478 379.951 259.489 374.527 259.489 374.527L243.206 453.025L323.085 453.964C323.085 453.964 338.075 389.021 334.22 320.1C332.795 294.615 298.539 286.96 274.711 299.575C251.612 311.87 210.231 345.972 210.231 345.972L164.752 348.214Z" fill="#37474F"/>
<path d="M249.944 407.028C254.253 396.489 253.91 392.358 264.67 359.659C266.106 355.241 267.31 350.822 268.591 346.403C269.917 341.819 271.497 337.256 272.502 332.595C272.502 332.374 272.922 332.462 272.855 332.683C271.618 336.726 270.812 340.902 269.74 344.989C268.669 349.076 267.63 352.998 266.515 356.975C266.029 358.698 265.52 360.41 265.034 362.134L265.664 361.029C266.603 359.416 267.553 357.803 268.525 356.213C270.536 352.899 272.944 349.872 274.744 346.447C274.855 346.249 275.186 346.447 275.065 346.624C273.032 349.938 271.585 353.517 269.685 356.864C268.757 358.488 267.796 360.079 266.802 361.659C265.969 363.151 265.012 364.57 263.941 365.901C262.471 370.949 259.323 383.111 257.755 388.127C252.806 403.935 254.441 398.787 250.74 407.271C250.552 407.79 249.757 407.481 249.944 407.028Z" fill="#263238"/>
<path d="M286.332 440.058C274.302 439.925 262.306 439.241 250.276 439.02C250.055 439.02 250.022 438.655 250.276 438.655C262.261 438.589 274.225 438.114 286.211 438.257C298.196 438.401 310.237 438.998 322.256 439.362C322.554 439.362 322.61 439.848 322.256 439.848C310.282 439.914 298.318 440.179 286.332 440.058Z" fill="#263238"/>
<path d="M256.859 436.037C257.964 430.723 259.5 425.509 260.903 420.273C262.306 415.037 263.708 409.79 265.156 404.564C268.05 394.103 271.066 383.675 274.081 373.247C275.783 367.326 277.638 361.438 279.45 355.572C279.459 355.537 279.481 355.507 279.512 355.488C279.543 355.47 279.581 355.464 279.616 355.473C279.651 355.482 279.681 355.504 279.7 355.535C279.718 355.566 279.724 355.603 279.715 355.639C274.354 376.671 268.598 397.598 262.449 418.417C260.704 424.316 259.135 430.303 257.047 436.092C257.037 436.113 257.019 436.129 256.998 436.139C256.977 436.148 256.953 436.149 256.93 436.143C256.908 436.136 256.889 436.122 256.876 436.103C256.863 436.083 256.857 436.06 256.859 436.037Z" fill="#263238"/>
<path d="M173.932 405.955C152.446 392.776 164.752 348.214 164.752 348.214L203.073 346.336L255.258 392.158C254.982 392.975 254.695 393.837 254.385 394.732C251.69 402.597 188.282 414.77 173.932 405.955Z" fill="#263238"/>
<path d="M323.483 452.153C323.229 453.346 323.085 453.954 323.085 453.954L243.206 453.026L255.733 392.611L323.483 452.153Z" fill="#263238"/>
<path d="M1.16104 513.121C0.443 517.053 11.6775 519.384 16.6265 517.307C18.2061 516.645 22.8347 513.507 28.4906 509.475C40.9072 500.638 58.1842 487.536 58.1842 487.536L116.875 491.082L149.629 430.712C149.629 430.712 95.6437 427.597 91.943 425.686L91.3686 425.299C74.5003 416.705 60.4378 410.066 58.8691 410.938C54.4946 413.369 1.89012 509.155 1.16104 513.121Z" fill="#EB9481"/>
<path d="M102.294 427.243L71.4184 488.332L58.2286 487.537C58.2286 487.537 40.9626 500.605 28.535 509.475C22.8901 513.496 18.2726 516.645 16.6819 517.307C11.6777 519.384 0.443176 517.053 1.21645 513.11C1.98972 509.166 54.4948 413.369 58.8141 410.939C60.4048 410.055 74.4562 416.683 91.3025 425.299C91.5455 425.41 91.7664 425.542 91.9874 425.653C92.9043 426.161 96.8921 426.702 102.294 427.243Z" fill="#EBEBEB"/>
<path d="M0.0343502 513.904C0.763434 509.861 54.4726 412.407 58.8692 409.999C60.5262 409.049 75.1852 416.052 92.6501 425.011L93.2024 425.298L59.2558 488.563L58.1512 487.955C58.1512 487.955 20.9568 516.058 15.8312 518.201C10.7055 520.344 -0.70578 517.925 0.0343502 513.904Z" fill="#FFC727"/>
<path d="M4.41976 514.876C13.8758 498.67 50.4956 432.412 58.6039 415.676C58.6702 415.544 58.604 415.488 58.5045 415.621C48.7834 431.473 12.7048 498.029 4.15464 514.732C3.96685 515.086 4.22092 515.218 4.41976 514.876Z" fill="#263238"/>
<path d="M55.2128 495.468C59.985 489.668 63.3542 481.206 61.4653 473.728C61.3879 473.441 60.9792 473.551 60.935 473.794C59.5237 481.072 57.3388 488.179 54.4174 494.993C54.3626 495.098 54.35 495.22 54.3823 495.334C54.4145 495.448 54.4891 495.545 54.5908 495.606C54.6925 495.666 54.8136 495.686 54.9293 495.66C55.0449 495.635 55.1464 495.566 55.2128 495.468Z" fill="#263238"/>
<path d="M49.8329 498.583C54.6051 492.783 57.9633 484.332 56.0854 476.854C56.008 476.556 55.5993 476.666 55.5441 476.909C54.1379 484.189 51.9528 491.296 49.0265 498.108C48.9871 498.212 48.986 498.328 49.0232 498.433C49.0604 498.539 49.1337 498.627 49.23 498.684C49.3264 498.741 49.4397 498.762 49.55 498.743C49.6603 498.725 49.7605 498.668 49.8329 498.583Z" fill="#263238"/>
<path d="M44.4421 501.698C49.2142 495.899 52.5835 487.448 50.6945 479.969C50.6282 479.682 50.2195 479.782 50.1643 480.036C48.7564 487.311 46.5714 494.414 43.6467 501.223C43.5919 501.328 43.5793 501.45 43.6115 501.564C43.6437 501.678 43.7184 501.776 43.8201 501.836C43.9218 501.897 44.0429 501.917 44.1585 501.891C44.2742 501.865 44.3756 501.796 44.4421 501.698Z" fill="#263238"/>
<path d="M64.6798 511.64C69.5846 511.033 70.6119 505.432 69.8387 501.488C68.3729 494.736 65.1576 488.489 60.5152 483.372C60.4968 483.346 60.4726 483.326 60.4448 483.312C60.417 483.298 60.3862 483.291 60.3551 483.291C60.3239 483.291 60.2931 483.298 60.2653 483.312C60.2375 483.326 60.2133 483.346 60.1949 483.372C60.0718 483.296 59.9327 483.251 59.7888 483.239C59.6449 483.228 59.5003 483.25 59.3668 483.305C59.2334 483.36 59.1147 483.446 59.0206 483.555C58.9264 483.665 58.8594 483.795 58.8251 483.935C57.864 490.386 56.0192 497.103 57.1239 503.731C57.6762 507.487 60.0513 512.226 64.6798 511.64ZM59.3553 493.965C59.753 490.795 60.3053 487.669 60.5926 484.476C62.5057 487.955 64.2422 491.527 65.7956 495.181C66.5251 496.96 67.134 498.787 67.6183 500.649C68.3032 503.532 67.8282 513.198 61.3658 508.149C57.7977 505.399 58.8803 497.788 59.3332 493.999L59.3553 493.965Z" fill="#263238"/>
<path d="M71.2527 467.862C66.0497 471.938 62.7909 478.135 59.1013 483.493C59.0305 483.619 58.9905 483.76 58.9846 483.904C58.9788 484.049 59.0072 484.193 59.0675 484.324C59.1278 484.455 59.2183 484.571 59.3317 484.66C59.4451 484.75 59.5781 484.812 59.7199 484.84C59.7148 484.87 59.7165 484.901 59.7249 484.93C59.7333 484.958 59.7482 484.985 59.7684 485.007C59.7886 485.03 59.8137 485.047 59.8416 485.058C59.8696 485.07 59.8997 485.074 59.9298 485.072C66.8144 484.488 73.4242 482.103 79.0958 478.157C82.3546 475.804 85.4146 470.999 82.2441 467.21C79.2173 463.631 74.2905 465.487 71.2527 467.862ZM77.472 467.486C85.6465 468.193 79.4051 475.594 76.9307 477.24C75.3116 478.273 73.625 479.195 71.8823 480.002C68.2745 481.616 64.5876 483.046 60.8356 484.288C62.8019 481.769 64.5252 479.096 66.359 476.555C68.5794 473.407 72.9649 467.099 77.472 467.486Z" fill="#263238"/>
<path d="M215.291 337.311C216.457 348.19 217.073 359.122 217.136 370.064C217.136 370.064 293.005 409.832 296.473 447.623C297.699 461.012 295.91 486.099 269.663 497.521C240.334 510.258 78.2341 501.52 78.2341 501.52L98.4828 426.888H169.977C169.977 426.888 119.527 434.919 114.048 401.304C108.955 370.053 128.143 337.344 128.143 337.344L215.291 337.311Z" fill="#37474F"/>
<path d="M94.9809 497.809C96.7594 489.215 98.4938 480.565 100.504 472.015C102.515 463.465 104.625 454.904 106.834 446.409C107.475 444 108.127 441.614 108.778 439.217C109.088 438.113 109.397 436.931 109.728 435.793C110.06 434.655 110.325 433.462 110.778 432.368C110.778 432.247 110.966 432.368 110.954 432.435C110.656 434.668 110.225 436.881 109.662 439.063C109.209 441.139 108.778 443.216 108.325 445.293C107.397 449.557 106.444 453.817 105.464 458.074C103.498 466.602 101.333 475.053 99.1124 483.481C97.8531 488.283 96.5864 493.07 95.3123 497.842C95.2681 498.207 94.9146 498.096 94.9809 497.809Z" fill="#263238"/>
<path d="M145.299 426.857C151.087 426.437 156.887 426.249 162.697 426.128C168.508 426.006 174.308 426.072 180.118 426.183C185.929 426.293 191.728 426.592 197.517 427.111C203.315 427.545 209.077 428.379 214.761 429.607L210.441 429.044L206.122 428.635C203.228 428.392 200.345 428.149 197.45 428.017C191.673 427.685 185.884 427.453 180.085 427.354C174.285 427.254 168.497 427.111 162.697 427.033L145.299 426.857Z" fill="#263238"/>
<path d="M144.028 343.432C141.437 350.08 139.188 356.857 137.29 363.735C135.343 370.585 133.962 377.583 133.158 384.658C132.77 388.176 132.696 391.721 132.938 395.252C133.113 398.745 133.988 402.167 135.511 405.315C136.284 406.842 137.333 408.213 138.605 409.358C139.914 410.502 141.34 411.505 142.858 412.352C145.955 414.014 149.226 415.329 152.612 416.274C159.472 418.099 166.469 419.366 173.534 420.063C180.604 420.891 187.718 421.466 194.832 422.184C201.985 422.795 209.087 423.902 216.086 425.498C219.643 426.298 223.079 427.564 226.304 429.265C229.479 431.023 232.443 433.135 235.142 435.561L236.744 436.986H234.534L176.727 436.213L147.817 435.981C138.185 435.981 128.552 435.926 118.908 436.18C128.541 435.628 138.174 435.473 147.817 435.296C157.461 435.119 167.094 435.108 176.727 435.086H205.647L234.556 435.351L233.993 436.754C231.372 434.43 228.496 432.411 225.421 430.734C222.312 429.114 219.003 427.914 215.578 427.166C208.657 425.643 201.647 424.559 194.589 423.918C187.508 423.156 180.394 422.548 173.28 421.709C166.134 420.965 159.06 419.647 152.126 417.765C148.63 416.782 145.263 415.388 142.095 413.611C140.515 412.692 139.034 411.611 137.677 410.386C136.314 409.125 135.191 407.628 134.363 405.967C132.808 402.65 131.932 399.056 131.789 395.395C131.593 391.798 131.719 388.189 132.164 384.614C133.08 377.499 134.61 370.476 136.738 363.625C138.781 356.76 141.215 350.018 144.028 343.432Z" fill="#263238"/>
<path d="M207.017 336.527C207.017 336.489 207.032 336.452 207.059 336.425C207.086 336.398 207.122 336.383 207.161 336.383C207.199 336.383 207.235 336.398 207.262 336.425C207.289 336.452 207.304 336.489 207.304 336.527C207.602 339.112 208.508 353.87 208.961 359.426C209.116 361.415 208.961 364.95 211.9 364.95C214.186 364.95 215.324 362.464 215.578 360.531C215.887 358.167 214.617 341.034 214.33 335.334C214.33 335.168 214.584 335.157 214.606 335.334C215.655 341.045 217.699 359.228 217.092 361.779C216.617 363.768 215.589 365.668 213.557 366.342C213.729 368.586 213.695 370.842 213.457 373.08C213.457 373.268 212.861 373.312 212.816 373.169C212.916 371.832 212.209 366.651 212.231 366.629C211.525 366.691 210.815 366.569 210.17 366.275C209.525 365.98 208.968 365.524 208.552 364.95C206.531 362.221 206.973 343.099 207.017 336.527Z" fill="#263238"/>
<path d="M198.82 380.305C200.897 378.88 203.029 377.588 205.183 376.306C207.337 375.025 209.524 373.832 211.734 372.65C213.943 371.468 216.152 370.352 218.461 369.336C220.77 368.319 223.023 367.27 225.398 366.441C224.294 367.093 223.189 367.679 222.084 368.319L218.77 370.142C216.561 371.368 214.352 372.539 212.142 373.71C209.933 374.881 207.724 376.03 205.514 377.124L202.2 378.77C201.107 379.267 199.98 379.819 198.82 380.305Z" fill="#263238"/>
<path d="M144.979 368.442C149 368.442 161.549 369.16 167.536 364.112C172.374 360.024 174.495 346.061 175.335 342.228C175.335 342.04 175.655 342.107 175.655 342.283C175.752 346.612 175.204 350.93 174.031 355.097C173.059 358.632 171.756 362.576 168.895 365.04C166.034 367.503 161.803 368.563 157.958 369.038C153.639 369.543 149.272 369.484 144.967 368.862C144.924 368.846 144.886 368.817 144.859 368.779C144.833 368.74 144.82 368.694 144.821 368.648C144.822 368.601 144.838 368.556 144.866 368.519C144.895 368.482 144.934 368.455 144.979 368.442Z" fill="#263238"/>
<path d="M212.386 261.265C225.122 280.199 242.808 314.676 262.516 318.432C281.295 322.011 315.242 280.575 325.007 266.656C328.553 261.618 291.348 237.238 286.686 241.436C277.904 249.346 260.925 271.859 257.964 271.472C255.004 271.086 243.802 261.42 220.405 244.474C206.255 234.189 198.047 239.923 212.386 261.265Z" fill="#EB9481"/>
<path d="M321.516 270.811C325.603 267.64 343.09 251.446 346.924 245.845C350.757 240.245 360.71 223.354 356.722 219.963C352.734 216.571 349.431 221.288 349.431 221.288C349.431 221.288 352.502 213.489 348.172 210.44C343.842 207.392 338.959 214.859 338.959 214.859C338.959 214.859 341.522 206.618 336.993 203.89C332.463 201.161 328.807 209.535 328.807 209.535C328.807 209.535 331.491 202.1 326.819 201.426C321.196 200.609 317.771 214.859 313.054 220.714C311.95 222.051 289.403 246.121 289.403 246.121L321.516 270.811Z" fill="#EB9481"/>
<path d="M329.149 208.86C326.62 219.343 323.692 223.485 316.07 230.865C315.927 231.008 316.07 231.262 316.28 231.13C324.388 224.579 328.807 219.906 329.669 208.959C329.713 208.429 329.271 208.362 329.149 208.86Z" fill="#263238"/>
<path d="M339.169 214.064C335.579 224.713 332.453 229.242 325.04 237.56C324.93 237.681 325.129 237.869 325.239 237.759C333.193 230.203 337.49 225.442 339.677 214.329C339.777 213.832 339.335 213.577 339.169 214.064Z" fill="#263238"/>
<path d="M349.067 221.697C344.847 231.761 341.632 236.864 333.403 244.023C333.36 244.055 333.332 244.103 333.325 244.156C333.318 244.208 333.332 244.262 333.364 244.304C333.396 244.347 333.444 244.375 333.497 244.382C333.55 244.389 333.603 244.375 333.646 244.343C342.748 237.859 346.813 231.518 349.354 221.863C349.531 221.2 349.332 221.068 349.067 221.697Z" fill="#263238"/>
<path d="M282.355 248.287C282.355 248.287 284.355 234.931 286.531 229.253C288.707 223.575 304.57 205.47 308.713 208.629C314.026 212.771 306.912 225.066 302.648 230.623C302.648 230.623 314.954 240.2 311.762 250.12C308.569 260.04 282.355 248.287 282.355 248.287Z" fill="#EB9481"/>
<path d="M309.796 210.252C311.917 217.521 305.841 224.47 302.063 230.137C302.004 230.219 301.966 230.314 301.952 230.414C301.938 230.514 301.948 230.616 301.982 230.712C302.015 230.807 302.071 230.893 302.145 230.962C302.219 231.031 302.308 231.081 302.405 231.109C307.299 235.461 312.922 243.028 312.093 249.888C312.085 249.929 312.092 249.972 312.115 250.007C312.138 250.042 312.174 250.067 312.215 250.076C312.256 250.085 312.299 250.077 312.334 250.054C312.369 250.031 312.394 249.995 312.403 249.954C314.292 242.719 309.365 234.831 303.709 230.402C307.631 224.613 313.419 217.378 309.818 210.197C309.84 210.186 309.785 210.197 309.796 210.252Z" fill="#263238"/>
<path d="M276.954 246.264L315.617 282.221C315.617 282.221 278.235 326.497 262.593 322.564C244.631 318.057 220.162 284.387 207.249 254.284C198.312 233.461 211.877 233.406 223.753 243.591C236.136 254.196 257.467 269.44 258.859 268.998C260.251 268.557 276.954 246.264 276.954 246.264Z" fill="#FFC727"/>
<path d="M227.387 246.596C227.102 246.878 226.88 247.217 226.735 247.591C226.484 248.129 226.429 248.739 226.581 249.314C226.669 249.855 226.735 250.363 226.857 250.871C226.997 250.359 227.108 249.839 227.188 249.314C227.234 248.855 227.385 248.412 227.63 248.021C227.807 247.754 228.032 247.522 228.293 247.336L227.387 246.596ZM204.498 244.95C204.505 244.98 204.505 245.01 204.498 245.039L204.598 244.873L204.498 244.95ZM286.465 296.053C286.009 296.001 285.571 295.846 285.184 295.6C284.829 295.375 284.54 295.06 284.346 294.688C284.152 294.315 284.06 293.898 284.079 293.479C284.055 292.839 283.845 292.22 283.477 291.697C283.108 291.173 282.596 290.768 282.002 290.529C281.434 290.375 280.836 290.375 280.268 290.529C279.728 290.603 279.193 290.71 278.666 290.85C279.207 290.982 279.715 291.037 280.268 291.148C280.731 291.185 281.18 291.324 281.582 291.557C281.937 291.771 282.231 292.072 282.438 292.432C282.645 292.791 282.757 293.197 282.764 293.611C282.763 294.246 282.951 294.868 283.303 295.397C283.655 295.926 284.155 296.338 284.742 296.583C285.288 296.817 285.892 296.882 286.476 296.771C287.017 296.649 287.581 296.583 288.045 296.45C287.528 296.282 287 296.149 286.465 296.053ZM238.887 273.583C238.422 273.539 237.973 273.392 237.572 273.153C237.225 272.921 236.941 272.604 236.748 272.234C236.555 271.863 236.458 271.45 236.468 271.032C236.456 270.389 236.252 269.764 235.882 269.238C235.512 268.712 234.992 268.31 234.391 268.082C233.834 267.888 233.235 267.846 232.656 267.961C232.115 268.082 231.552 268.149 231.088 268.281C231.603 268.419 232.127 268.522 232.656 268.59C233.122 268.624 233.572 268.768 233.971 269.01C234.333 269.22 234.636 269.519 234.85 269.879C235.065 270.238 235.184 270.646 235.197 271.065C235.184 271.708 235.368 272.34 235.723 272.877C236.078 273.414 236.588 273.83 237.186 274.07C237.741 274.302 238.353 274.36 238.942 274.235C239.466 274.172 239.986 274.08 240.5 273.959C239.914 273.793 239.395 273.727 238.887 273.617V273.583ZM303.278 270.269C303.209 269.74 303.106 269.216 302.969 268.701C302.847 269.176 302.781 269.64 302.671 270.137V270.269C302.646 270.732 302.513 271.182 302.284 271.584C302.077 271.943 301.779 272.241 301.42 272.448C301.062 272.656 300.655 272.765 300.24 272.766C299.601 272.772 298.977 272.963 298.444 273.316C297.911 273.669 297.491 274.169 297.236 274.754C297.027 275.308 296.974 275.907 297.081 276.489C297.152 277.025 297.255 277.556 297.39 278.08C297.534 277.557 297.641 277.026 297.711 276.489C297.75 276.027 297.906 275.582 298.163 275.196C298.387 274.843 298.699 274.554 299.07 274.36C299.44 274.166 299.856 274.074 300.273 274.092C300.913 274.067 301.532 273.858 302.055 273.49C302.579 273.121 302.984 272.609 303.223 272.015C303.368 271.616 303.421 271.189 303.378 270.767C303.354 270.624 303.321 270.484 303.278 270.347V270.269ZM253.192 290.087C253.125 289.558 253.022 289.034 252.883 288.519C252.761 289.027 252.684 289.535 252.563 290.087C252.533 290.549 252.401 290.998 252.176 291.402C251.964 291.759 251.663 292.055 251.303 292.262C250.943 292.469 250.536 292.58 250.121 292.584C249.483 292.589 248.86 292.779 248.327 293.129C247.794 293.48 247.374 293.977 247.117 294.561C246.911 295.115 246.858 295.714 246.962 296.296C247.033 296.835 247.136 297.37 247.271 297.897C247.413 297.37 247.524 296.836 247.603 296.296C247.64 295.838 247.792 295.397 248.044 295.014C248.269 294.662 248.582 294.375 248.953 294.181C249.323 293.987 249.737 293.894 250.154 293.909C250.794 293.885 251.413 293.676 251.936 293.308C252.46 292.939 252.865 292.427 253.104 291.833C253.289 291.296 253.32 290.718 253.192 290.165V290.087ZM272.579 312.181C272.242 312.489 271.825 312.696 271.375 312.777C270.968 312.876 270.542 312.864 270.142 312.742C269.741 312.619 269.381 312.391 269.1 312.081C268.629 311.647 268.042 311.359 267.411 311.251C266.78 311.143 266.131 311.221 265.543 311.474C265.008 311.709 264.552 312.092 264.228 312.578C263.941 313.031 263.587 313.451 263.333 313.926C263.808 313.639 264.228 313.308 264.681 313.031C265.023 312.715 265.442 312.494 265.896 312.391C266.296 312.277 266.718 312.27 267.122 312.371C267.525 312.472 267.894 312.677 268.194 312.965C268.634 313.424 269.204 313.739 269.826 313.869C270.449 313.999 271.097 313.938 271.684 313.694C272.243 313.469 272.723 313.085 273.065 312.589C273.353 312.148 273.673 311.728 273.927 311.242C273.452 311.628 273.032 311.938 272.535 312.236L272.579 312.181ZM275.893 267.464C275.55 267.771 275.13 267.981 274.678 268.071C274.27 268.164 273.845 268.148 273.445 268.024C273.046 267.9 272.686 267.672 272.403 267.364C271.937 266.924 271.352 266.632 270.72 266.526C270.089 266.42 269.44 266.504 268.857 266.768C268.318 267.002 267.859 267.385 267.531 267.872C267.255 268.314 266.901 268.734 266.636 269.22C267.122 268.922 267.531 268.601 267.984 268.314C268.327 267.996 268.751 267.779 269.21 267.685C269.61 267.571 270.032 267.564 270.436 267.665C270.839 267.766 271.208 267.971 271.508 268.259C271.83 268.598 272.223 268.86 272.66 269.027C273.096 269.194 273.564 269.262 274.03 269.225C274.496 269.188 274.948 269.047 275.352 268.813C275.757 268.579 276.104 268.258 276.368 267.872C276.667 267.419 276.976 267 277.241 266.525C276.744 266.911 276.335 267.221 275.849 267.519L275.893 267.464Z" fill="white"/>
<path d="M304.283 289.425C298.693 284.476 276.567 263.421 272.093 258.549C271.784 258.207 271.927 257.931 272.292 258.24C289.392 272.601 299.235 284.067 304.471 289.171C304.57 289.281 304.427 289.502 304.283 289.425Z" fill="#263238"/>
<path opacity="0.1" d="M260.019 321.725C242.344 314.854 219.599 282.962 207.293 254.34C202.377 242.874 204.277 237.704 208.961 237.074C224.227 260.482 244.333 294.948 260.019 321.725Z" fill="#000102"/>
<path d="M114.313 357.682L220.869 369.215C220.273 371.214 231.419 305.089 222.825 248.331C221.046 236.566 202.156 233.649 193.153 238.09C153.705 257.555 114.456 356.809 114.313 357.682Z" fill="#FFC727"/>
<path d="M202.267 334.594C201.901 334.891 201.469 335.096 201.007 335.19C200.602 335.275 200.181 335.255 199.785 335.134C199.389 335.012 199.031 334.792 198.743 334.494C198.285 334.039 197.698 333.735 197.062 333.624C196.425 333.514 195.771 333.601 195.186 333.876C194.651 334.137 194.197 334.538 193.871 335.036C193.584 335.455 193.275 335.864 192.976 336.339C193.445 336.076 193.896 335.78 194.324 335.455C194.694 335.177 195.103 334.957 195.539 334.803C195.945 334.705 196.369 334.71 196.772 334.819C197.176 334.927 197.546 335.134 197.848 335.422C198.293 335.875 198.862 336.185 199.483 336.315C200.104 336.445 200.75 336.388 201.339 336.151C201.893 335.924 202.369 335.54 202.709 335.047C202.996 334.605 203.316 334.185 203.57 333.699C203.119 333.972 202.684 334.271 202.267 334.594ZM134.164 340.382C133.826 340.698 133.404 340.909 132.949 340.99C132.54 341.088 132.113 341.077 131.71 340.959C131.307 340.84 130.942 340.619 130.651 340.316C130.195 339.869 129.615 339.569 128.987 339.455C128.359 339.341 127.711 339.417 127.127 339.675C126.604 339.928 126.152 340.308 125.812 340.78C125.483 341.21 125.18 341.66 124.906 342.127C125.377 341.863 125.828 341.564 126.254 341.233C126.6 340.923 127.018 340.702 127.469 340.592C127.869 340.491 128.288 340.494 128.686 340.6C129.084 340.706 129.449 340.913 129.745 341.2C130.065 341.543 130.458 341.809 130.896 341.98C131.333 342.15 131.803 342.22 132.271 342.184C132.739 342.148 133.193 342.007 133.599 341.771C134.005 341.536 134.353 341.212 134.617 340.824C134.893 340.371 135.257 339.951 135.511 339.476C135.036 339.775 134.617 340.095 134.164 340.382ZM165.194 289.987C164.85 290.294 164.431 290.504 163.979 290.595C163.572 290.687 163.148 290.671 162.748 290.549C162.349 290.427 161.989 290.203 161.703 289.899C161.238 289.458 160.654 289.165 160.022 289.057C159.391 288.949 158.742 289.03 158.157 289.291C157.623 289.526 157.166 289.91 156.843 290.396C156.555 290.838 156.202 291.257 155.937 291.743C156.423 291.445 156.843 291.125 157.284 290.838C157.628 290.52 158.052 290.302 158.511 290.208C158.91 290.094 159.333 290.087 159.736 290.188C160.139 290.289 160.509 290.494 160.808 290.782C161.25 291.24 161.819 291.554 162.442 291.684C163.064 291.814 163.711 291.754 164.299 291.511C164.851 291.275 165.328 290.893 165.68 290.407C165.967 289.954 166.276 289.534 166.542 289.059C166.067 289.424 165.647 289.7 165.194 289.987ZM203.261 245.8C202.91 246.103 202.488 246.313 202.035 246.408C201.629 246.502 201.206 246.488 200.808 246.365C200.411 246.243 200.052 246.018 199.77 245.712C199.299 245.278 198.713 244.989 198.082 244.881C197.45 244.773 196.801 244.851 196.213 245.104C195.68 245.342 195.225 245.725 194.899 246.209C194.611 246.662 194.258 247.081 194.004 247.556C194.479 247.269 194.899 246.949 195.351 246.662C195.692 246.35 196.107 246.13 196.556 246.021C196.957 245.906 197.381 245.899 197.787 246C198.192 246.101 198.563 246.306 198.864 246.595C199.188 246.932 199.583 247.193 200.02 247.359C200.457 247.525 200.926 247.592 201.392 247.555C201.858 247.518 202.31 247.378 202.715 247.145C203.12 246.913 203.469 246.593 203.736 246.209C204.034 245.756 204.343 245.347 204.609 244.861C204.123 245.17 203.703 245.491 203.261 245.767V245.8ZM208.917 275.074C208.795 274.555 208.729 274.047 208.596 273.505C208.442 274.047 208.376 274.555 208.276 275.074C208.24 275.548 208.101 276.008 207.867 276.422C207.657 276.78 207.357 277.077 206.996 277.284C206.636 277.492 206.228 277.602 205.813 277.604C205.175 277.599 204.551 277.786 204.021 278.141C203.491 278.495 203.08 279.001 202.841 279.592C202.59 280.131 202.535 280.74 202.686 281.315C202.775 281.857 202.841 282.42 202.963 282.884C203.104 282.369 203.211 281.845 203.283 281.315C203.339 280.86 203.494 280.423 203.736 280.034C203.961 279.682 204.274 279.395 204.644 279.201C205.014 279.007 205.428 278.914 205.846 278.929C206.487 278.904 207.107 278.693 207.63 278.323C208.154 277.952 208.558 277.437 208.795 276.841C208.98 276.267 209.021 275.657 208.917 275.063V275.074ZM162.068 313.969C161.994 313.441 161.891 312.917 161.758 312.401C161.626 312.909 161.56 313.428 161.427 313.969C161.402 314.432 161.27 314.882 161.04 315.284C160.833 315.643 160.535 315.941 160.177 316.148C159.818 316.356 159.411 316.465 158.997 316.466C158.357 316.472 157.734 316.663 157.201 317.016C156.667 317.369 156.248 317.868 155.992 318.454C155.783 319.007 155.726 319.606 155.826 320.189C155.906 320.724 156.013 321.255 156.147 321.779C156.29 321.257 156.397 320.726 156.467 320.189C156.506 319.726 156.662 319.282 156.92 318.896C157.143 318.543 157.456 318.254 157.826 318.06C158.197 317.866 158.612 317.774 159.03 317.792C159.668 317.765 160.284 317.555 160.805 317.187C161.327 316.818 161.731 316.307 161.968 315.715C162.166 315.154 162.201 314.549 162.068 313.969ZM223.929 306.402C223.567 306.703 223.151 306.932 222.703 307.076C222.297 307.173 221.873 307.168 221.47 307.06C221.067 306.952 220.697 306.745 220.394 306.458C219.949 306.01 219.382 305.702 218.764 305.573C218.145 305.443 217.503 305.497 216.915 305.729C216.357 305.949 215.879 306.335 215.545 306.833C215.247 307.286 214.926 307.706 214.639 308.181C215.125 307.894 215.545 307.573 215.987 307.286C216.344 307 216.758 306.793 217.202 306.679C217.614 306.599 218.04 306.621 218.442 306.742C218.844 306.863 219.211 307.08 219.511 307.375C219.976 307.818 220.562 308.114 221.195 308.224C221.828 308.334 222.48 308.254 223.068 307.993C223.599 307.726 224.051 307.327 224.382 306.833C224.658 306.391 224.99 305.983 225.233 305.497C224.813 305.795 224.404 306.115 223.929 306.402ZM190.789 307.441C190.337 307.395 189.899 307.252 189.508 307.021C189.157 306.795 188.87 306.482 188.676 306.112C188.483 305.742 188.388 305.328 188.403 304.911C188.378 304.27 188.167 303.65 187.797 303.127C187.426 302.603 186.911 302.198 186.315 301.962C185.762 301.748 185.158 301.706 184.581 301.84C184.04 301.962 183.531 302.028 182.99 302.149C183.512 302.297 184.044 302.408 184.581 302.481C185.047 302.504 185.501 302.636 185.907 302.867C186.269 303.07 186.573 303.362 186.79 303.716C187.006 304.07 187.128 304.474 187.144 304.889C187.15 305.528 187.341 306.152 187.694 306.685C188.047 307.218 188.546 307.638 189.132 307.894C189.682 308.116 190.285 308.173 190.867 308.059C191.408 307.96 191.971 307.894 192.468 307.739C191.894 307.629 191.408 307.562 190.867 307.441H190.789ZM168.552 348.844C168.087 348.8 167.638 348.653 167.238 348.413C166.891 348.18 166.608 347.864 166.415 347.493C166.222 347.123 166.125 346.71 166.133 346.292C166.13 345.824 166.023 345.362 165.819 344.94C165.616 344.518 165.321 344.146 164.956 343.852C164.591 343.558 164.166 343.349 163.71 343.24C163.254 343.131 162.78 343.124 162.322 343.221C161.78 343.343 161.272 343.409 160.753 343.541C161.269 343.678 161.793 343.782 162.322 343.851C162.787 343.884 163.238 344.028 163.636 344.271C164.001 344.478 164.305 344.777 164.52 345.137C164.735 345.497 164.853 345.906 164.862 346.325C164.852 346.96 165.033 347.582 165.382 348.112C165.731 348.642 166.231 349.055 166.818 349.297C167.372 349.531 167.986 349.589 168.574 349.463C169.102 349.383 169.626 349.276 170.143 349.142C169.646 349.076 169.138 348.954 168.629 348.844H168.552ZM203.526 366.519C203.062 366.473 202.615 366.318 202.223 366.066C201.873 365.836 201.588 365.52 201.394 365.149C201.201 364.778 201.106 364.363 201.118 363.945C201.109 363.303 200.905 362.678 200.535 362.154C200.164 361.629 199.643 361.229 199.041 361.006C198.486 360.822 197.891 360.787 197.318 360.907C196.81 361.006 196.268 361.073 195.749 361.205C196.265 361.339 196.789 361.442 197.318 361.515C197.777 361.562 198.221 361.705 198.621 361.934C198.984 362.141 199.287 362.438 199.502 362.795C199.717 363.153 199.836 363.561 199.847 363.978C199.834 364.614 200.013 365.24 200.362 365.773C200.711 366.305 201.213 366.719 201.803 366.961C202.089 367.089 202.396 367.168 202.709 367.193C202.991 367.226 203.277 367.226 203.559 367.193C204.067 367.06 204.575 366.994 205.139 366.861C204.62 366.751 204.112 366.673 203.603 366.574L203.526 366.519ZM182.261 268.976C181.801 268.927 181.359 268.772 180.969 268.523C180.614 268.298 180.325 267.983 180.131 267.611C179.937 267.239 179.845 266.822 179.864 266.402C179.838 265.764 179.628 265.148 179.259 264.627C178.891 264.105 178.38 263.702 177.787 263.464C177.228 263.277 176.63 263.243 176.053 263.364C175.512 263.464 175.003 263.53 174.451 263.685C175.003 263.817 175.556 263.872 176.053 263.983C176.515 264.026 176.963 264.165 177.367 264.392C177.722 264.606 178.016 264.907 178.223 265.267C178.43 265.626 178.542 266.032 178.549 266.446C178.55 267.084 178.739 267.707 179.093 268.238C179.447 268.769 179.949 269.183 180.538 269.429C181.087 269.653 181.688 269.718 182.272 269.617C182.813 269.484 183.377 269.429 183.841 269.285C183.346 269.17 182.844 269.085 182.338 269.031L182.261 268.976Z" fill="white"/>
<path d="M179.08 251.003C152.645 283.16 121.957 347.109 129.933 359.084C138.77 372.417 175.291 328.816 174.915 326.419C174.628 324.596 185.476 285.546 193.805 257.167C202.134 228.788 185.619 243.027 179.08 251.003Z" fill="#EB9481"/>
<path d="M175.191 326.43C176.064 322.287 190.955 270.788 195.075 254.56C199.196 238.332 193.606 233.925 179.069 249.777C164.531 265.629 134.738 314.444 129.126 340.702C123.725 365.999 135.81 367.303 151.496 354.444C164.354 343.917 175.191 326.43 175.191 326.43Z" fill="#FFC727"/>
<path d="M182.339 269.032C181.879 268.983 181.436 268.828 181.046 268.58C180.692 268.355 180.403 268.04 180.209 267.667C180.015 267.295 179.923 266.878 179.941 266.459C179.915 265.821 179.705 265.204 179.337 264.683C178.968 264.162 178.457 263.758 177.865 263.52C177.306 263.333 176.707 263.299 176.13 263.421C175.589 263.52 175.081 263.586 174.529 263.741C175.081 263.874 175.633 263.929 176.13 264.039C176.592 264.082 177.04 264.221 177.445 264.448C177.799 264.663 178.094 264.964 178.301 265.323C178.507 265.682 178.62 266.088 178.627 266.503C178.628 267.141 178.817 267.764 179.17 268.295C179.524 268.825 180.027 269.239 180.615 269.485C181.164 269.71 181.765 269.775 182.35 269.673C182.891 269.541 183.454 269.485 183.918 269.342C183.399 269.204 182.871 269.101 182.339 269.032ZM162.377 343.222C161.836 343.344 161.328 343.41 160.808 343.543C161.276 343.671 161.752 343.767 162.234 343.83L162.797 343.167C162.656 343.173 162.515 343.192 162.377 343.222ZM162.068 313.971C161.995 313.442 161.891 312.919 161.759 312.402C161.626 312.91 161.56 313.429 161.427 313.971C161.402 314.433 161.27 314.883 161.04 315.285C160.833 315.644 160.535 315.942 160.177 316.15C159.818 316.357 159.411 316.467 158.997 316.467C158.358 316.473 157.734 316.665 157.201 317.017C156.668 317.37 156.248 317.87 155.992 318.456C155.783 319.009 155.726 319.607 155.826 320.19C155.907 320.725 156.014 321.256 156.147 321.781C156.291 321.259 156.398 320.727 156.467 320.19C156.506 319.728 156.662 319.283 156.92 318.897C157.143 318.544 157.456 318.255 157.827 318.061C158.197 317.868 158.612 317.775 159.03 317.793C159.668 317.766 160.284 317.556 160.806 317.188C161.327 316.819 161.731 316.308 161.968 315.716C162.166 315.155 162.201 314.55 162.068 313.971ZM196.368 245.006L196.202 245.072C195.669 245.31 195.214 245.693 194.888 246.177C194.6 246.63 194.247 247.05 193.993 247.525C194.468 247.237 194.888 246.917 195.341 246.63C195.64 246.358 195.994 246.155 196.379 246.033C196.399 245.691 196.399 245.348 196.379 245.006H196.368ZM165.183 289.988C164.839 290.295 164.42 290.505 163.968 290.596C163.561 290.688 163.137 290.672 162.738 290.55C162.338 290.428 161.978 290.204 161.692 289.9C161.228 289.459 160.643 289.166 160.011 289.058C159.38 288.95 158.731 289.031 158.146 289.292C157.612 289.527 157.155 289.911 156.832 290.397C156.544 290.839 156.191 291.259 155.926 291.745C156.412 291.446 156.832 291.126 157.274 290.839C157.617 290.521 158.041 290.303 158.5 290.209C158.899 290.095 159.322 290.089 159.725 290.189C160.128 290.29 160.498 290.495 160.797 290.784C161.239 291.241 161.808 291.555 162.431 291.685C163.053 291.815 163.7 291.755 164.288 291.513C164.84 291.276 165.317 290.894 165.669 290.408C165.956 289.955 166.266 289.535 166.531 289.06C166.067 289.425 165.647 289.701 165.194 289.988H165.183ZM134.153 340.383C133.815 340.699 133.393 340.91 132.938 340.991C132.529 341.089 132.102 341.078 131.699 340.96C131.296 340.842 130.931 340.62 130.64 340.317C130.287 339.969 129.855 339.711 129.381 339.566C129.292 339.952 129.204 340.328 129.126 340.671C129.126 340.671 129.126 340.748 129.126 340.781C129.365 340.877 129.58 341.024 129.756 341.212C130.076 341.555 130.47 341.822 130.907 341.992C131.344 342.162 131.814 342.232 132.282 342.196C132.75 342.16 133.204 342.019 133.61 341.784C134.016 341.548 134.364 341.224 134.628 340.836C134.904 340.383 135.268 339.964 135.523 339.489C135.036 339.776 134.617 340.096 134.164 340.383H134.153Z" fill="white"/>
<path d="M173.291 333.092C174.551 327.911 175.887 322.752 177.246 317.626C178.605 312.501 180.008 307.342 181.389 302.161L185.708 286.773L187.917 279.04C188.679 276.488 189.431 273.926 190.215 271.385C189.596 273.97 188.922 276.555 188.282 279.117L186.271 286.85L182.118 302.316C180.682 307.441 179.268 312.578 177.798 317.704C176.329 322.829 174.86 327.999 173.291 333.092Z" fill="#263238"/>
<path d="M187.155 283.425C187.636 282.108 188.212 280.827 188.878 279.592C189.198 278.973 189.53 278.366 189.894 277.758C190.259 277.151 190.612 276.565 190.999 275.969C190.608 277.323 190.071 278.63 189.397 279.868C188.747 281.113 187.997 282.302 187.155 283.425Z" fill="#263238"/>
<path d="M130.032 359.018C137.323 368.452 154.015 369.91 200.731 376.759C207.205 377.709 227.553 333.047 220.704 331.677C212.065 329.954 178.185 325.138 175.666 325.104C154.335 324.773 125.028 352.622 130.032 359.018Z" fill="#EB9481"/>
<path d="M204.808 331.567C204.808 331.567 222.56 329.711 234.236 329.037C240.754 328.661 251.977 329.037 256.882 330.937C264.228 333.798 293.115 350.457 289.227 357.549C285.703 363.967 262.714 346.502 262.714 346.502C262.714 346.502 287.481 362.078 281.825 369.026C276.169 375.974 252.795 352.787 252.795 352.787C252.795 352.787 277.882 369.357 270.911 375.599C265.642 380.316 243.294 360.509 243.294 360.509C243.294 360.509 264.758 374.87 259.555 379.984C253.789 385.607 232.027 368.606 232.027 368.606C216.561 379.299 204.896 378.095 196.677 376.24C194.667 375.787 204.808 331.567 204.808 331.567Z" fill="#EB9481"/>
<path d="M254.485 340.57C257.456 342.293 260.483 344.016 263.322 345.994C266.161 347.971 268.845 350.07 271.496 352.301C274.976 355.15 278.112 358.394 280.842 361.967C275.528 355.991 265.564 348.711 262.758 346.756C259.953 344.801 257.235 342.658 254.44 340.669C254.33 340.625 254.407 340.525 254.485 340.57Z" fill="#263238"/>
<path d="M247.127 350.59C250.828 352.954 254.595 355.174 258.174 357.704C261.753 360.234 264.935 362.918 268.337 365.68C268.602 365.89 268.337 365.967 268.127 365.757C264.614 363.139 261.179 360.985 257.633 358.411C254.087 355.837 250.662 353.109 247.039 350.678C247.017 350.634 247.127 350.557 247.127 350.59Z" fill="#263238"/>
<path d="M239.284 358.056C245.055 361.539 250.449 365.612 255.379 370.208C255.633 370.429 255.379 370.484 255.092 370.274C249.823 366.131 245.713 362.84 239.174 358.244C239.074 358.189 239.163 357.99 239.284 358.056Z" fill="#263238"/>
<path d="M215.401 329.811L176.992 376.936C176.992 376.936 136.009 369.314 129.491 359.085C125.183 352.346 154.225 322.984 177.699 325.138L215.401 329.811Z" fill="#FFC727"/>
<path d="M170.751 370.529C170.383 370.825 169.952 371.033 169.491 371.137C169.086 371.216 168.667 371.194 168.272 371.073C167.876 370.951 167.517 370.734 167.227 370.441C166.77 369.984 166.183 369.679 165.546 369.568C164.909 369.458 164.254 369.546 163.67 369.822C163.135 370.084 162.681 370.484 162.355 370.982C162.068 371.402 161.758 371.799 161.46 372.285C161.927 372.018 162.377 371.723 162.808 371.402C163.172 371.115 163.583 370.895 164.023 370.75C164.429 370.652 164.853 370.657 165.256 370.765C165.66 370.873 166.029 371.081 166.332 371.368C166.784 371.81 167.352 372.113 167.971 372.243C168.589 372.372 169.232 372.321 169.823 372.098C170.375 371.867 170.85 371.483 171.192 370.993C171.48 370.54 171.8 370.12 172.054 369.645C171.603 369.915 171.168 370.21 170.751 370.529ZM202.267 334.594C201.901 334.891 201.469 335.096 201.007 335.19C200.602 335.275 200.182 335.256 199.786 335.134C199.39 335.012 199.031 334.792 198.743 334.495C198.285 334.039 197.698 333.735 197.062 333.625C196.426 333.514 195.771 333.602 195.186 333.876C194.651 334.138 194.197 334.538 193.871 335.036C193.584 335.456 193.275 335.864 192.977 336.339C193.445 336.076 193.896 335.781 194.324 335.456C194.694 335.178 195.103 334.958 195.539 334.804C195.945 334.706 196.369 334.711 196.773 334.819C197.176 334.927 197.546 335.135 197.848 335.422C198.293 335.875 198.862 336.186 199.483 336.315C200.104 336.445 200.75 336.388 201.339 336.152C201.893 335.924 202.369 335.54 202.709 335.047C202.996 334.605 203.316 334.185 203.57 333.699C203.119 333.972 202.684 334.271 202.267 334.594ZM141.366 363.824C141.245 363.282 141.178 362.719 141.046 362.266C140.904 362.777 140.797 363.298 140.725 363.824C140.702 364.294 140.558 364.751 140.306 365.149C140.079 365.533 139.75 365.847 139.356 366.055L140.593 366.607C140.883 366.309 141.105 365.951 141.245 365.558C141.431 364.999 141.473 364.403 141.366 363.824ZM168.63 348.844C168.165 348.8 167.716 348.653 167.315 348.413C166.968 348.181 166.685 347.864 166.492 347.494C166.299 347.123 166.202 346.71 166.21 346.292C166.207 345.824 166.1 345.362 165.897 344.94C165.693 344.518 165.398 344.147 165.033 343.853C164.669 343.559 164.243 343.35 163.787 343.24C163.332 343.131 162.858 343.125 162.399 343.221C161.858 343.343 161.35 343.409 160.831 343.542C161.346 343.679 161.87 343.782 162.399 343.851C162.864 343.885 163.315 344.029 163.714 344.271C164.078 344.479 164.382 344.777 164.597 345.137C164.812 345.497 164.93 345.906 164.94 346.326C164.93 346.96 165.111 347.583 165.46 348.113C165.808 348.643 166.309 349.055 166.895 349.297C167.45 349.531 168.063 349.589 168.652 349.463C169.18 349.384 169.703 349.277 170.22 349.142C169.646 349.076 169.138 348.955 168.63 348.844Z" fill="white"/>
<path d="M150.204 333.821C153.838 330.916 164.111 324.056 177.699 325.094C177.82 325.094 177.831 325.304 177.699 325.304C167.503 325.503 154.026 331.479 150.292 333.987C150.204 334.042 150.115 333.887 150.204 333.821Z" fill="#263238"/>
<path d="M165.536 369.91C169.48 364.498 173.711 359.306 177.953 354.125C182.195 348.944 186.437 343.752 190.811 338.659C193.286 335.787 195.749 332.904 198.323 330.12C198.389 330.054 198.522 330.12 198.467 330.231C194.523 335.633 190.314 340.847 186.105 346.039C181.897 351.23 177.622 356.433 173.302 361.559C170.872 364.453 168.375 367.315 165.802 370.087C165.68 370.242 165.382 370.065 165.536 369.91Z" fill="#263238"/>
<path d="M215.446 329.192C212.903 328.557 210.319 328.099 207.713 327.822C205.128 327.468 202.55 327.148 199.98 326.861C194.821 326.286 183.962 324.475 174.573 324.961C174.462 324.961 175.026 325.447 175.125 325.436C179.61 324.972 212.154 329.855 214.805 329.855C214.705 330.042 214.617 330.219 214.54 330.407C214.462 330.595 214.639 330.705 214.772 330.606C215.092 330.363 215.313 330.075 215.611 329.821C215.658 329.775 215.692 329.717 215.709 329.653C215.727 329.59 215.727 329.522 215.71 329.459C215.694 329.395 215.66 329.336 215.614 329.29C215.567 329.243 215.509 329.209 215.446 329.192Z" fill="#263238"/>
<path d="M162.642 271.881C152.877 288.672 120.366 341.884 129.502 359.305C128.467 357.576 127.823 355.642 127.613 353.638C125.525 331.312 150.027 290.727 162.598 271.892L162.642 271.881Z" fill="#263238"/>
<path d="M159.648 273.826C158.732 276.455 157.826 279.007 156.655 281.559C157.059 278.789 158.082 276.146 159.648 273.826Z" fill="#263238"/>
<path d="M214.197 254.428C209.105 255.533 198.677 249.291 195.219 241.956C194.987 241.459 196.048 236.378 197.042 230.147C197.638 226.358 198.202 222.127 198.434 218.228C198.489 217.433 222.516 225.662 222.516 225.662C220.81 230.446 219.697 235.421 219.202 240.476C219.176 241.015 219.202 241.555 219.279 242.089C219.279 242.166 219.279 242.255 219.279 242.354C219.632 245.425 219.654 253.268 214.197 254.428Z" fill="#EB9481"/>
<path d="M219.312 242.089C219.312 242.166 219.312 242.266 219.312 242.354C218.477 242.42 217.639 242.42 216.804 242.354C202.443 241.161 199.748 222.923 199.295 218.316C203.592 219.2 222.493 225.685 222.493 225.685C220.789 230.473 219.676 235.451 219.179 240.509C219.174 241.039 219.218 241.568 219.312 242.089Z" fill="#263238"/>
<path d="M225.686 175.93C227.056 175.754 234.612 184.867 235.352 189.639C236.092 194.411 235.783 204.155 234.413 204.53C233.043 204.906 224.625 176.063 225.686 175.93Z" fill="#263238"/>
<path d="M193.208 190.391C191.076 199.228 197.13 223.984 203.625 229.198C213.037 236.765 227.707 236.677 233.949 225.531C240.002 214.716 231.54 182.581 224.349 177.919C213.766 171.048 196.312 177.367 193.208 190.391Z" fill="#EB9481"/>
<path d="M228.348 202.276C228.348 202.21 228.492 202.276 228.514 202.398C228.79 204.099 229.398 205.988 231.032 206.242C231.032 206.242 231.099 206.341 231.032 206.341C229.088 206.452 228.348 203.933 228.348 202.276Z" fill="#263238"/>
<path d="M229.453 200.222C232.115 199.482 233.407 204.873 230.933 205.558C228.459 206.242 227.243 200.841 229.453 200.222Z" fill="#263238"/>
<path d="M218.881 204.486C218.881 204.43 218.771 204.596 218.793 204.662C219.223 206.331 219.444 208.308 218.052 209.203C218.052 209.203 218.052 209.313 218.052 209.291C219.886 208.617 219.566 205.988 218.881 204.486Z" fill="#263238"/>
<path d="M216.992 203.084C214.252 203.492 215.28 208.938 217.81 208.607C220.339 208.276 219.29 202.741 216.992 203.084Z" fill="#263238"/>
<path d="M214.783 199.657C215.501 199.348 216.108 198.95 216.793 198.553C217.478 198.155 218.207 197.868 218.616 197.05C218.707 196.809 218.716 196.544 218.642 196.297C218.568 196.049 218.416 195.833 218.207 195.681C217.747 195.443 217.232 195.333 216.715 195.362C216.199 195.391 215.699 195.558 215.269 195.846C214.307 196.294 213.544 197.08 213.126 198.056C213.036 198.285 213.016 198.536 213.068 198.777C213.121 199.018 213.243 199.238 213.42 199.409C213.597 199.58 213.821 199.695 214.064 199.739C214.306 199.784 214.556 199.755 214.783 199.657Z" fill="#263238"/>
<path d="M230.8 196.234C230.04 196.234 229.28 196.19 228.525 196.102C227.72 196.173 226.914 195.971 226.238 195.527C226.052 195.348 225.93 195.112 225.892 194.856C225.854 194.6 225.902 194.339 226.028 194.114C226.344 193.704 226.763 193.386 227.243 193.192C227.722 192.998 228.245 192.934 228.757 193.009C229.818 193.009 230.841 193.402 231.629 194.114C231.797 194.285 231.913 194.502 231.961 194.738C232.009 194.973 231.988 195.218 231.901 195.442C231.813 195.666 231.663 195.86 231.467 196.001C231.272 196.141 231.041 196.222 230.8 196.234Z" fill="#263238"/>
<path d="M220.129 220.028C220.571 220.393 221.024 220.912 221.643 220.923C222.28 220.858 222.896 220.663 223.454 220.348C223.454 220.348 223.565 220.348 223.532 220.426C223.314 220.782 223.004 221.074 222.635 221.268C222.265 221.463 221.85 221.553 221.433 221.53C221.076 221.465 220.746 221.296 220.485 221.045C220.224 220.793 220.042 220.47 219.963 220.116C219.93 220.017 220.063 219.973 220.129 220.028Z" fill="#263238"/>
<path d="M220.825 214.482C221.383 215.065 222.057 215.525 222.802 215.833C223.548 216.141 224.349 216.291 225.156 216.272C225.863 216.274 226.567 216.169 227.243 215.963L227.63 215.841L227.984 215.709C228.068 215.672 228.14 215.61 228.187 215.53C228.235 215.451 228.256 215.359 228.249 215.267C228.253 215.208 228.253 215.149 228.249 215.09V214.946C228.028 213.643 227.509 211.699 227.509 211.699C228.028 211.842 230.657 212.45 230.491 211.776C229.044 206.253 227.431 200.066 224.824 194.863C224.818 194.844 224.807 194.826 224.794 194.81C224.78 194.794 224.764 194.782 224.745 194.772C224.727 194.763 224.707 194.758 224.686 194.756C224.666 194.755 224.645 194.757 224.625 194.764C224.606 194.77 224.588 194.781 224.572 194.794C224.557 194.808 224.544 194.824 224.535 194.843C224.525 194.861 224.52 194.881 224.518 194.902C224.517 194.922 224.519 194.943 224.526 194.963C225.697 200.343 227.84 205.479 229.088 210.87C228.153 210.64 227.19 210.543 226.227 210.583C226.05 210.671 227.332 214.328 227.332 214.924V214.99C225.211 215.697 223.432 215.366 221.035 214.328C220.814 214.228 220.704 214.372 220.825 214.482Z" fill="#263238"/>
<path d="M226.437 215.776C225.878 216.782 225.072 217.63 224.095 218.239C223.554 218.552 222.928 218.688 222.305 218.626C220.947 218.482 220.726 217.278 220.814 216.218C220.864 215.654 220.979 215.098 221.157 214.561C222.743 215.516 224.592 215.942 226.437 215.776Z" fill="#263238"/>
<path d="M224.095 218.238C223.554 218.552 222.928 218.687 222.305 218.625C220.947 218.481 220.726 217.277 220.814 216.217C221.509 216.135 222.211 216.29 222.806 216.657C223.402 217.024 223.856 217.581 224.095 218.238Z" fill="#FF9BBC"/>
<path d="M198.312 212.351C202.731 211.766 203.78 206.475 203.758 199.394C203.758 195.262 200.941 187.64 200.941 187.64C200.941 187.64 213.181 190.346 219.334 188.391C225.487 186.436 229.64 179.819 228.249 174.958C227.056 170.783 218.704 166.883 209.237 168.584C202.609 169.777 192.755 177.499 189.464 185.618C189.464 185.618 182.106 191.407 184.724 197.35C187.343 203.293 193.286 213.014 198.312 212.351Z" fill="#263238"/>
<path d="M198.522 211.787C204.498 211.721 205.592 202.452 204.73 197.934C203.835 193.25 200.985 188.942 199.207 184.59C202.377 189.66 206.023 196.167 205.437 202.353C205.073 206.241 203.758 212.836 198.533 212.14C198.323 212.096 198.312 211.787 198.522 211.787Z" fill="#263238"/>
<path d="M183.057 195.747C183.001 191.737 186.525 186.976 189.983 185.264C185.962 187.838 182.018 194.035 184.459 198.63C186.426 202.32 189.475 207.059 192.844 209.578C192.932 209.644 192.844 209.765 192.745 209.71C190.171 208.075 188.635 205.534 186.923 203.082C185.487 200.983 183.057 198.52 183.057 195.747Z" fill="#263238"/>
<path d="M188.757 186.391C192.247 177.819 201.516 166.905 211.546 167.048C201.096 167.777 193.871 178.415 189.165 186.579C189.022 186.855 188.657 186.623 188.757 186.391Z" fill="#263238"/>
<path d="M201.56 210.705C201.56 210.705 195.274 203.072 191.761 205.38C188.248 207.689 193.429 219.067 197.87 220.327C198.427 220.523 199.018 220.606 199.608 220.57C200.198 220.535 200.775 220.381 201.304 220.118C201.834 219.855 202.305 219.489 202.691 219.041C203.076 218.593 203.368 218.072 203.548 217.51L201.56 210.705Z" fill="#EB9481"/>
<path d="M193.33 208.605C193.315 208.605 193.301 208.611 193.291 208.622C193.28 208.632 193.275 208.646 193.275 208.661C193.275 208.675 193.28 208.689 193.291 208.7C193.301 208.71 193.315 208.716 193.33 208.716C196.445 209.699 198.257 212.372 199.593 215.189C199.393 214.902 199.134 214.661 198.832 214.483C198.531 214.306 198.194 214.195 197.846 214.159C197.498 214.124 197.146 214.164 196.814 214.277C196.483 214.39 196.18 214.573 195.926 214.814C195.849 214.88 195.926 215.002 196.025 214.968C196.543 214.762 197.112 214.719 197.655 214.845C198.198 214.971 198.69 215.261 199.063 215.675C199.673 216.384 200.214 217.149 200.676 217.962C200.831 218.227 201.306 218.039 201.184 217.741V217.664C200.908 213.808 197.495 208.661 193.33 208.605Z" fill="#263238"/>
<path d="M221.378 243.029C221.36 244.554 221.26 246.076 221.079 247.591C220.95 248.974 220.691 250.343 220.306 251.678C219.927 253.001 219.245 254.218 218.312 255.23C217.38 256.243 216.225 257.024 214.937 257.511C212.299 258.374 209.431 258.213 206.906 257.058C204.474 255.868 202.26 254.277 200.356 252.352C199.177 251.255 198.051 250.113 196.975 248.927C196.445 248.32 195.871 247.723 195.396 247.094C194.921 246.464 194.424 245.823 193.882 245.227C193.882 245.227 193.717 245.227 193.75 245.293C194.854 246.729 198.113 251.28 199.185 252.385C201.068 254.528 203.311 256.327 205.813 257.699C208.477 259.044 211.54 259.374 214.429 258.626C215.838 258.248 217.135 257.537 218.212 256.553C219.289 255.569 220.113 254.34 220.615 252.971C221.138 251.44 221.418 249.837 221.444 248.22C221.532 246.453 221.444 244.697 221.444 242.951C221.411 242.951 221.378 242.962 221.378 243.029Z" fill="#263238"/>
<path d="M332.055 76.6965C331.179 70.5442 331.064 64.3074 331.712 58.127C332.583 64.2797 332.698 70.5158 332.055 76.6965Z" fill="#263238"/>
<path d="M289.668 88.5167C285.838 83.6255 282.621 78.2833 280.091 72.6094C283.923 77.4994 287.14 82.8419 289.668 88.5167Z" fill="#263238"/>
<path d="M258.87 119.955C253.108 117.637 247.654 114.617 242.631 110.963C248.392 113.285 253.845 116.305 258.87 119.955Z" fill="#263238"/>
<path d="M247.923 162.574C241.774 163.444 235.541 163.559 229.364 162.916C235.513 162.04 241.746 161.925 247.923 162.574Z" fill="#263238"/>
<path d="M259.754 204.961C254.859 208.787 249.518 212.003 243.846 214.538C248.736 210.706 254.079 207.49 259.754 204.961Z" fill="#263238"/>
<path d="M406.985 203.436C412.747 205.753 418.201 208.773 423.223 212.428C417.464 210.103 412.011 207.083 406.985 203.436Z" fill="#263238"/>
<path d="M417.932 160.818C424.081 159.948 430.313 159.833 436.49 160.476C430.342 161.352 424.109 161.467 417.932 160.818Z" fill="#263238"/>
<path d="M406.101 118.431C410.995 114.605 416.337 111.389 422.008 108.854C417.118 112.686 411.776 115.902 406.101 118.431Z" fill="#263238"/>
<path d="M374.673 87.6443C376.993 81.882 380.009 76.4249 383.654 71.3945C381.338 77.1588 378.321 82.6164 374.673 87.6443Z" fill="#263238"/>
<g opacity="0.5">
<path d="M405.096 166.019C401.516 210.825 364.223 224.335 364.223 224.335C361.483 231.14 357.904 248.461 357.904 248.461H308.083C308.083 248.461 304.504 231.14 301.764 224.335C301.764 224.335 264.438 210.825 260.892 166.019C258.406 134.89 280.577 88.8802 332.762 88.8691H333.303C385.377 88.8802 407.548 134.89 405.096 166.019Z" fill="#FFC727"/>
</g>
<g opacity="0.7">
<path d="M398.909 166.251C395.595 207.224 361.494 219.574 361.494 219.574C358.987 225.804 355.717 248.461 355.717 248.461H310.094C310.094 248.461 306.78 225.804 304.316 219.574C304.316 219.574 270.182 207.224 266.912 166.251C264.636 137.773 284.907 95.6849 332.64 95.6738H333.126C380.903 95.6849 401.174 137.773 398.909 166.251Z" fill="#FFC727"/>
</g>
<path d="M307.813 173.919L304.555 174.527L319.207 252.972L322.465 252.364L307.813 173.919Z" fill="#263238"/>
<path d="M358.052 173.946L343.427 252.396L346.685 253.004L361.31 174.554L358.052 173.946Z" fill="#263238"/>
<path d="M332.927 200.253C328.509 200.253 324.388 196.111 321.505 190.808C321.007 191.475 320.373 192.029 319.646 192.435C318.919 192.84 318.114 193.088 317.285 193.161C309.95 193.161 307.001 177.994 306.879 177.342L307.984 177.144C307.984 177.287 310.878 192.057 317.296 192.057C318.456 192.057 319.749 191.228 320.964 189.748C318.742 185.419 317.495 180.658 317.307 175.796C317.307 171.576 318.887 169.168 321.638 169.168C322.449 169.143 323.251 169.343 323.957 169.744C324.662 170.146 325.243 170.734 325.637 171.444C327.846 175.277 326.222 183.23 323.328 188.257C322.985 188.842 322.632 189.361 322.223 189.869C324.93 195.05 328.774 199.16 332.883 199.16C336.639 199.16 339.931 195.724 342.284 191.162C339.379 188.014 337.733 182.877 337.733 177.972C337.733 172.537 339.754 169.135 343.024 169.135C345.653 169.135 347.156 171.786 347.167 176.392C346.99 181.443 345.775 186.403 343.598 190.963C344.94 192.29 346.748 193.04 348.636 193.051C353.198 193.051 357.208 182.225 358.368 178.049L359.473 178.348C359.296 178.988 355.054 194.156 348.68 194.156C346.628 194.133 344.658 193.345 343.157 191.946C340.693 196.63 337.213 200.253 332.927 200.253ZM343.068 170.25C339.975 170.25 338.882 174.404 338.882 177.983C338.882 181.883 340.163 186.975 342.836 190.135C344.876 185.839 346.004 181.168 346.15 176.415C346.095 174.537 345.808 170.25 343.068 170.25ZM321.627 170.25C318.821 170.25 318.401 173.719 318.401 175.774C318.592 180.27 319.721 184.676 321.715 188.71C321.936 188.389 322.157 188.036 322.367 187.671C325.062 183.009 326.675 175.409 324.675 171.963C324.383 171.417 323.94 170.967 323.4 170.666C322.86 170.364 322.244 170.224 321.627 170.262V170.25Z" fill="#263238"/>
<path d="M364.134 248.527H301.72V282.883H364.134V248.527Z" fill="#C7C7C7"/>
<path d="M357.064 282.873C353.386 289.38 346.349 295.201 332.927 295.201C319.506 295.201 312.469 289.38 308.801 282.873H357.064Z" fill="#C7C7C7"/>
<path d="M357.064 282.872C355.977 284.82 354.611 286.599 353.01 288.152L310.039 284.838C309.59 284.199 309.177 283.535 308.801 282.85L357.064 282.872Z" fill="#A6A6A6"/>
<path d="M365.957 255.079L299.897 261.188V258.183L365.957 252.074V255.079Z" fill="#A6A6A6"/>
<path d="M365.957 264.149L299.897 270.258V267.253L365.957 261.145V264.149Z" fill="#A6A6A6"/>
<path d="M365.957 273.207L299.897 279.315V276.322L365.957 270.213V273.207Z" fill="#A6A6A6"/>
<g opacity="0.5">
<path d="M276.512 155.559C278.81 155.935 281.77 144.126 294.463 130.461C300.108 124.385 321.505 116.796 319.97 109.782C318.434 102.767 299.334 109.98 289.724 121.104C274.269 139.011 274.413 155.206 276.512 155.559Z" fill="white"/>
<path d="M389.111 157.967C393.331 157.967 393.331 151.428 389.111 151.428C384.891 151.428 384.902 157.967 389.111 157.967Z" fill="white"/>
<path d="M368.52 207.213C370.818 208.969 381.986 198.663 387.023 186.368C391.21 176.161 391.928 163.247 389.111 162.496C386.294 161.745 384.482 179.464 381.102 185.981C376.838 194.211 366.056 205.335 368.52 207.213Z" fill="white"/>
</g>
<path d="M245.614 102.426L253.645 100.946L255.435 92.4844L257.224 100.946L265.255 102.437L257.268 104.393L255.435 112.38L253.612 104.393L245.614 102.426Z" fill="#FFC727"/>
<path d="M374.971 243.128L382.991 241.647L384.792 233.186L386.581 241.647L394.612 243.128L386.614 245.083L384.792 253.081L382.958 245.083L374.971 243.128Z" fill="#FFC727"/>
<path d="M268.624 225.375L273.12 224.546L274.126 219.818L275.12 224.546L279.605 225.375L275.142 226.468L274.126 230.931L273.098 226.468L268.624 225.375Z" fill="#FFC727"/>
<path d="M293.049 80.5754L297.534 79.7469L298.539 75.0078L299.533 79.7469L304.018 80.5754L299.555 81.669L298.539 86.1319L297.511 81.669L293.049 80.5754Z" fill="#FFC727"/>
<path d="M274.115 247.447C274.46 247.447 274.792 247.31 275.036 247.065C275.281 246.821 275.418 246.489 275.418 246.143C275.418 245.798 275.281 245.466 275.036 245.222C274.792 244.977 274.46 244.84 274.115 244.84C273.769 244.84 273.437 244.977 273.193 245.222C272.948 245.466 272.811 245.798 272.811 246.143C272.811 246.489 272.948 246.821 273.193 247.065C273.437 247.31 273.769 247.447 274.115 247.447Z" fill="#FFC727"/>
<path d="M400.677 230.931C400.92 230.931 401.153 230.835 401.325 230.663C401.497 230.491 401.594 230.258 401.594 230.015C401.594 229.771 401.497 229.538 401.325 229.366C401.153 229.194 400.92 229.098 400.677 229.098C400.434 229.098 400.201 229.194 400.029 229.366C399.857 229.538 399.76 229.771 399.76 230.015C399.76 230.258 399.857 230.491 400.029 230.663C400.201 230.835 400.434 230.931 400.677 230.931Z" fill="#FFC727"/>
<path d="M269.221 110.799C269.464 110.799 269.697 110.702 269.869 110.53C270.041 110.358 270.138 110.125 270.138 109.882C270.138 109.639 270.041 109.405 269.869 109.233C269.697 109.061 269.464 108.965 269.221 108.965C268.978 108.965 268.744 109.061 268.573 109.233C268.401 109.405 268.304 109.639 268.304 109.882C268.304 110.125 268.401 110.358 268.573 110.53C268.744 110.702 268.978 110.799 269.221 110.799Z" fill="#FFC727"/>
<path d="M419.357 124.829C419.584 124.804 419.794 124.696 419.947 124.526C420.099 124.356 420.184 124.135 420.184 123.907C420.184 123.678 420.099 123.458 419.947 123.287C419.794 123.117 419.584 123.009 419.357 122.984C419.13 123.009 418.92 123.117 418.767 123.287C418.614 123.458 418.53 123.678 418.53 123.907C418.53 124.135 418.614 124.356 418.767 124.526C418.92 124.696 419.13 124.804 419.357 124.829Z" fill="#FFC727"/>
<path d="M407.57 133.257C410.785 133.257 410.785 128.264 407.57 128.264C404.356 128.264 404.356 133.257 407.57 133.257Z" fill="#FFC727"/>
<path d="M439.385 390.635H226.459V504.736H439.385V390.635Z" fill="#FFC727"/>
<path opacity="0.2" d="M439.385 390.635H226.459V504.736H439.385V390.635Z" fill="black"/>
<path opacity="0.2" d="M226.481 504.748H307.078V390.635H226.481V504.748Z" fill="black"/>
<path d="M232.026 498.319C237.992 490.078 243.905 481.812 249.767 473.519L267.254 448.587L284.52 423.555C290.243 415.196 295.91 406.808 301.521 398.391C295.541 406.631 289.624 414.898 283.769 423.191L266.293 448.123L249.027 473.155C243.342 481.514 237.675 489.902 232.026 498.319Z" fill="#FFC727"/>
<path d="M232.026 398.391C237.638 406.801 243.305 415.189 249.027 423.555L266.293 448.587L283.769 473.519C289.661 481.819 295.578 490.086 301.521 498.319C295.91 489.902 290.243 481.514 284.52 473.155L267.254 448.123L249.767 423.191C243.913 414.898 237.999 406.631 232.026 398.391Z" fill="#FFC727"/>
<path d="M278.854 390.635H254.374V417.357H278.854V390.635Z" fill="#EBEBEB"/>
<path d="M402.345 475.23H401.03V493.778H402.345V475.23Z" fill="#263238"/>
<path d="M405.504 475.23H404.19V493.778H405.504V475.23Z" fill="#263238"/>
<path d="M408.653 475.23H407.338V493.778H408.653V475.23Z" fill="#263238"/>
<path d="M411.812 475.23H410.497V493.778H411.812V475.23Z" fill="#263238"/>
<path d="M414.96 475.23H413.646V493.778H414.96V475.23Z" fill="#263238"/>
<path d="M418.119 475.23H416.805V493.778H418.119V475.23Z" fill="#263238"/>
<path d="M421.279 475.23H419.964V493.778H421.279V475.23Z" fill="#263238"/>
<path d="M424.427 475.23H423.113V493.778H424.427V475.23Z" fill="#263238"/>
<path d="M427.587 475.23H426.272V493.778H427.587V475.23Z" fill="#263238"/>
<path d="M388.128 492.364L393.187 493.767H381.312L386.371 492.342V485.526C382.748 485.051 381.312 481.483 381.312 475.23H393.187C393.187 481.461 391.751 485.051 388.128 485.526V492.364Z" fill="#263238"/>
<path d="M378.539 484.686H375.446V493.767H367.504V484.686H364.388L371.469 475.23L378.539 484.686Z" fill="#263238"/>
<path opacity="0.1" d="M439.396 504.748V493.171L307.078 471.74V504.737L439.396 504.748Z" fill="black"/>
<path d="M202.532 362.102H283.14L307.078 390.635H226.459L202.532 362.102Z" fill="#FFC727"/>
<path opacity="0.2" d="M202.532 362.102H283.14L307.078 390.635H226.459L202.532 362.102Z" fill="black"/>
<path d="M463.323 362.102H382.715L358.777 390.635H439.396L463.323 362.102Z" fill="#FFC727"/>
<path opacity="0.1" d="M463.323 362.102H382.715L358.777 390.635H439.396L463.323 362.102Z" fill="black"/>
</svg>
