<svg width="60" height="60" viewBox="0 0 60 60" fill="none" xmlns="http://www.w3.org/2000/svg">
<mask id="path-1-inside-1_1181_6345" fill="white">
<path d="M29.9764 0.000504966C29.8058 0.00327027 29.6392 0.0525429 29.4946 0.143013L0.434664 18.894C0.262985 19.0031 0.131448 19.1651 0.0599022 19.3556C-0.0116435 19.546 -0.0193151 19.7545 0.038045 19.9497C0.0954051 20.1449 0.214684 20.3161 0.377882 20.4376C0.54108 20.559 0.73934 20.624 0.942743 20.6229H3.93123C3.81852 20.9228 3.75888 21.24 3.75499 21.5604C3.75499 22.7736 4.5443 23.8068 5.62983 24.1968V48.9219C4.5443 49.3119 3.75499 50.3489 3.75499 51.562C3.75499 51.8921 3.82436 52.2033 3.93123 52.4996H3.75499C1.69268 52.4996 0.00532672 54.1872 0.00532672 56.2498C0.00532672 58.3124 1.69268 60 3.75499 60H56.2503C58.3126 60 60 58.3124 60 56.2498C60 54.1872 58.3126 52.4996 56.2503 52.4996H56.0741C56.181 52.2033 56.2503 51.8921 56.2503 51.562C56.2503 50.3489 55.461 49.3119 54.3755 48.9219V24.1968C55.461 23.8068 56.2503 22.7717 56.2503 21.5604C56.2503 21.2304 56.181 20.9173 56.0741 20.6229H59.0626C59.2649 20.6228 59.4617 20.5572 59.6237 20.4359C59.7857 20.3147 59.9041 20.1443 59.9613 19.9502C60.0184 19.7561 60.0113 19.5488 59.9409 19.3591C59.8705 19.1694 59.7406 19.0076 59.5707 18.8978L30.5107 0.146763C30.3514 0.0452862 30.1652 -0.00569304 29.9764 0.000504966ZM30.0027 2.05562L55.8735 18.7478H4.12996L30.0027 2.05562ZM30.0027 7.49716C27.9422 7.49716 26.253 9.18663 26.253 11.2474C26.253 13.3081 27.9422 14.9976 30.0027 14.9976C32.0631 14.9976 33.7523 13.3081 33.7523 11.2474C33.7523 9.18663 32.0631 7.49716 30.0027 7.49716ZM30.0027 9.37226C31.0488 9.37226 31.8775 10.2011 31.8775 11.2474C31.8775 12.2937 31.0488 13.1225 30.0027 13.1225C28.9565 13.1225 28.1278 12.2937 28.1278 11.2474C28.1278 10.2011 28.9565 9.37226 30.0027 9.37226ZM6.56724 20.6229H10.3169C10.8531 20.6229 11.2543 21.0241 11.2543 21.5604C11.2543 22.0967 10.8531 22.498 10.3169 22.498H6.56724C6.4433 22.5011 6.32002 22.4789 6.20489 22.4329C6.08976 22.3869 5.98519 22.3179 5.89752 22.2302C5.80985 22.1426 5.74091 22.038 5.69489 21.9228C5.64888 21.8077 5.62674 21.6844 5.62983 21.5604C5.62983 21.0241 6.03104 20.6229 6.56724 20.6229ZM12.9529 20.6229H15.1802C15.0675 20.9228 15.0079 21.24 15.004 21.5604C15.004 22.7736 15.7933 23.8068 16.8788 24.1968V48.9219C15.7933 49.3119 15.004 50.3489 15.004 51.562C15.004 51.8921 15.0734 52.2033 15.1802 52.4996H12.9529C13.0598 52.2033 13.1292 51.8921 13.1292 51.562C13.1292 50.3489 12.3399 49.3119 11.2543 48.9219V24.1968C12.3399 23.8068 13.1292 22.7717 13.1292 21.5604C13.1292 21.2304 13.0598 20.9173 12.9529 20.6229ZM17.8162 20.6229H21.5659C22.1021 20.6229 22.5033 21.0241 22.5033 21.5604C22.5033 22.0967 22.1021 22.498 21.5659 22.498H17.8162C17.6923 22.5011 17.569 22.4789 17.4539 22.4329C17.3388 22.3869 17.2342 22.3179 17.1465 22.2302C17.0588 22.1426 16.9899 22.038 16.9439 21.9228C16.8979 21.8077 16.8757 21.6844 16.8788 21.5604C16.8788 21.0241 17.28 20.6229 17.8162 20.6229ZM24.2019 20.6229H35.8034C35.6907 20.9228 35.6311 21.24 35.6272 21.5604C35.6272 22.7736 36.4165 23.8068 37.502 24.1968V48.9219C36.4165 49.3119 35.6272 50.3489 35.6272 51.562C35.6272 51.8921 35.6965 52.2033 35.8034 52.4996H24.2019C24.3088 52.2033 24.3782 51.8921 24.3782 51.562C24.3782 50.3489 23.5889 49.3119 22.5033 48.9219V24.1968C23.5889 23.8068 24.3782 22.7717 24.3782 21.5604C24.3782 21.2304 24.3088 20.9173 24.2019 20.6229ZM38.4394 20.6229H42.1891C42.7253 20.6229 43.1265 21.0241 43.1265 21.5604C43.1265 22.0967 42.7253 22.498 42.1891 22.498H38.4394C38.3155 22.5011 38.1922 22.4789 38.0771 22.4329C37.9619 22.3869 37.8574 22.3179 37.7697 22.2302C37.682 22.1426 37.6131 22.038 37.5671 21.9228C37.521 21.8077 37.4989 21.6844 37.502 21.5604C37.502 21.0241 37.9032 20.6229 38.4394 20.6229ZM44.8251 20.6229H47.0524C46.9397 20.9228 46.8801 21.24 46.8762 21.5604C46.8762 22.7736 47.6655 23.8068 48.751 24.1968V48.9219C47.6655 49.3119 46.8762 50.3489 46.8762 51.562C46.8762 51.8921 46.9455 52.2033 47.0524 52.4996H44.8251C44.932 52.2033 45.0013 51.8921 45.0013 51.562C45.0013 50.3489 44.212 49.3119 43.1265 48.9219V24.1968C44.212 23.8068 45.0013 22.7717 45.0013 21.5604C45.0013 21.2304 44.932 20.9173 44.8251 20.6229ZM49.6884 20.6229H53.4381C53.9743 20.6229 54.3755 21.0241 54.3755 21.5604C54.3755 22.0967 53.9743 22.498 53.4381 22.498H49.6884C49.5645 22.5011 49.4412 22.4789 49.3261 22.4329C49.2109 22.3869 49.1064 22.3179 49.0187 22.2302C48.931 22.1426 48.8621 22.038 48.8161 21.9228C48.7701 21.8077 48.7479 21.6844 48.751 21.5604C48.751 21.0241 49.1522 20.6229 49.6884 20.6229ZM7.50466 24.3731H9.37949V48.7494H7.50466V24.3731ZM18.7537 24.3731H20.6285V48.7494H18.7537V24.3731ZM39.3768 24.3731H41.2517V48.7494H39.3768V24.3731ZM50.6258 24.3731H52.5007V48.7494H50.6258V24.3731ZM25.3662 29.9984V30.0171H25.3231V31.8922H27.2485C29.0015 31.8922 29.8827 32.7192 30.1995 33.7486H25.3662V35.6237H30.1995C29.8808 36.6531 28.9996 37.4838 27.2485 37.4838H25.3212V39.3589H25.8762L31.5944 44.9992L32.9143 43.6679L28.4241 39.2351C29.3258 39.0599 30.1565 38.6246 30.8138 37.9829C31.4711 37.3411 31.9262 36.521 32.1231 35.6237H34.6822V33.7486H32.1231C31.9787 33.0735 31.6656 32.436 31.2251 31.8735H34.6822V29.9984H25.3662ZM6.56724 50.6245H10.3169C10.8531 50.6245 11.2543 51.0258 11.2543 51.562C11.2543 52.0983 10.8531 52.4996 10.3169 52.4996H6.56724C6.4433 52.5027 6.32002 52.4805 6.20489 52.4345C6.08976 52.3885 5.98519 52.3195 5.89752 52.2319C5.80985 52.1442 5.74091 52.0396 5.69489 51.9244C5.64888 51.8093 5.62674 51.686 5.62983 51.562C5.62983 51.0258 6.03104 50.6245 6.56724 50.6245ZM17.8162 50.6245H21.5659C22.1021 50.6245 22.5033 51.0258 22.5033 51.562C22.5033 52.0983 22.1021 52.4996 21.5659 52.4996H17.8162C17.6923 52.5027 17.569 52.4805 17.4539 52.4345C17.3388 52.3885 17.2342 52.3195 17.1465 52.2319C17.0588 52.1442 16.9899 52.0396 16.9439 51.9244C16.8979 51.8093 16.8757 51.686 16.8788 51.562C16.8788 51.0258 17.28 50.6245 17.8162 50.6245ZM38.4394 50.6245H42.1891C42.7253 50.6245 43.1265 51.0258 43.1265 51.562C43.1265 52.0983 42.7253 52.4996 42.1891 52.4996H38.4394C38.3155 52.5027 38.1922 52.4805 38.0771 52.4345C37.9619 52.3885 37.8574 52.3195 37.7697 52.2319C37.682 52.1442 37.6131 52.0396 37.5671 51.9244C37.521 51.8093 37.4989 51.686 37.502 51.562C37.502 51.0258 37.9032 50.6245 38.4394 50.6245ZM49.6884 50.6245H53.4381C53.9743 50.6245 54.3755 51.0258 54.3755 51.562C54.3755 52.0983 53.9743 52.4996 53.4381 52.4996H49.6884C49.5645 52.5027 49.4412 52.4805 49.3261 52.4345C49.2109 52.3885 49.1064 52.3195 49.0187 52.2319C48.931 52.1442 48.8621 52.0396 48.8161 51.9244C48.7701 51.8093 48.7479 51.686 48.751 51.562C48.751 51.0258 49.1522 50.6245 49.6884 50.6245ZM3.75499 54.3747H56.2503C57.3059 54.3747 58.1252 55.1941 58.1252 56.2498C58.1252 57.3055 57.3059 58.1249 56.2503 58.1249H3.75499C2.69946 58.1249 1.88016 57.3055 1.88016 56.2498C1.88016 55.1941 2.69946 54.3747 3.75499 54.3747Z"/>
</mask>
<path d="M29.9764 0.000504966C29.8058 0.00327027 29.6392 0.0525429 29.4946 0.143013L0.434664 18.894C0.262985 19.0031 0.131448 19.1651 0.0599022 19.3556C-0.0116435 19.546 -0.0193151 19.7545 0.038045 19.9497C0.0954051 20.1449 0.214684 20.3161 0.377882 20.4376C0.54108 20.559 0.73934 20.624 0.942743 20.6229H3.93123C3.81852 20.9228 3.75888 21.24 3.75499 21.5604C3.75499 22.7736 4.5443 23.8068 5.62983 24.1968V48.9219C4.5443 49.3119 3.75499 50.3489 3.75499 51.562C3.75499 51.8921 3.82436 52.2033 3.93123 52.4996H3.75499C1.69268 52.4996 0.00532672 54.1872 0.00532672 56.2498C0.00532672 58.3124 1.69268 60 3.75499 60H56.2503C58.3126 60 60 58.3124 60 56.2498C60 54.1872 58.3126 52.4996 56.2503 52.4996H56.0741C56.181 52.2033 56.2503 51.8921 56.2503 51.562C56.2503 50.3489 55.461 49.3119 54.3755 48.9219V24.1968C55.461 23.8068 56.2503 22.7717 56.2503 21.5604C56.2503 21.2304 56.181 20.9173 56.0741 20.6229H59.0626C59.2649 20.6228 59.4617 20.5572 59.6237 20.4359C59.7857 20.3147 59.9041 20.1443 59.9613 19.9502C60.0184 19.7561 60.0113 19.5488 59.9409 19.3591C59.8705 19.1694 59.7406 19.0076 59.5707 18.8978L30.5107 0.146763C30.3514 0.0452862 30.1652 -0.00569304 29.9764 0.000504966ZM30.0027 2.05562L55.8735 18.7478H4.12996L30.0027 2.05562ZM30.0027 7.49716C27.9422 7.49716 26.253 9.18663 26.253 11.2474C26.253 13.3081 27.9422 14.9976 30.0027 14.9976C32.0631 14.9976 33.7523 13.3081 33.7523 11.2474C33.7523 9.18663 32.0631 7.49716 30.0027 7.49716ZM30.0027 9.37226C31.0488 9.37226 31.8775 10.2011 31.8775 11.2474C31.8775 12.2937 31.0488 13.1225 30.0027 13.1225C28.9565 13.1225 28.1278 12.2937 28.1278 11.2474C28.1278 10.2011 28.9565 9.37226 30.0027 9.37226ZM6.56724 20.6229H10.3169C10.8531 20.6229 11.2543 21.0241 11.2543 21.5604C11.2543 22.0967 10.8531 22.498 10.3169 22.498H6.56724C6.4433 22.5011 6.32002 22.4789 6.20489 22.4329C6.08976 22.3869 5.98519 22.3179 5.89752 22.2302C5.80985 22.1426 5.74091 22.038 5.69489 21.9228C5.64888 21.8077 5.62674 21.6844 5.62983 21.5604C5.62983 21.0241 6.03104 20.6229 6.56724 20.6229ZM12.9529 20.6229H15.1802C15.0675 20.9228 15.0079 21.24 15.004 21.5604C15.004 22.7736 15.7933 23.8068 16.8788 24.1968V48.9219C15.7933 49.3119 15.004 50.3489 15.004 51.562C15.004 51.8921 15.0734 52.2033 15.1802 52.4996H12.9529C13.0598 52.2033 13.1292 51.8921 13.1292 51.562C13.1292 50.3489 12.3399 49.3119 11.2543 48.9219V24.1968C12.3399 23.8068 13.1292 22.7717 13.1292 21.5604C13.1292 21.2304 13.0598 20.9173 12.9529 20.6229ZM17.8162 20.6229H21.5659C22.1021 20.6229 22.5033 21.0241 22.5033 21.5604C22.5033 22.0967 22.1021 22.498 21.5659 22.498H17.8162C17.6923 22.5011 17.569 22.4789 17.4539 22.4329C17.3388 22.3869 17.2342 22.3179 17.1465 22.2302C17.0588 22.1426 16.9899 22.038 16.9439 21.9228C16.8979 21.8077 16.8757 21.6844 16.8788 21.5604C16.8788 21.0241 17.28 20.6229 17.8162 20.6229ZM24.2019 20.6229H35.8034C35.6907 20.9228 35.6311 21.24 35.6272 21.5604C35.6272 22.7736 36.4165 23.8068 37.502 24.1968V48.9219C36.4165 49.3119 35.6272 50.3489 35.6272 51.562C35.6272 51.8921 35.6965 52.2033 35.8034 52.4996H24.2019C24.3088 52.2033 24.3782 51.8921 24.3782 51.562C24.3782 50.3489 23.5889 49.3119 22.5033 48.9219V24.1968C23.5889 23.8068 24.3782 22.7717 24.3782 21.5604C24.3782 21.2304 24.3088 20.9173 24.2019 20.6229ZM38.4394 20.6229H42.1891C42.7253 20.6229 43.1265 21.0241 43.1265 21.5604C43.1265 22.0967 42.7253 22.498 42.1891 22.498H38.4394C38.3155 22.5011 38.1922 22.4789 38.0771 22.4329C37.9619 22.3869 37.8574 22.3179 37.7697 22.2302C37.682 22.1426 37.6131 22.038 37.5671 21.9228C37.521 21.8077 37.4989 21.6844 37.502 21.5604C37.502 21.0241 37.9032 20.6229 38.4394 20.6229ZM44.8251 20.6229H47.0524C46.9397 20.9228 46.8801 21.24 46.8762 21.5604C46.8762 22.7736 47.6655 23.8068 48.751 24.1968V48.9219C47.6655 49.3119 46.8762 50.3489 46.8762 51.562C46.8762 51.8921 46.9455 52.2033 47.0524 52.4996H44.8251C44.932 52.2033 45.0013 51.8921 45.0013 51.562C45.0013 50.3489 44.212 49.3119 43.1265 48.9219V24.1968C44.212 23.8068 45.0013 22.7717 45.0013 21.5604C45.0013 21.2304 44.932 20.9173 44.8251 20.6229ZM49.6884 20.6229H53.4381C53.9743 20.6229 54.3755 21.0241 54.3755 21.5604C54.3755 22.0967 53.9743 22.498 53.4381 22.498H49.6884C49.5645 22.5011 49.4412 22.4789 49.3261 22.4329C49.2109 22.3869 49.1064 22.3179 49.0187 22.2302C48.931 22.1426 48.8621 22.038 48.8161 21.9228C48.7701 21.8077 48.7479 21.6844 48.751 21.5604C48.751 21.0241 49.1522 20.6229 49.6884 20.6229ZM7.50466 24.3731H9.37949V48.7494H7.50466V24.3731ZM18.7537 24.3731H20.6285V48.7494H18.7537V24.3731ZM39.3768 24.3731H41.2517V48.7494H39.3768V24.3731ZM50.6258 24.3731H52.5007V48.7494H50.6258V24.3731ZM25.3662 29.9984V30.0171H25.3231V31.8922H27.2485C29.0015 31.8922 29.8827 32.7192 30.1995 33.7486H25.3662V35.6237H30.1995C29.8808 36.6531 28.9996 37.4838 27.2485 37.4838H25.3212V39.3589H25.8762L31.5944 44.9992L32.9143 43.6679L28.4241 39.2351C29.3258 39.0599 30.1565 38.6246 30.8138 37.9829C31.4711 37.3411 31.9262 36.521 32.1231 35.6237H34.6822V33.7486H32.1231C31.9787 33.0735 31.6656 32.436 31.2251 31.8735H34.6822V29.9984H25.3662ZM6.56724 50.6245H10.3169C10.8531 50.6245 11.2543 51.0258 11.2543 51.562C11.2543 52.0983 10.8531 52.4996 10.3169 52.4996H6.56724C6.4433 52.5027 6.32002 52.4805 6.20489 52.4345C6.08976 52.3885 5.98519 52.3195 5.89752 52.2319C5.80985 52.1442 5.74091 52.0396 5.69489 51.9244C5.64888 51.8093 5.62674 51.686 5.62983 51.562C5.62983 51.0258 6.03104 50.6245 6.56724 50.6245ZM17.8162 50.6245H21.5659C22.1021 50.6245 22.5033 51.0258 22.5033 51.562C22.5033 52.0983 22.1021 52.4996 21.5659 52.4996H17.8162C17.6923 52.5027 17.569 52.4805 17.4539 52.4345C17.3388 52.3885 17.2342 52.3195 17.1465 52.2319C17.0588 52.1442 16.9899 52.0396 16.9439 51.9244C16.8979 51.8093 16.8757 51.686 16.8788 51.562C16.8788 51.0258 17.28 50.6245 17.8162 50.6245ZM38.4394 50.6245H42.1891C42.7253 50.6245 43.1265 51.0258 43.1265 51.562C43.1265 52.0983 42.7253 52.4996 42.1891 52.4996H38.4394C38.3155 52.5027 38.1922 52.4805 38.0771 52.4345C37.9619 52.3885 37.8574 52.3195 37.7697 52.2319C37.682 52.1442 37.6131 52.0396 37.5671 51.9244C37.521 51.8093 37.4989 51.686 37.502 51.562C37.502 51.0258 37.9032 50.6245 38.4394 50.6245ZM49.6884 50.6245H53.4381C53.9743 50.6245 54.3755 51.0258 54.3755 51.562C54.3755 52.0983 53.9743 52.4996 53.4381 52.4996H49.6884C49.5645 52.5027 49.4412 52.4805 49.3261 52.4345C49.2109 52.3885 49.1064 52.3195 49.0187 52.2319C48.931 52.1442 48.8621 52.0396 48.8161 51.9244C48.7701 51.8093 48.7479 51.686 48.751 51.562C48.751 51.0258 49.1522 50.6245 49.6884 50.6245ZM3.75499 54.3747H56.2503C57.3059 54.3747 58.1252 55.1941 58.1252 56.2498C58.1252 57.3055 57.3059 58.1249 56.2503 58.1249H3.75499C2.69946 58.1249 1.88016 57.3055 1.88016 56.2498C1.88016 55.1941 2.69946 54.3747 3.75499 54.3747Z" fill="#006747" stroke="#006747" stroke-width="6" mask="url(#path-1-inside-1_1181_6345)"/>
</svg>
