<svg width="68" height="61" viewBox="0 0 68 61" fill="none" xmlns="http://www.w3.org/2000/svg">
<path d="M20.816 7.44504L23.3844 13.1643C24.0549 14.6577 24.2416 16.3238 23.9184 17.9288C23.5951 19.5338 22.7781 20.9973 21.582 22.1138L17.3278 26.0853C17.2034 26.2014 17.1247 26.3581 17.1057 26.5272C16.9804 27.6591 17.7464 29.863 19.5118 32.9279C20.796 35.1546 21.9607 36.7198 22.9488 37.5951C23.6379 38.2081 24.0166 38.3392 24.1789 38.2936L29.9023 36.5402C31.4658 36.0609 33.1398 36.0835 34.6897 36.6051C36.2396 37.1266 37.5875 38.1208 38.5445 39.4483L42.1893 44.5118C43.2985 46.0516 43.812 47.9421 43.6345 49.8324C43.457 51.7226 42.6005 53.4841 41.224 54.7899L38.7011 57.1848C37.3621 58.4544 35.7176 59.3551 33.9276 59.7993C32.1376 60.2435 30.2633 60.216 28.4871 59.7194C20.6451 57.5269 13.6147 50.901 7.316 39.9786C1.0088 29.0419 -1.20371 19.622 0.835098 11.7159C1.29405 9.93783 2.20271 8.30806 3.47351 6.98373C4.74432 5.6594 6.33441 4.68516 8.09052 4.15491L11.4135 3.15418C13.2339 2.60456 15.1918 2.73687 16.9219 3.52642C18.6521 4.31596 20.0362 5.7088 20.816 7.44504ZM12.6465 7.24547L9.32348 8.25189C8.27012 8.56966 7.31622 9.15365 6.55367 9.94762C5.79112 10.7416 5.2456 11.7188 4.96966 12.7851C3.25547 19.4338 5.2174 27.7846 11.0149 37.8403C16.8039 47.8817 23.037 53.7549 29.6375 55.6024C30.7029 55.8995 31.8269 55.9155 32.9002 55.6487C33.9735 55.3819 34.9596 54.8414 35.7625 54.08L38.2882 51.6851C38.9141 51.0914 39.3036 50.2905 39.3842 49.4311C39.4649 48.5717 39.2313 47.7121 38.7267 47.0122L35.0819 41.9515C34.647 41.3477 34.0341 40.8954 33.3294 40.6581C32.6246 40.4209 31.8633 40.4106 31.1524 40.6286L25.4147 42.3877C22.0831 43.3799 19.0591 40.6971 15.8129 35.0662C13.6261 31.2743 12.6066 28.3377 12.8601 26.054C12.9939 24.8679 13.5435 23.7731 14.4148 22.9577L18.669 18.9862C19.2129 18.4787 19.5845 17.8135 19.7316 17.0838C19.8786 16.3541 19.7938 15.5966 19.489 14.9177L16.9206 9.19845C16.5661 8.40986 15.9374 7.77723 15.1516 7.41844C14.3657 7.05964 13.4764 6.99918 12.6494 7.24832L12.6465 7.24547Z" fill="#006747"/>
<path d="M22.4014 6.05272C22.4014 4.54042 23.0014 3.09006 24.0694 2.0207C25.1374 0.951345 26.586 0.350586 28.0964 0.350586H62.2663C63.7767 0.350586 65.2253 0.951345 66.2933 2.0207C67.3613 3.09006 67.9613 4.54042 67.9613 6.05272V28.8613C67.9613 30.3736 67.3613 31.8239 66.2933 32.8933C65.2253 33.9627 63.7767 34.5634 62.2663 34.5634H28.0964C26.586 34.5634 25.1374 33.9627 24.0694 32.8933C23.0014 31.8239 22.4014 30.3736 22.4014 28.8613V6.05272ZM28.0964 3.20165C27.3412 3.20165 26.6169 3.50203 26.0829 4.03671C25.5489 4.57139 25.2489 5.29657 25.2489 6.05272V6.67141L45.1813 18.6459L65.1138 6.67141V6.05272C65.1138 5.29657 64.8138 4.57139 64.2798 4.03671C63.7458 3.50203 63.0215 3.20165 62.2663 3.20165H28.0964ZM65.1138 9.99575L51.7078 18.05L65.1138 26.3096V9.99575ZM65.017 29.5997L48.9571 19.7036L45.1813 21.9702L41.4056 19.7036L25.3457 29.5969C25.5075 30.2036 25.8648 30.7398 26.3622 31.1223C26.8596 31.5048 27.4692 31.7122 28.0964 31.7123H62.2663C62.8931 31.7124 63.5024 31.5054 63.9998 31.1234C64.4971 30.7415 64.8547 30.2059 65.017 29.5997ZM25.2489 26.3096L38.6549 18.05L25.2489 9.99575V26.3096Z" fill="#006747"/>
</svg>
