<svg width="70" height="70" viewBox="0 0 70 70" fill="none" xmlns="http://www.w3.org/2000/svg">
<path d="M35 0C15.701 0 0 12.5615 0 28C0 38.178 6.643 47.3025 17.5 52.269V70L36.19 55.9825C54.9395 55.482 70 43.12 70 28C70 12.5615 54.299 0 35 0ZM35 49H33.8345L24.5 56V47.5405L22.2565 46.676C12.845 43.0535 7 35.896 7 28C7 16.4185 19.5615 7 35 7C50.4385 7 63 16.4185 63 28C63 39.5815 50.4385 49 35 49Z" fill="#006747"/>
<path d="M17.5 17.5H52.5V24.5H17.5V17.5ZM17.5 31.5H42V38.5H17.5V31.5Z" fill="#006747"/>
</svg>
