<svg width="59" height="59" viewBox="0 0 59 59" fill="none" xmlns="http://www.w3.org/2000/svg">
<path d="M19.4966 43.4131H29.7622M2.38721 7.82559V51.6256C2.38721 53.0776 3.10824 54.4702 4.39169 55.497C5.67515 56.5238 7.41588 57.1006 9.23096 57.1006H50.2935C52.1085 57.1006 53.8493 56.5238 55.1327 55.497C56.4162 54.4702 57.1372 53.0776 57.1372 51.6256V19.7118C57.1371 18.9824 56.9548 18.2604 56.6011 17.5882C56.2473 16.9159 55.7292 16.307 55.0772 15.7972L39.8841 3.91096C38.6056 2.91084 36.8885 2.35076 35.1003 2.35059H9.23096C7.41588 2.35059 5.67515 2.92741 4.39169 3.95418C3.10824 4.98094 2.38721 6.37353 2.38721 7.82559V7.82559ZM19.4966 32.4631H40.0278H19.4966Z" stroke="#006747" stroke-width="3.65" stroke-linecap="round" stroke-linejoin="round"/>
<path d="M36.606 2.35059V13.3006C36.606 14.7526 37.327 16.1452 38.6104 17.172C39.8939 18.1988 41.6346 18.7756 43.4497 18.7756H57.1372" stroke="#006747" stroke-width="3.65" stroke-linejoin="round"/>
</svg>
