<svg width="61" height="61" viewBox="0 0 61 61" fill="none" xmlns="http://www.w3.org/2000/svg">
<path d="M49.3654 34.4405L50.9232 32.8828H48.7202H34.3458V28.0411H48.7202H50.9232L49.3654 26.4833L41.722 18.84L41.7164 18.8344L41.7107 18.8289C41.4795 18.6056 41.295 18.3385 41.1682 18.0431L40.3298 18.4033L41.1682 18.0431C41.0413 17.7478 40.9745 17.4301 40.9717 17.1087C40.9689 16.7872 41.0302 16.4684 41.1519 16.1709C41.2736 15.8734 41.4534 15.6031 41.6807 15.3758C41.908 15.1485 42.1783 14.9688 42.4758 14.8471C42.7733 14.7253 43.0921 14.6641 43.4135 14.6669C43.735 14.6697 44.0526 14.7365 44.348 14.8633C44.6434 14.9902 44.9105 15.1746 45.1338 15.4058L45.1393 15.4115L45.1449 15.4172L58.4783 28.7504C58.4783 28.7504 58.4784 28.7505 58.4784 28.7505C58.9322 29.2045 59.1871 29.82 59.1871 30.4619C59.1871 31.1038 58.9322 31.7194 58.4784 32.1733C58.4784 32.1734 58.4783 32.1734 58.4783 32.1734L45.1509 45.5007C44.6949 45.9384 44.0857 46.1805 43.4534 46.175C42.8186 46.1695 42.2115 45.9149 41.7626 45.4661C41.3138 45.0172 41.0592 44.41 41.0536 43.7753C41.0481 43.143 41.2903 42.5338 41.7281 42.0778L49.3654 34.4405ZM16.7665 34.7077H32.5208V50.4619C32.5208 52.8721 31.5634 55.1835 29.8591 56.8877C28.1549 58.592 25.8434 59.5494 23.4332 59.5494H10.0997C7.68954 59.5494 5.37807 58.592 3.67381 56.8877C1.96955 55.1835 1.01211 52.8721 1.01211 50.4619V10.4619C1.01211 8.05176 1.96955 5.74032 3.67381 4.03609C5.37807 2.33185 7.68954 1.37441 10.0997 1.37441H23.4332C25.8434 1.37441 28.1549 2.33185 29.8591 4.03609C31.5634 5.74032 32.5208 8.05176 32.5208 10.4619V26.2161H16.7665C15.6404 26.2161 14.5604 26.6634 13.7642 27.4597C12.9679 28.2559 12.5206 29.3358 12.5206 30.4619C12.5206 31.588 12.9679 32.6679 13.7642 33.4642C14.5604 34.2604 15.6404 34.7077 16.7665 34.7077Z" fill="#FF0000" fill-opacity="0.7" stroke="white" stroke-width="1.825"/>
</svg>
