<svg width="65" height="65" viewBox="0 0 65 65" fill="none" xmlns="http://www.w3.org/2000/svg">
<path d="M35.5721 0L22.6368 11.8182H29.1045V23.6364H42.0398V11.8182H48.5075M0 5.90909V11.8182H6.46766L18.1095 34.2727L13.5821 41.3636C13.2587 42.25 12.9353 43.1364 12.9353 44.3182C12.9353 47.5682 15.8458 50.2273 19.403 50.2273H58.209V44.3182H20.6965C20.3731 44.3182 20.0498 44.0227 20.0498 43.7273V43.4318L22.9602 38.4091H46.8905C49.1542 38.4091 51.4179 37.2273 52.3881 35.4545L65 14.7727L59.5025 11.8182L46.8905 32.5H24.2537L10.6716 5.90909M19.403 53.1818C15.8458 53.1818 12.9353 55.8409 12.9353 59.0909C12.9353 62.3409 15.8458 65 19.403 65C22.9602 65 25.8706 62.3409 25.8706 59.0909C25.8706 55.8409 22.9602 53.1818 19.403 53.1818ZM51.7413 53.1818C48.1841 53.1818 45.2736 55.8409 45.2736 59.0909C45.2736 62.3409 48.1841 65 51.7413 65C55.2985 65 58.209 62.3409 58.209 59.0909C58.209 55.8409 55.2985 53.1818 51.7413 53.1818Z" fill="#B4130A" fill-opacity="0.8"/>
</svg>
