<svg width="59" height="60" viewBox="0 0 59 60" fill="none" xmlns="http://www.w3.org/2000/svg">
<path d="M39.6031 41.2811H57.1377M42.5256 57.2497H8.23382C7.40497 57.2498 6.58556 57.0895 5.82997 56.7792C5.07438 56.4689 4.39989 56.0158 3.85128 55.45C3.30266 54.8842 2.89247 54.2186 2.64791 53.4974C2.40335 52.7761 2.33003 52.0158 2.4328 51.2668L3.57255 42.9525C3.8376 41.0209 4.8684 39.244 6.47111 37.956C8.07381 36.668 10.138 35.9575 12.2755 35.9583H13.3013L42.5256 57.2497ZM48.3704 33.2969V49.2654V33.2969Z" stroke="#006747" stroke-width="3.56" stroke-linecap="round" stroke-linejoin="round"/>
<path d="M26.3851 29.1142C34.4551 29.1142 40.9972 23.1564 40.9972 15.8071C40.9972 8.4578 34.4551 2.5 26.3851 2.5C18.315 2.5 11.7729 8.4578 11.7729 15.8071C11.7729 23.1564 18.315 29.1142 26.3851 29.1142Z" stroke="#006747" stroke-width="3.56"/>
</svg>
